Muli-Bold.ufo
<glyph name="exclam" format="1">
  <advance width="668"/>
  <unicode hex="0021"/>
  <outline>
    <contour>
      <point x="105" y="0" type="line"/>
      <point x="384" y="0" type="line"/>
      <point x="416" y="262" type="line"/>
      <point x="137" y="262" type="line"/>
    </contour>
    <contour>
      <point x="222" y="385" type="line"/>
      <point x="362" y="385" type="line"/>
      <point x="563" y="1456" type="line"/>
      <point x="283" y="1456" type="line"/>
    </contour>
  </outline>
</glyph>
<glyph name="quotedbl" format="1">
  <advance width="720"/>
  <unicode hex="0022"/>
  <outline>
    <contour>
      <point x="98" y="958" type="line"/>
      <point x="230" y="958" type="line"/>
      <point x="339" y="1456" type="line"/>
      <point x="109" y="1456" type="line"/>
    </contour>
    <contour>
      <point x="434" y="958" type="line"/>
      <point x="566" y="958" type="line"/>
      <point x="675" y="1456" type="line"/>
      <point x="445" y="1456" type="line"/>
    </contour>
  </outline>
</glyph>
<glyph name="numbersign" format="1">
  <advance width="1411"/>
  <unicode hex="0023"/>
  <outline>
    <contour>
      <point x="143" y="0" type="line"/>
      <point x="364" y="0" type="line"/>
      <point x="508" y="454" type="line"/>
      <point x="737" y="454" type="line"/>
      <point x="593" y="0" type="line"/>
      <point x="814" y="0" type="line"/>
      <point x="958" y="454" type="line"/>
      <point x="1232" y="454" type="line"/>
      <point x="1259" y="608" type="line"/>
      <point x="1007" y="608" type="line"/>
      <point x="1092" y="872" type="line"/>
      <point x="1339" y="872" type="line"/>
      <point x="1366" y="1026" type="line"/>
      <point x="1142" y="1026" type="line"/>
      <point x="1278" y="1456" type="line"/>
      <point x="1057" y="1456" type="line"/>
      <point x="921" y="1026" type="line"/>
      <point x="692" y="1026" type="line"/>
      <point x="828" y="1456" type="line"/>
      <point x="607" y="1456" type="line"/>
      <point x="471" y="1026" type="line"/>
      <point x="184" y="1026" type="line"/>
      <point x="155" y="872" type="line"/>
      <point x="421" y="872" type="line"/>
      <point x="336" y="608" type="line"/>
      <point x="77" y="608" type="line"/>
      <point x="48" y="454" type="line"/>
      <point x="287" y="454" type="line"/>
    </contour>
    <contour>
      <point x="557" y="608" type="line"/>
      <point x="642" y="872" type="line"/>
      <point x="871" y="872" type="line"/>
      <point x="786" y="608" type="line"/>
    </contour>
  </outline>
</glyph>
<glyph name="dollar" format="1">
  <advance width="1230"/>
  <unicode hex="0024"/>
  <outline>
    <contour>
      <point x="471" y="-215" type="line"/>
      <point x="567" y="-215" type="line"/>
      <point x="793" y="1627" type="line"/>
      <point x="697" y="1627" type="line"/>
    </contour>
    <component base="S"/>
  </outline>
</glyph>
<glyph name="percent" format="1">
  <advance width="1872"/>
  <unicode hex="0025"/>
  <outline>
    <contour>
      <point x="476" y="869" type="curve" smooth="yes"/>
      <point x="367" y="869"/>
      <point x="323" y="940"/>
      <point x="342" y="1097" type="curve" smooth="yes"/>
      <point x="360" y="1244"/>
      <point x="416" y="1326"/>
      <point x="532" y="1326" type="curve" smooth="yes"/>
      <point x="648" y="1326"/>
      <point x="684" y="1244"/>
      <point x="666" y="1097" type="curve" smooth="yes"/>
      <point x="647" y="940"/>
      <point x="585" y="869"/>
    </contour>
    <contour>
      <point x="458" y="719" type="curve" smooth="yes"/>
      <point x="682" y="719"/>
      <point x="838" y="861"/>
      <point x="867" y="1097" type="curve" smooth="yes"/>
      <point x="895" y="1326"/>
      <point x="776" y="1476"/>
      <point x="551" y="1476" type="curve" smooth="yes"/>
      <point x="326" y="1476"/>
      <point x="169" y="1326"/>
      <point x="141" y="1097" type="curve" smooth="yes"/>
      <point x="112" y="861"/>
      <point x="234" y="719"/>
    </contour>
    <contour>
      <point x="290" y="0" type="line"/>
      <point x="484" y="0" type="line"/>
      <point x="1591" y="1456" type="line"/>
      <point x="1396" y="1456" type="line"/>
    </contour>
    <contour>
      <point x="1340" y="129" type="curve" smooth="yes"/>
      <point x="1231" y="129"/>
      <point x="1186" y="200"/>
      <point x="1206" y="357" type="curve" smooth="yes"/>
      <point x="1224" y="504"/>
      <point x="1280" y="586"/>
      <point x="1396" y="586" type="curve" smooth="yes"/>
      <point x="1512" y="586"/>
      <point x="1548" y="504"/>
      <point x="1530" y="357" type="curve" smooth="yes"/>
      <point x="1510" y="200"/>
      <point x="1449" y="129"/>
    </contour>
    <contour>
      <point x="1321" y="-21" type="curve" smooth="yes"/>
      <point x="1545" y="-21"/>
      <point x="1704" y="141"/>
      <point x="1731" y="357" type="curve" smooth="yes"/>
      <point x="1756" y="566"/>
      <point x="1639" y="736"/>
      <point x="1414" y="736" type="curve" smooth="yes"/>
      <point x="1189" y="736"/>
      <point x="1030" y="566"/>
      <point x="1005" y="357" type="curve" smooth="yes"/>
      <point x="978" y="141"/>
      <point x="1097" y="-21"/>
    </contour>
  </outline>
</glyph>
<glyph name="ampersand" format="1">
  <advance width="1577"/>
  <unicode hex="0026"/>
  <outline>
    <contour>
      <point x="536" y="-27" type="curve" smooth="yes"/>
      <point x="725" y="-27"/>
      <point x="885" y="57"/>
      <point x="1005" y="159" type="curve"/>
      <point x="1090" y="55"/>
      <point x="1148" y="5"/>
      <point x="1278" y="-17" type="curve"/>
      <point x="1449" y="122" type="line"/>
      <point x="1348" y="154"/>
      <point x="1243" y="200"/>
      <point x="1158" y="302" type="curve"/>
      <point x="1283" y="460"/>
      <point x="1376" y="685"/>
      <point x="1402" y="891" type="curve"/>
      <point x="1190" y="936" type="line"/>
      <point x="1170" y="767"/>
      <point x="1118" y="607"/>
      <point x="1027" y="471" type="curve"/>
      <point x="759" y="810" type="line"/>
      <point x="905" y="897"/>
      <point x="1037" y="1017"/>
      <point x="1056" y="1167" type="curve" smooth="yes"/>
      <point x="1081" y="1375"/>
      <point x="909" y="1471"/>
      <point x="724" y="1471" type="curve" smooth="yes"/>
      <point x="531" y="1471"/>
      <point x="357" y="1366"/>
      <point x="332" y="1160" type="curve" smooth="yes"/>
      <point x="317" y="1039"/>
      <point x="368" y="958"/>
      <point x="449" y="854" type="curve"/>
      <point x="268" y="754"/>
      <point x="105" y="635"/>
      <point x="79" y="420" type="curve" smooth="yes"/>
      <point x="44" y="139"/>
      <point x="247" y="-27"/>
    </contour>
    <contour>
      <point x="562" y="177" type="curve" smooth="yes"/>
      <point x="402" y="177"/>
      <point x="298" y="279"/>
      <point x="315" y="421" type="curve" smooth="yes"/>
      <point x="332" y="562"/>
      <point x="442" y="639"/>
      <point x="564" y="704" type="curve"/>
      <point x="882" y="310" type="line"/>
      <point x="795" y="236"/>
      <point x="695" y="177"/>
    </contour>
    <contour>
      <point x="637" y="952" type="curve"/>
      <point x="582" y="1016"/>
      <point x="554" y="1079"/>
      <point x="563" y="1155" type="curve" smooth="yes"/>
      <point x="574" y="1240"/>
      <point x="635" y="1278"/>
      <point x="710" y="1278" type="curve" smooth="yes"/>
      <point x="770" y="1278"/>
      <point x="836" y="1247"/>
      <point x="825" y="1157" type="curve" smooth="yes"/>
      <point x="815" y="1073"/>
      <point x="732" y="1008"/>
    </contour>
  </outline>
</glyph>
<glyph name="quotesingle" format="1">
  <advance width="489"/>
  <unicode hex="0027"/>
  <outline>
    <contour>
      <point x="143" y="918" type="line"/>
      <point x="315" y="918" type="line"/>
      <point x="416" y="1456" type="line"/>
      <point x="170" y="1456" type="line"/>
    </contour>
  </outline>
</glyph>
<glyph name="parenleft" format="1">
  <advance width="679"/>
  <unicode hex="0028"/>
  <outline>
    <contour>
      <point x="303" y="-171" type="curve"/>
      <point x="525" y="-171" type="line"/>
      <point x="398" y="87"/>
      <point x="325" y="402"/>
      <point x="357" y="663" type="curve" smooth="yes"/>
      <point x="391" y="944"/>
      <point x="527" y="1246"/>
      <point x="733" y="1516" type="curve"/>
      <point x="503" y="1516" type="line"/>
      <point x="304" y="1253"/>
      <point x="159" y="970"/>
      <point x="121" y="665" type="curve" smooth="yes"/>
      <point x="85" y="375"/>
      <point x="173" y="72"/>
    </contour>
  </outline>
</glyph>
<glyph name="parenright" format="1">
  <advance width="679"/>
  <unicode hex="0029"/>
  <outline>
    <contour>
      <point x="-53" y="-191" type="curve"/>
      <point x="177" y="-191" type="line"/>
      <point x="376" y="72"/>
      <point x="521" y="355"/>
      <point x="559" y="660" type="curve" smooth="yes"/>
      <point x="595" y="950"/>
      <point x="507" y="1253"/>
      <point x="377" y="1496" type="curve"/>
      <point x="155" y="1496" type="line"/>
      <point x="282" y="1238"/>
      <point x="355" y="923"/>
      <point x="323" y="662" type="curve" smooth="yes"/>
      <point x="289" y="381"/>
      <point x="153" y="79"/>
    </contour>
  </outline>
</glyph>
<glyph name="asterisk" format="1">
  <advance width="1065"/>
  <unicode hex="002A"/>
  <outline>
    <contour>
      <point x="633" y="657" type="line"/>
      <point x="823" y="776" type="line"/>
      <point x="638" y="1010" type="line"/>
      <point x="928" y="1114" type="line"/>
      <point x="869" y="1286" type="line"/>
      <point x="609" y="1162" type="line"/>
      <point x="675" y="1456" type="line"/>
      <point x="453" y="1456" type="line"/>
      <point x="447" y="1162" type="line"/>
      <point x="217" y="1286" type="line"/>
      <point x="116" y="1114" type="line"/>
      <point x="380" y="1010" type="line"/>
      <point x="139" y="777" type="line"/>
      <point x="299" y="657" type="line"/>
      <point x="497" y="908" type="line"/>
    </contour>
  </outline>
</glyph>
<glyph name="plus" format="1">
  <advance width="1255"/>
  <unicode hex="002B"/>
  <outline>
    <contour>
      <point x="455" y="82" type="line"/>
      <point x="676" y="82" type="line"/>
      <point x="725" y="479" type="line"/>
      <point x="1107" y="479" type="line"/>
      <point x="1131" y="676" type="line"/>
      <point x="750" y="676" type="line"/>
      <point x="799" y="1072" type="line"/>
      <point x="579" y="1072" type="line"/>
      <point x="530" y="676" type="line"/>
      <point x="148" y="676" type="line"/>
      <point x="124" y="479" type="line"/>
      <point x="504" y="479" type="line"/>
    </contour>
  </outline>
</glyph>
<glyph name="comma" format="1">
  <advance width="534"/>
  <unicode hex="002C"/>
  <outline>
    <contour>
      <point x="25" y="-240" type="line"/>
      <point x="224" y="-240" type="line"/>
      <point x="463" y="259" type="line"/>
      <point x="198" y="259" type="line"/>
    </contour>
  </outline>
</glyph>
<glyph name="hyphen" format="1">
  <advance width="729"/>
  <unicode hex="002D"/>
  <outline>
    <contour>
      <point x="45" y="463" type="line"/>
      <point x="662" y="463" type="line"/>
      <point x="684" y="644" type="line"/>
      <point x="67" y="644" type="line"/>
    </contour>
    <contour>
      <point x="357" y="551" type="move" name="_mid"/>
    </contour>
  </outline>
</glyph>
<glyph name="period" format="1">
  <advance width="540"/>
  <unicode hex="002E"/>
  <outline>
    <contour>
      <point x="103" y="0" type="line"/>
      <point x="382" y="0" type="line"/>
      <point x="414" y="262" type="line"/>
      <point x="135" y="262" type="line"/>
    </contour>
  </outline>
</glyph>
<glyph name="slash" format="1">
  <advance width="761"/>
  <unicode hex="002F"/>
  <outline>
    <contour>
      <point x="-123" y="-169" type="line"/>
      <point x="84" y="-169" type="line"/>
      <point x="908" y="1456" type="line"/>
      <point x="696" y="1456" type="line"/>
    </contour>
  </outline>
</glyph>
<glyph name="zero" format="1">
  <advance width="1264"/>
  <unicode hex="0030"/>
  <outline>
    <contour>
      <point x="570" y="184" type="curve" smooth="yes"/>
      <point x="369" y="184"/>
      <point x="334" y="418"/>
      <point x="373" y="738" type="curve" smooth="yes"/>
      <point x="407" y="1019"/>
      <point x="503" y="1276"/>
      <point x="704" y="1276" type="curve" smooth="yes"/>
      <point x="898" y="1276"/>
      <point x="927" y="1018"/>
      <point x="893" y="738" type="curve" smooth="yes"/>
      <point x="854" y="418"/>
      <point x="763" y="184"/>
    </contour>
    <contour>
      <point x="541" y="-23" type="curve" smooth="yes"/>
      <point x="877" y="-23"/>
      <point x="1086" y="287"/>
      <point x="1141" y="739" type="curve" smooth="yes"/>
      <point x="1197" y="1191"/>
      <point x="1060" y="1483"/>
      <point x="727" y="1483" type="curve" smooth="yes"/>
      <point x="393" y="1483"/>
      <point x="182" y="1205"/>
      <point x="125" y="739" type="curve" smooth="yes"/>
      <point x="69" y="285"/>
      <point x="211" y="-23"/>
    </contour>
  </outline>
</glyph>
<glyph name="one" format="1">
  <advance width="1264"/>
  <unicode hex="0031"/>
  <outline>
    <contour>
      <point x="202" y="0" type="line"/>
      <point x="969" y="0" type="line"/>
      <point x="992" y="189" type="line"/>
      <point x="730" y="189" type="line"/>
      <point x="885" y="1456" type="line"/>
      <point x="674" y="1456" type="line"/>
      <point x="579" y="1406"/>
      <point x="444" y="1345"/>
      <point x="333" y="1310" type="curve"/>
      <point x="307" y="1091" type="line"/>
      <point x="423" y="1128"/>
      <point x="538" y="1173"/>
      <point x="613" y="1208" type="curve"/>
      <point x="488" y="192" type="line"/>
      <point x="225" y="192" type="line"/>
    </contour>
  </outline>
</glyph>
<glyph name="two" format="1">
  <advance width="1264"/>
  <unicode hex="0032"/>
  <outline>
    <contour>
      <point x="103" y="0" type="line"/>
      <point x="946" y="0" type="line"/>
      <point x="971" y="199" type="line"/>
      <point x="424" y="199" type="line"/>
      <point x="752" y="503" type="line" smooth="yes"/>
      <point x="920" y="659"/>
      <point x="1072" y="812"/>
      <point x="1084" y="1061" type="curve" smooth="yes"/>
      <point x="1098" y="1335"/>
      <point x="940" y="1481"/>
      <point x="692" y="1481" type="curve" smooth="yes"/>
      <point x="415" y="1481"/>
      <point x="208" y="1338"/>
      <point x="208" y="1338" type="curve"/>
      <point x="265" y="1148" type="line"/>
      <point x="266" y="1148"/>
      <point x="467" y="1276"/>
      <point x="647" y="1276" type="curve" smooth="yes"/>
      <point x="764" y="1276"/>
      <point x="849" y="1220"/>
      <point x="850" y="1068" type="curve" smooth="yes"/>
      <point x="852" y="892"/>
      <point x="779" y="807"/>
      <point x="606" y="640" type="curve" smooth="yes"/>
      <point x="125" y="178" type="line"/>
    </contour>
  </outline>
</glyph>
<glyph name="four" format="1">
  <advance width="1264"/>
  <unicode hex="0034"/>
  <outline>
    <contour>
      <point x="642" y="0" type="line"/>
      <point x="884" y="0" type="line"/>
      <point x="931" y="382" type="line"/>
      <point x="1154" y="382" type="line"/>
      <point x="1176" y="568" type="line"/>
      <point x="949" y="568" type="line"/>
      <point x="1058" y="1456" type="line"/>
      <point x="783" y="1456" type="line"/>
      <point x="86" y="556" type="line"/>
      <point x="65" y="382" type="line"/>
      <point x="689" y="382" type="line"/>
    </contour>
    <contour>
      <point x="351" y="568" type="line"/>
      <point x="668" y="1001" type="line"/>
      <point x="788" y="1165" type="line"/>
      <point x="714" y="568" type="line"/>
    </contour>
  </outline>
</glyph>
<glyph name="five" format="1">
  <advance width="1264"/>
  <unicode hex="0035"/>
  <outline>
    <contour>
      <point x="529" y="-23" type="curve" smooth="yes"/>
      <point x="798" y="-23"/>
      <point x="1069" y="148"/>
      <point x="1109" y="471" type="curve" smooth="yes"/>
      <point x="1143" y="749"/>
      <point x="985" y="958"/>
      <point x="757" y="958" type="curve" smooth="yes"/>
      <point x="655" y="958"/>
      <point x="553" y="936"/>
      <point x="486" y="863" type="curve"/>
      <point x="545" y="1249" type="line"/>
      <point x="1134" y="1249" type="line"/>
      <point x="1160" y="1456" type="line"/>
      <point x="356" y="1456" type="line"/>
      <point x="263" y="701" type="line"/>
      <point x="499" y="672" type="line"/>
      <point x="541" y="724"/>
      <point x="615" y="743"/>
      <point x="686" y="743" type="curve" smooth="yes"/>
      <point x="818" y="743"/>
      <point x="878" y="616"/>
      <point x="860" y="475" type="curve" smooth="yes"/>
      <point x="837" y="285"/>
      <point x="700" y="184"/>
      <point x="550" y="184" type="curve" smooth="yes"/>
      <point x="441" y="184"/>
      <point x="324" y="237"/>
      <point x="242" y="352" type="curve"/>
      <point x="95" y="171" type="line"/>
      <point x="204" y="40"/>
      <point x="366" y="-23"/>
    </contour>
  </outline>
</glyph>
<glyph name="six" format="1">
  <advance width="1264"/>
  <unicode hex="0036"/>
  <outline>
    <contour>
      <point x="589" y="-23" type="curve" smooth="yes"/>
      <point x="892" y="-23"/>
      <point x="1108" y="191"/>
      <point x="1143" y="474" type="curve" smooth="yes"/>
      <point x="1179" y="770"/>
      <point x="1017" y="958"/>
      <point x="734" y="958" type="curve" smooth="yes"/>
      <point x="619" y="958"/>
      <point x="505" y="913"/>
      <point x="413" y="800" type="curve"/>
      <point x="417" y="824"/>
      <point x="421" y="849"/>
      <point x="426" y="872" type="curve" smooth="yes"/>
      <point x="482" y="1105"/>
      <point x="625" y="1276"/>
      <point x="803" y="1276" type="curve" smooth="yes"/>
      <point x="907" y="1276"/>
      <point x="996" y="1243"/>
      <point x="1073" y="1176" type="curve"/>
      <point x="1175" y="1356" type="line"/>
      <point x="1094" y="1440"/>
      <point x="974" y="1483"/>
      <point x="826" y="1483" type="curve" smooth="yes"/>
      <point x="442" y="1483"/>
      <point x="199" y="1128"/>
      <point x="146" y="697" type="curve" smooth="yes"/>
      <point x="93" y="267"/>
      <point x="232" y="-23"/>
    </contour>
    <contour>
      <point x="609" y="184" type="curve" smooth="yes"/>
      <point x="479" y="184"/>
      <point x="365" y="292"/>
      <point x="388" y="475" type="curve" smooth="yes"/>
      <point x="408" y="639"/>
      <point x="526" y="760"/>
      <point x="691" y="760" type="curve" smooth="yes"/>
      <point x="849" y="760"/>
      <point x="913" y="633"/>
      <point x="893" y="471" type="curve" smooth="yes"/>
      <point x="873" y="309"/>
      <point x="761" y="184"/>
    </contour>
  </outline>
</glyph>
<glyph name="seven" format="1">
  <advance width="1264"/>
  <unicode hex="0037"/>
  <outline>
    <contour>
      <point x="233" y="0" type="line"/>
      <point x="492" y="0" type="line"/>
      <point x="1209" y="1272" type="line"/>
      <point x="1231" y="1456" type="line"/>
      <point x="240" y="1456" type="line"/>
      <point x="216" y="1257" type="line"/>
      <point x="928" y="1257" type="line"/>
    </contour>
  </outline>
</glyph>
<glyph name="eight" format="1">
  <advance width="1266"/>
  <unicode hex="0038"/>
  <outline>
    <contour>
      <point x="544" y="-23" type="curve" smooth="yes"/>
      <point x="800" y="-23"/>
      <point x="1051" y="121"/>
      <point x="1084" y="385" type="curve" smooth="yes"/>
      <point x="1104" y="547"/>
      <point x="1011" y="693"/>
      <point x="874" y="761" type="curve"/>
      <point x="1018" y="824"/>
      <point x="1120" y="933"/>
      <point x="1139" y="1092" type="curve" smooth="yes"/>
      <point x="1169" y="1336"/>
      <point x="1006" y="1483"/>
      <point x="722" y="1483" type="curve" smooth="yes"/>
      <point x="459" y="1483"/>
      <point x="245" y="1342"/>
      <point x="216" y="1101" type="curve" smooth="yes"/>
      <point x="196" y="943"/>
      <point x="278" y="834"/>
      <point x="402" y="764" type="curve"/>
      <point x="234" y="691"/>
      <point x="119" y="558"/>
      <point x="98" y="392" type="curve" smooth="yes"/>
      <point x="66" y="127"/>
      <point x="266" y="-23"/>
    </contour>
    <contour>
      <point x="566" y="184" type="curve" smooth="yes"/>
      <point x="416" y="184"/>
      <point x="327" y="261"/>
      <point x="345" y="402" type="curve" smooth="yes"/>
      <point x="362" y="539"/>
      <point x="482" y="643"/>
      <point x="631" y="675" type="curve"/>
      <point x="763" y="641"/>
      <point x="858" y="527"/>
      <point x="843" y="405" type="curve" smooth="yes"/>
      <point x="824" y="253"/>
      <point x="715" y="184"/>
    </contour>
    <contour>
      <point x="647" y="855" type="curve"/>
      <point x="515" y="890"/>
      <point x="441" y="976"/>
      <point x="455" y="1091" type="curve" smooth="yes"/>
      <point x="471" y="1217"/>
      <point x="571" y="1276"/>
      <point x="698" y="1276" type="curve" smooth="yes"/>
      <point x="819" y="1276"/>
      <point x="911" y="1213"/>
      <point x="898" y="1101" type="curve" smooth="yes"/>
      <point x="882" y="978"/>
      <point x="788" y="893"/>
    </contour>
  </outline>
</glyph>
<glyph name="nine" format="1">
  <advance width="1264"/>
  <unicode hex="0039"/>
  <outline>
    <contour>
      <point x="467" y="-25" type="curve" smooth="yes"/>
      <point x="818" y="-25"/>
      <point x="1063" y="290"/>
      <point x="1122" y="771" type="curve" smooth="yes"/>
      <point x="1180" y="1240"/>
      <point x="1027" y="1483"/>
      <point x="704" y="1483" type="curve" smooth="yes"/>
      <point x="399" y="1483"/>
      <point x="183" y="1271"/>
      <point x="148" y="993" type="curve" smooth="yes"/>
      <point x="114" y="714"/>
      <point x="269" y="521"/>
      <point x="552" y="521" type="curve" smooth="yes"/>
      <point x="666" y="521"/>
      <point x="787" y="557"/>
      <point x="868" y="665" type="curve"/>
      <point x="864" y="633" type="line" smooth="yes"/>
      <point x="825" y="316"/>
      <point x="655" y="185"/>
      <point x="474" y="185" type="curve" smooth="yes"/>
      <point x="386" y="185"/>
      <point x="296" y="216"/>
      <point x="217" y="271" type="curve"/>
      <point x="107" y="75" type="line"/>
      <point x="235" y="7"/>
      <point x="357" y="-25"/>
    </contour>
    <contour>
      <point x="602" y="722" type="curve" smooth="yes"/>
      <point x="436" y="722"/>
      <point x="374" y="842"/>
      <point x="393" y="998" type="curve" smooth="yes"/>
      <point x="413" y="1162"/>
      <point x="527" y="1276"/>
      <point x="686" y="1276" type="curve" smooth="yes"/>
      <point x="846" y="1276"/>
      <point x="922" y="1152"/>
      <point x="905" y="1012" type="curve" smooth="yes"/>
      <point x="881" y="820"/>
      <point x="756" y="722"/>
    </contour>
  </outline>
</glyph>
<glyph name="colon" format="1">
  <advance width="581"/>
  <unicode hex="003A"/>
  <outline>
    <contour>
      <point x="75" y="-11" type="line"/>
      <point x="364" y="-11" type="line"/>
      <point x="396" y="251" type="line"/>
      <point x="107" y="251" type="line"/>
    </contour>
    <contour>
      <point x="185" y="879" type="line"/>
      <point x="474" y="879" type="line"/>
      <point x="505" y="1141" type="line"/>
      <point x="217" y="1141" type="line"/>
    </contour>
  </outline>
</glyph>
<glyph name="semicolon" format="1">
  <advance width="540"/>
  <unicode hex="003B"/>
  <outline>
    <contour>
      <point x="-13" y="-240" type="line"/>
      <point x="186" y="-240" type="line"/>
      <point x="423" y="259" type="line"/>
      <point x="156" y="259" type="line"/>
    </contour>
    <contour>
      <point x="231" y="879" type="line"/>
      <point x="478" y="879" type="line"/>
      <point x="510" y="1141" type="line"/>
      <point x="263" y="1141" type="line"/>
    </contour>
  </outline>
</glyph>
<glyph name="equal" format="1">
  <advance width="1443"/>
  <unicode hex="003D"/>
  <outline>
    <contour>
      <point x="171" y="267" type="line"/>
      <point x="1198" y="267" type="line"/>
      <point x="1222" y="458" type="line"/>
      <point x="195" y="458" type="line"/>
    </contour>
    <contour>
      <point x="221" y="670" type="line"/>
      <point x="1246" y="670" type="line"/>
      <point x="1270" y="862" type="line"/>
      <point x="245" y="862" type="line"/>
    </contour>
  </outline>
</glyph>
<glyph name="greater" format="1">
  <advance width="1387"/>
  <unicode hex="003E"/>
  <outline>
    <contour>
      <point x="148" y="45" type="line"/>
      <point x="1237" y="501" type="line"/>
      <point x="1252" y="620" type="line"/>
      <point x="285" y="1114" type="line"/>
      <point x="258" y="898" type="line"/>
      <point x="929" y="571" type="line"/>
      <point x="176" y="266" type="line"/>
    </contour>
  </outline>
</glyph>
<glyph name="question" format="1">
  <advance width="1026"/>
  <unicode hex="003F"/>
  <outline>
    <contour>
      <point x="275" y="405" type="line"/>
      <point x="465" y="405" type="line"/>
      <point x="473" y="476" type="line" smooth="yes"/>
      <point x="506" y="746"/>
      <point x="926" y="823"/>
      <point x="963" y="1125" type="curve" smooth="yes"/>
      <point x="993" y="1367"/>
      <point x="806" y="1484"/>
      <point x="573" y="1484" type="curve" smooth="yes"/>
      <point x="396" y="1484"/>
      <point x="270" y="1426"/>
      <point x="242" y="1413" type="curve"/>
      <point x="217" y="1210" type="line"/>
      <point x="269" y="1233"/>
      <point x="407" y="1278"/>
      <point x="525" y="1278" type="curve" smooth="yes"/>
      <point x="643" y="1278"/>
      <point x="731" y="1234"/>
      <point x="717" y="1118" type="curve" smooth="yes"/>
      <point x="692" y="915"/>
      <point x="323" y="802"/>
      <point x="292" y="543" type="curve" smooth="yes"/>
    </contour>
    <contour>
      <point x="191" y="0" type="line"/>
      <point x="470" y="0" type="line"/>
      <point x="502" y="262" type="line"/>
      <point x="223" y="262" type="line"/>
    </contour>
  </outline>
</glyph>
<glyph name="at" format="1">
  <advance width="1805"/>
  <unicode hex="0040"/>
  <outline>
    <contour>
      <point x="843" y="-99" type="curve" smooth="yes"/>
      <point x="1051" y="-99"/>
      <point x="1266" y="-41"/>
      <point x="1439" y="78" type="curve"/>
      <point x="1373" y="189" type="line"/>
      <point x="1213" y="98"/>
      <point x="1039" y="52"/>
      <point x="879" y="52" type="curve" smooth="yes"/>
      <point x="546" y="52"/>
      <point x="247" y="250"/>
      <point x="298" y="668" type="curve" smooth="yes"/>
      <point x="353" y="1113"/>
      <point x="683" y="1326"/>
      <point x="1046" y="1326" type="curve" smooth="yes"/>
      <point x="1336" y="1326"/>
      <point x="1600" y="1159"/>
      <point x="1556" y="799" type="curve" smooth="yes"/>
      <point x="1525" y="545"/>
      <point x="1358" y="374"/>
      <point x="1272" y="374" type="curve" smooth="yes"/>
      <point x="1229" y="374"/>
      <point x="1219" y="427"/>
      <point x="1223" y="462" type="curve" smooth="yes"/>
      <point x="1227" y="495"/>
      <point x="1233" y="533"/>
      <point x="1265" y="636" type="curve" smooth="yes"/>
      <point x="1417" y="1117" type="line"/>
      <point x="1211" y="1117" type="line"/>
      <point x="1178" y="1018" type="line"/>
      <point x="1157" y="1102"/>
      <point x="1089" y="1137"/>
      <point x="986" y="1137" type="curve" smooth="yes"/>
      <point x="791" y="1137"/>
      <point x="511" y="934"/>
      <point x="473" y="624" type="curve" smooth="yes"/>
      <point x="443" y="378"/>
      <point x="607" y="258"/>
      <point x="764" y="258" type="curve" smooth="yes"/>
      <point x="922" y="258"/>
      <point x="1030" y="351"/>
      <point x="1081" y="463" type="curve"/>
      <point x="1067" y="347"/>
      <point x="1135" y="254"/>
      <point x="1276" y="254" type="curve" smooth="yes"/>
      <point x="1481" y="254"/>
      <point x="1680" y="533"/>
      <point x="1712" y="794" type="curve" smooth="yes"/>
      <point x="1761" y="1199"/>
      <point x="1474" y="1482"/>
      <point x="1057" y="1482" type="curve" smooth="yes"/>
      <point x="591" y="1482"/>
      <point x="165" y="1175"/>
      <point x="103" y="668" type="curve" smooth="yes"/>
      <point x="45" y="196"/>
      <point x="370" y="-99"/>
    </contour>
    <contour>
      <point x="817" y="440" type="curve" smooth="yes"/>
      <point x="738" y="440"/>
      <point x="690" y="501"/>
      <point x="701" y="593" type="curve" smooth="yes"/>
      <point x="721" y="760"/>
      <point x="837" y="963"/>
      <point x="991" y="963" type="curve" smooth="yes"/>
      <point x="1068" y="963"/>
      <point x="1114" y="911"/>
      <point x="1103" y="819" type="curve" smooth="yes"/>
      <point x="1079" y="627"/>
      <point x="958" y="440"/>
    </contour>
  </outline>
</glyph>
<glyph name="A" format="1">
  <advance width="1446"/>
  <unicode hex="0041"/>
  <outline>
    <contour>
      <point x="-74" y="0" type="line"/>
      <point x="191" y="0" type="line"/>
      <point x="376" y="364" type="line"/>
      <point x="970" y="364" type="line"/>
      <point x="1070" y="0" type="line"/>
      <point x="1342" y="0" type="line"/>
      <point x="933" y="1456" type="line"/>
      <point x="686" y="1456" type="line"/>
    </contour>
    <contour>
      <point x="487" y="584" type="line"/>
      <point x="630" y="882" type="line"/>
      <point x="771" y="1179" type="line"/>
      <point x="839" y="882" type="line"/>
      <point x="905" y="584" type="line"/>
    </contour>
    <contour>
      <point x="817" y="1456" type="move" name="top"/>
    </contour>
    <contour>
      <point x="1196" y="0" type="move" name="ogonek"/>
    </contour>
  </outline>
</glyph>
<glyph name="B" format="1">
  <advance width="1364"/>
  <unicode hex="0042"/>
  <outline>
    <contour>
      <point x="103" y="0" type="line"/>
      <point x="631" y="0" type="line" smooth="yes"/>
      <point x="993" y="0"/>
      <point x="1187" y="196"/>
      <point x="1213" y="414" type="curve" smooth="yes"/>
      <point x="1235" y="588"/>
      <point x="1165" y="730"/>
      <point x="987" y="775" type="curve"/>
      <point x="1142" y="840"/>
      <point x="1213" y="957"/>
      <point x="1229" y="1088" type="curve" smooth="yes"/>
      <point x="1271" y="1429"/>
      <point x="931" y="1456"/>
      <point x="677" y="1456" type="curve" smooth="yes"/>
      <point x="281" y="1456" type="line"/>
    </contour>
    <contour>
      <point x="372" y="207" type="line"/>
      <point x="427" y="654" type="line"/>
      <point x="657" y="654" type="line" smooth="yes"/>
      <point x="896" y="654"/>
      <point x="978" y="602"/>
      <point x="956" y="424" type="curve" smooth="yes"/>
      <point x="938" y="280"/>
      <point x="817" y="207"/>
      <point x="613" y="207" type="curve" smooth="yes"/>
    </contour>
    <contour>
      <point x="449" y="852" type="line"/>
      <point x="498" y="1249" type="line"/>
      <point x="672" y="1249" type="line" smooth="yes"/>
      <point x="873" y="1249"/>
      <point x="988" y="1215"/>
      <point x="968" y="1057" type="curve" smooth="yes"/>
      <point x="949" y="896"/>
      <point x="805" y="852"/>
      <point x="669" y="852" type="curve" smooth="yes"/>
    </contour>
    <contour>
      <point x="740" y="1456" type="move" name="top"/>
    </contour>
  </outline>
</glyph>
<glyph name="C" format="1">
  <advance width="1426"/>
  <unicode hex="0043"/>
  <outline>
    <contour>
      <point x="741" y="-22" type="curve" smooth="yes"/>
      <point x="916" y="-22"/>
      <point x="1092" y="22"/>
      <point x="1261" y="141" type="curve"/>
      <point x="1203" y="333" type="line"/>
      <point x="1053" y="225"/>
      <point x="911" y="186"/>
      <point x="781" y="186" type="curve" smooth="yes"/>
      <point x="504" y="186"/>
      <point x="319" y="393"/>
      <point x="360" y="728" type="curve" smooth="yes"/>
      <point x="400" y="1058"/>
      <point x="639" y="1275"/>
      <point x="902" y="1275" type="curve" smooth="yes"/>
      <point x="1018" y="1275"/>
      <point x="1134" y="1251"/>
      <point x="1254" y="1159" type="curve"/>
      <point x="1369" y="1327" type="line"/>
      <point x="1235" y="1445"/>
      <point x="1075" y="1483"/>
      <point x="907" y="1483" type="curve" smooth="yes"/>
      <point x="547" y="1483"/>
      <point x="166" y="1220"/>
      <point x="105" y="725" type="curve" smooth="yes"/>
      <point x="45" y="237"/>
      <point x="364" y="-22"/>
    </contour>
    <contour>
      <point x="917" y="1456" type="move" name="top"/>
    </contour>
    <contour>
      <point x="740" y="0" type="move" name="bot"/>
    </contour>
  </outline>
</glyph>
<glyph name="D" format="1">
  <advance width="1563"/>
  <unicode hex="0044"/>
  <outline>
    <contour>
      <point x="370" y="207" type="line"/>
      <point x="498" y="1249" type="line"/>
      <point x="670" y="1249" type="line" smooth="yes"/>
      <point x="1078" y="1249"/>
      <point x="1243" y="1071"/>
      <point x="1202" y="736" type="curve" smooth="yes"/>
      <point x="1160" y="393"/>
      <point x="943" y="207"/>
      <point x="583" y="207" type="curve" smooth="yes"/>
    </contour>
    <contour>
      <point x="103" y="0" type="line"/>
      <point x="545" y="0" type="line" smooth="yes"/>
      <point x="1080" y="0"/>
      <point x="1399" y="259"/>
      <point x="1458" y="735" type="curve" smooth="yes"/>
      <point x="1516" y="1205"/>
      <point x="1255" y="1456"/>
      <point x="672" y="1456" type="curve" smooth="yes"/>
      <point x="281" y="1456" type="line"/>
    </contour>
    <contour>
      <point x="817" y="1456" type="move" name="top"/>
    </contour>
    <contour>
      <point x="328" y="750" type="move" name="mid"/>
    </contour>
  </outline>
</glyph>
<glyph name="E" format="1">
  <advance width="1235"/>
  <unicode hex="0045"/>
  <outline>
    <contour>
      <point x="103" y="0" type="line"/>
      <point x="1042" y="0" type="line"/>
      <point x="1067" y="207" type="line"/>
      <point x="372" y="207" type="line"/>
      <point x="425" y="641" type="line"/>
      <point x="1054" y="641" type="line"/>
      <point x="1080" y="849" type="line"/>
      <point x="449" y="849" type="line"/>
      <point x="498" y="1249" type="line"/>
      <point x="1166" y="1249" type="line"/>
      <point x="1191" y="1456" type="line"/>
      <point x="281" y="1456" type="line"/>
    </contour>
    <contour>
      <point x="756" y="1456" type="move" name="top"/>
    </contour>
    <contour>
      <point x="569" y="0" type="move" name="bot"/>
    </contour>
    <contour>
      <point x="737" y="0" type="move" name="ogonek"/>
    </contour>
  </outline>
</glyph>
<glyph name="F" format="1">
  <advance width="1139"/>
  <unicode hex="0046"/>
  <outline>
    <contour>
      <point x="103" y="0" type="line"/>
      <point x="345" y="0" type="line"/>
      <point x="423" y="636" type="line"/>
      <point x="1022" y="636" type="line"/>
      <point x="1047" y="844" type="line"/>
      <point x="448" y="844" type="line"/>
      <point x="498" y="1249" type="line"/>
      <point x="1135" y="1249" type="line"/>
      <point x="1160" y="1456" type="line"/>
      <point x="281" y="1456" type="line"/>
    </contour>
    <contour>
      <point x="738" y="1456" type="move" name="top"/>
    </contour>
  </outline>
</glyph>
<glyph name="G" format="1">
  <advance width="1536"/>
  <unicode hex="0047"/>
  <outline>
    <contour>
      <point x="758" y="-23" type="curve" smooth="yes"/>
      <point x="926" y="-23"/>
      <point x="1099" y="6"/>
      <point x="1289" y="87" type="curve"/>
      <point x="1375" y="788" type="line"/>
      <point x="785" y="788" type="line"/>
      <point x="760" y="581" type="line"/>
      <point x="1105" y="581" type="line"/>
      <point x="1061" y="224" type="line"/>
      <point x="975" y="198"/>
      <point x="880" y="184"/>
      <point x="794" y="184" type="curve" smooth="yes"/>
      <point x="455" y="184"/>
      <point x="318" y="404"/>
      <point x="356" y="715" type="curve" smooth="yes"/>
      <point x="392" y="1004"/>
      <point x="599" y="1275"/>
      <point x="943" y="1275" type="curve" smooth="yes"/>
      <point x="1138" y="1275"/>
      <point x="1248" y="1220"/>
      <point x="1315" y="1168" type="curve"/>
      <point x="1433" y="1338" type="line"/>
      <point x="1364" y="1395"/>
      <point x="1241" y="1483"/>
      <point x="966" y="1483" type="curve" smooth="yes"/>
      <point x="480" y="1483"/>
      <point x="155" y="1129"/>
      <point x="103" y="704" type="curve" smooth="yes"/>
      <point x="49" y="267"/>
      <point x="270" y="-23"/>
    </contour>
    <contour>
      <point x="927" y="1456" type="move" name="top"/>
    </contour>
    <contour>
      <point x="760" y="0" type="move" name="bot"/>
    </contour>
  </outline>
</glyph>
<glyph name="H" format="1">
  <advance width="1568"/>
  <unicode hex="0048"/>
  <outline>
    <contour>
      <point x="103" y="0" type="line"/>
      <point x="349" y="0" type="line"/>
      <point x="428" y="643" type="line"/>
      <point x="1128" y="643" type="line"/>
      <point x="1049" y="0" type="line"/>
      <point x="1287" y="0" type="line"/>
      <point x="1465" y="1456" type="line"/>
      <point x="1223" y="1456" type="line"/>
      <point x="1149" y="851" type="line"/>
      <point x="449" y="851" type="line"/>
      <point x="523" y="1456" type="line"/>
      <point x="281" y="1456" type="line"/>
    </contour>
    <contour>
      <point x="866" y="1456" type="move" name="top"/>
    </contour>
  </outline>
</glyph>
<glyph name="I" format="1">
  <advance width="591"/>
  <unicode hex="0049"/>
  <outline>
    <contour>
      <point x="86" y="0" type="line"/>
      <point x="328" y="0" type="line"/>
      <point x="506" y="1456" type="line"/>
      <point x="264" y="1456" type="line"/>
    </contour>
    <contour>
      <point x="391" y="1456" type="move" name="top"/>
    </contour>
    <contour>
      <point x="236" y="0" type="move" name="ogonek"/>
    </contour>
  </outline>
</glyph>
<glyph name="J" format="1">
  <advance width="961"/>
  <unicode hex="004A"/>
  <outline>
    <contour>
      <point x="263" y="-331" type="curve" smooth="yes"/>
      <point x="514" y="-331"/>
      <point x="681" y="-174"/>
      <point x="717" y="121" type="curve" smooth="yes"/>
      <point x="881" y="1456" type="line"/>
      <point x="639" y="1456" type="line"/>
      <point x="474" y="112" type="line" smooth="yes"/>
      <point x="456" y="-35"/>
      <point x="396" y="-127"/>
      <point x="246" y="-127" type="curve" smooth="yes"/>
      <point x="188" y="-127"/>
      <point x="117" y="-114"/>
      <point x="28" y="-85" type="curve"/>
      <point x="-36" y="-270" type="line"/>
      <point x="73" y="-311"/>
      <point x="174" y="-331"/>
    </contour>
    <contour>
      <point x="768" y="1456" type="move" name="top"/>
    </contour>
  </outline>
</glyph>
<glyph name="K" format="1">
  <advance width="1340"/>
  <unicode hex="004B"/>
  <outline>
    <contour>
      <point x="103" y="0" type="line"/>
      <point x="347" y="0" type="line"/>
      <point x="428" y="659" type="line"/>
      <point x="956" y="0" type="line"/>
      <point x="1269" y="0" type="line"/>
      <point x="673" y="753" type="line"/>
      <point x="1398" y="1456" type="line"/>
      <point x="1096" y="1456" type="line"/>
      <point x="445" y="816" type="line"/>
      <point x="523" y="1456" type="line"/>
      <point x="281" y="1456" type="line"/>
    </contour>
    <contour>
      <point x="787" y="1456" type="move" name="top"/>
    </contour>
    <contour>
      <point x="661" y="0" type="move" name="bot"/>
    </contour>
  </outline>
</glyph>
<glyph name="L" format="1">
  <advance width="1159"/>
  <unicode hex="004C"/>
  <outline>
    <contour>
      <point x="103" y="0" type="line"/>
      <point x="1019" y="0" type="line"/>
      <point x="1044" y="207" type="line"/>
      <point x="370" y="207" type="line"/>
      <point x="523" y="1456" type="line"/>
      <point x="281" y="1456" type="line"/>
    </contour>
    <contour>
      <point x="360" y="1026" type="move" name="caron.alt"/>
    </contour>
    <contour>
      <point x="458" y="1456" type="move" name="top"/>
    </contour>
    <contour>
      <point x="388" y="765" type="move" name="mid"/>
    </contour>
    <contour>
      <point x="559" y="0" type="move" name="bot"/>
    </contour>
  </outline>
</glyph>
<glyph name="M" format="1">
  <advance width="1974"/>
  <unicode hex="004D"/>
  <outline>
    <contour>
      <point x="103" y="0" type="line"/>
      <point x="336" y="0" type="line"/>
      <point x="464" y="1048" type="line"/>
      <point x="530" y="857" type="line"/>
      <point x="811" y="0" type="line"/>
      <point x="989" y="0" type="line"/>
      <point x="1479" y="861" type="line"/>
      <point x="1596" y="1060" type="line"/>
      <point x="1466" y="0" type="line"/>
      <point x="1693" y="0" type="line"/>
      <point x="1871" y="1456" type="line"/>
      <point x="1586" y="1456" type="line"/>
      <point x="1076" y="552" type="line"/>
      <point x="939" y="311" type="line"/>
      <point x="862" y="546" type="line"/>
      <point x="567" y="1456" type="line"/>
      <point x="281" y="1456" type="line"/>
    </contour>
    <contour>
      <point x="1079" y="1456" type="move" name="top"/>
    </contour>
  </outline>
</glyph>
<glyph name="N" format="1">
  <advance width="1623"/>
  <unicode hex="004E"/>
  <outline>
    <contour>
      <point x="103" y="0" type="line"/>
      <point x="327" y="0" type="line"/>
      <point x="461" y="1098" type="line"/>
      <point x="561" y="918" type="line"/>
      <point x="1084" y="0" type="line"/>
      <point x="1342" y="0" type="line"/>
      <point x="1520" y="1456" type="line"/>
      <point x="1290" y="1456" type="line"/>
      <point x="1156" y="358" type="line"/>
      <point x="1057" y="535" type="line"/>
      <point x="538" y="1456" type="line"/>
      <point x="281" y="1456" type="line"/>
    </contour>
    <contour>
      <point x="922" y="1456" type="move" name="top"/>
    </contour>
    <contour>
      <point x="759" y="0" type="move" name="bot"/>
    </contour>
  </outline>
</glyph>
<glyph name="O" format="1">
  <advance width="1662"/>
  <unicode hex="004F"/>
  <outline>
    <contour>
      <point x="763" y="184" type="curve" smooth="yes"/>
      <point x="454" y="184"/>
      <point x="325" y="389"/>
      <point x="367" y="734" type="curve" smooth="yes"/>
      <point x="408" y="1066"/>
      <point x="596" y="1276"/>
      <point x="901" y="1276" type="curve" smooth="yes"/>
      <point x="1206" y="1276"/>
      <point x="1334" y="1065"/>
      <point x="1293" y="734" type="curve" smooth="yes"/>
      <point x="1251" y="390"/>
      <point x="1072" y="184"/>
    </contour>
    <contour>
      <point x="743" y="-23" type="curve" smooth="yes"/>
      <point x="1197" y="-23"/>
      <point x="1500" y="275"/>
      <point x="1556" y="734" type="curve" smooth="yes"/>
      <point x="1611" y="1181"/>
      <point x="1372" y="1483"/>
      <point x="930" y="1483" type="curve" smooth="yes"/>
      <point x="471" y="1483"/>
      <point x="161" y="1179"/>
      <point x="106" y="734" type="curve" smooth="yes"/>
      <point x="50" y="274"/>
      <point x="288" y="-23"/>
    </contour>
    <contour>
      <point x="927" y="1456" type="move" name="top"/>
    </contour>
    <contour>
      <point x="769" y="0" type="move" name="ogonek"/>
    </contour>
  </outline>
</glyph>
<glyph name="P" format="1">
  <advance width="1291"/>
  <unicode hex="0050"/>
  <outline>
    <contour>
      <point x="103" y="0" type="line"/>
      <point x="345" y="0" type="line"/>
      <point x="422" y="634" type="line"/>
      <point x="653" y="634" type="line" smooth="yes"/>
      <point x="999" y="634"/>
      <point x="1223" y="730"/>
      <point x="1262" y="1044" type="curve" smooth="yes"/>
      <point x="1308" y="1419"/>
      <point x="1040" y="1456"/>
      <point x="696" y="1456" type="curve" smooth="yes"/>
      <point x="281" y="1456" type="line"/>
    </contour>
    <contour>
      <point x="448" y="841" type="line"/>
      <point x="498" y="1247" type="line"/>
      <point x="680" y="1247" type="line" smooth="yes"/>
      <point x="896" y="1247"/>
      <point x="1033" y="1240"/>
      <point x="1009" y="1042" type="curve" smooth="yes"/>
      <point x="988" y="877"/>
      <point x="861" y="841"/>
      <point x="675" y="841" type="curve" smooth="yes"/>
    </contour>
    <contour>
      <point x="757" y="1456" type="move" name="top"/>
    </contour>
  </outline>
</glyph>
<glyph name="Q" format="1">
  <advance width="1662"/>
  <unicode hex="0051"/>
  <outline>
    <contour>
      <point x="1136" y="-443" type="curve"/>
      <point x="1289" y="-298" type="line"/>
      <point x="1289" y="-298"/>
      <point x="1105" y="-63"/>
      <point x="1045" y="106" type="curve"/>
      <point x="827" y="63" type="line"/>
      <point x="923" y="-189"/>
      <point x="1136" y="-443"/>
    </contour>
    <component base="O"/>
  </outline>
</glyph>
<glyph name="R" format="1">
  <advance width="1380"/>
  <unicode hex="0052"/>
  <outline>
    <contour>
      <point x="103" y="0" type="line"/>
      <point x="345" y="0" type="line"/>
      <point x="421" y="623" type="line"/>
      <point x="630" y="623" type="line" smooth="yes"/>
      <point x="768" y="623"/>
      <point x="810" y="580"/>
      <point x="848" y="433" type="curve" smooth="yes"/>
      <point x="961" y="0" type="line"/>
      <point x="1223" y="0" type="line"/>
      <point x="1089" y="470" type="line" smooth="yes"/>
      <point x="1054" y="596"/>
      <point x="997" y="671"/>
      <point x="919" y="712" type="curve"/>
      <point x="1129" y="759"/>
      <point x="1231" y="901"/>
      <point x="1251" y="1058" type="curve" smooth="yes"/>
      <point x="1290" y="1383"/>
      <point x="1083" y="1456"/>
      <point x="791" y="1456" type="curve" smooth="yes"/>
      <point x="281" y="1456" type="line"/>
    </contour>
    <contour>
      <point x="443" y="828" type="line"/>
      <point x="495" y="1249" type="line"/>
      <point x="765" y="1249" type="line" smooth="yes"/>
      <point x="936" y="1249"/>
      <point x="1013" y="1211"/>
      <point x="993" y="1045" type="curve" smooth="yes"/>
      <point x="972" y="874"/>
      <point x="841" y="828"/>
      <point x="688" y="828" type="curve" smooth="yes"/>
    </contour>
    <contour>
      <point x="756" y="1456" type="move" name="top"/>
    </contour>
    <contour>
      <point x="641" y="0" type="move" name="bot"/>
    </contour>
  </outline>
</glyph>
<glyph name="S" format="1">
  <advance width="1250"/>
  <unicode hex="0053"/>
  <outline>
    <contour>
      <point x="528" y="-23" type="curve" smooth="yes"/>
      <point x="795" y="-23"/>
      <point x="1056" y="92"/>
      <point x="1092" y="389" type="curve" smooth="yes"/>
      <point x="1120" y="615"/>
      <point x="1046" y="722"/>
      <point x="791" y="819" type="curve" smooth="yes"/>
      <point x="738" y="839"/>
      <point x="670" y="860"/>
      <point x="620" y="878" type="curve" smooth="yes"/>
      <point x="436" y="944"/>
      <point x="412" y="989"/>
      <point x="425" y="1099" type="curve" smooth="yes"/>
      <point x="441" y="1223"/>
      <point x="570" y="1275"/>
      <point x="722" y="1275" type="curve" smooth="yes"/>
      <point x="832" y="1275"/>
      <point x="960" y="1249"/>
      <point x="1044" y="1157" type="curve"/>
      <point x="1188" y="1318" type="line"/>
      <point x="1092" y="1423"/>
      <point x="982" y="1483"/>
      <point x="713" y="1483" type="curve" smooth="yes"/>
      <point x="433" y="1483"/>
      <point x="198" y="1351"/>
      <point x="166" y="1089" type="curve" smooth="yes"/>
      <point x="138" y="863"/>
      <point x="245" y="759"/>
      <point x="477" y="674" type="curve" smooth="yes"/>
      <point x="530" y="655"/>
      <point x="592" y="636"/>
      <point x="638" y="619" type="curve" smooth="yes"/>
      <point x="831" y="548"/>
      <point x="848" y="497"/>
      <point x="836" y="393" type="curve" smooth="yes"/>
      <point x="819" y="254"/>
      <point x="722" y="184"/>
      <point x="539" y="184" type="curve" smooth="yes"/>
      <point x="415" y="184"/>
      <point x="251" y="247"/>
      <point x="171" y="317" type="curve"/>
      <point x="46" y="143" type="line"/>
      <point x="130" y="48"/>
      <point x="322" y="-23"/>
    </contour>
    <contour>
      <point x="707" y="1456" type="move" name="top"/>
    </contour>
    <contour>
      <point x="551" y="0" type="move" name="bot"/>
    </contour>
  </outline>
</glyph>
<glyph name="T" format="1">
  <advance width="1174"/>
  <unicode hex="0054"/>
  <outline>
    <contour>
      <point x="374" y="0" type="line"/>
      <point x="616" y="0" type="line"/>
      <point x="769" y="1249" type="line"/>
      <point x="1227" y="1249" type="line"/>
      <point x="1252" y="1456" type="line"/>
      <point x="100" y="1456" type="line"/>
      <point x="75" y="1249" type="line"/>
      <point x="527" y="1249" type="line"/>
    </contour>
    <contour>
      <point x="687" y="1456" type="move" name="top"/>
    </contour>
    <contour>
      <point x="507" y="0" type="move" name="bot"/>
    </contour>
    <contour>
      <point x="600" y="740" type="move" name="mid"/>
    </contour>
  </outline>
</glyph>
<glyph name="U" format="1">
  <advance width="1506"/>
  <unicode hex="0055"/>
  <outline>
    <contour>
      <point x="662" y="-23" type="curve" smooth="yes"/>
      <point x="1135" y="-23"/>
      <point x="1285" y="261"/>
      <point x="1326" y="591" type="curve" smooth="yes"/>
      <point x="1432" y="1456" type="line"/>
      <point x="1190" y="1456" type="line"/>
      <point x="1082" y="582" type="line" smooth="yes"/>
      <point x="1045" y="280"/>
      <point x="891" y="184"/>
      <point x="688" y="184" type="curve" smooth="yes"/>
      <point x="485" y="184"/>
      <point x="353" y="280"/>
      <point x="390" y="582" type="curve" smooth="yes"/>
      <point x="498" y="1456" type="line"/>
      <point x="256" y="1456" type="line"/>
      <point x="150" y="591" type="line" smooth="yes"/>
      <point x="109" y="261"/>
      <point x="189" y="-23"/>
    </contour>
    <contour>
      <point x="841" y="1456" type="move" name="top"/>
    </contour>
    <contour>
      <point x="790" y="0" type="move" name="ogonek"/>
    </contour>
  </outline>
</glyph>
<glyph name="V" format="1">
  <advance width="1378"/>
  <unicode hex="0056"/>
  <outline>
    <contour>
      <point x="480" y="0" type="line"/>
      <point x="722" y="0" type="line"/>
      <point x="1451" y="1456" type="line"/>
      <point x="1196" y="1456" type="line"/>
      <point x="770" y="571" type="line"/>
      <point x="644" y="313" type="line"/>
      <point x="581" y="572" type="line"/>
      <point x="377" y="1456" type="line"/>
      <point x="105" y="1456" type="line"/>
    </contour>
  </outline>
</glyph>
<glyph name="W" format="1">
  <advance width="2074"/>
  <unicode hex="0057"/>
  <outline>
    <contour>
      <point x="337" y="0" type="line"/>
      <point x="612" y="0" type="line"/>
      <point x="1085" y="1123" type="line"/>
      <point x="1290" y="0" type="line"/>
      <point x="1569" y="0" type="line"/>
      <point x="2149" y="1456" type="line"/>
      <point x="1899" y="1456" type="line"/>
      <point x="1581" y="603" type="line"/>
      <point x="1467" y="285" type="line"/>
      <point x="1414" y="602" type="line"/>
      <point x="1249" y="1456" type="line"/>
      <point x="1016" y="1456" type="line"/>
      <point x="650" y="611" type="line"/>
      <point x="520" y="289" type="line"/>
      <point x="480" y="612" type="line"/>
      <point x="361" y="1456" type="line"/>
      <point x="103" y="1456" type="line"/>
    </contour>
    <contour>
      <point x="1132" y="1456" type="move" name="top"/>
    </contour>
  </outline>
</glyph>
<glyph name="X" format="1">
  <advance width="1376"/>
  <unicode hex="0058"/>
  <outline>
    <contour>
      <point x="-69" y="0" type="line"/>
      <point x="219" y="0" type="line"/>
      <point x="664" y="543" type="line"/>
      <point x="967" y="0" type="line"/>
      <point x="1266" y="0" type="line"/>
      <point x="841" y="747" type="line"/>
      <point x="1432" y="1456" type="line"/>
      <point x="1152" y="1456" type="line"/>
      <point x="727" y="942" type="line"/>
      <point x="443" y="1456" type="line"/>
      <point x="143" y="1456" type="line"/>
      <point x="550" y="737" type="line"/>
    </contour>
  </outline>
</glyph>
<glyph name="Y" format="1">
  <advance width="1269"/>
  <unicode hex="0059"/>
  <outline>
    <contour>
      <point x="418" y="0" type="line"/>
      <point x="660" y="0" type="line"/>
      <point x="729" y="567" type="line"/>
      <point x="1366" y="1456" type="line"/>
      <point x="1086" y="1456" type="line"/>
      <point x="638" y="780" type="line"/>
      <point x="355" y="1456" type="line"/>
      <point x="81" y="1456" type="line"/>
      <point x="487" y="565" type="line"/>
    </contour>
    <contour>
      <point x="746" y="1456" type="move" name="top"/>
    </contour>
  </outline>
</glyph>
<glyph name="Z" format="1">
  <advance width="1197"/>
  <unicode hex="005A"/>
  <outline>
    <contour>
      <point x="-13" y="0" type="line"/>
      <point x="1016" y="0" type="line"/>
      <point x="1041" y="207" type="line"/>
      <point x="340" y="207" type="line"/>
      <point x="1181" y="1330" type="line"/>
      <point x="1196" y="1456" type="line"/>
      <point x="192" y="1456" type="line"/>
      <point x="167" y="1249" type="line"/>
      <point x="838" y="1249" type="line"/>
      <point x="3" y="130" type="line"/>
    </contour>
    <contour>
      <point x="717" y="1456" type="move" name="top"/>
    </contour>
  </outline>
</glyph>
<glyph name="bracketleft" format="1">
  <advance width="628"/>
  <unicode hex="005B"/>
  <outline>
    <contour>
      <point x="44" y="-171" type="line"/>
      <point x="464" y="-171" type="line"/>
      <point x="486" y="9" type="line"/>
      <point x="304" y="9" type="line"/>
      <point x="464" y="1316" type="line"/>
      <point x="645" y="1316" type="line"/>
      <point x="667" y="1496" type="line"/>
      <point x="248" y="1496" type="line"/>
    </contour>
  </outline>
</glyph>
<glyph name="backslash" format="1">
  <advance width="706"/>
  <unicode hex="005C"/>
  <outline>
    <contour>
      <point x="463" y="-80" type="line"/>
      <point x="708" y="-80" type="line"/>
      <point x="228" y="1456" type="line"/>
      <point x="-21" y="1456" type="line"/>
    </contour>
  </outline>
</glyph>
<glyph name="bracketright" format="1">
  <advance width="628"/>
  <unicode hex="005D"/>
  <outline>
    <contour>
      <point x="-5" y="-171" type="line"/>
      <point x="410" y="-171" type="line"/>
      <point x="614" y="1496" type="line"/>
      <point x="199" y="1496" type="line"/>
      <point x="177" y="1316" type="line"/>
      <point x="353" y="1316" type="line"/>
      <point x="193" y="9" type="line"/>
      <point x="17" y="9" type="line"/>
    </contour>
  </outline>
</glyph>
<glyph name="asciicircum" format="1">
  <advance width="1572"/>
  <unicode hex="005E"/>
  <outline>
    <contour>
      <point x="144" y="538" type="line"/>
      <point x="385" y="538" type="line"/>
      <point x="804" y="1189" type="line"/>
      <point x="1079" y="538" type="line"/>
      <point x="1316" y="538" type="line"/>
      <point x="915" y="1456" type="line"/>
      <point x="763" y="1456" type="line"/>
    </contour>
  </outline>
</glyph>
<glyph name="underscore" format="1">
  <advance width="998"/>
  <unicode hex="005F"/>
  <outline>
    <contour>
      <point x="-23" y="-257" type="line"/>
      <point x="999" y="-257" type="line"/>
      <point x="1021" y="-71" type="line"/>
      <point x="-1" y="-71" type="line"/>
    </contour>
  </outline>
</glyph>
<glyph name="grave" format="1">
  <advance width="607"/>
  <unicode hex="0060"/>
  <outline>
    <contour>
      <point x="326" y="1168" type="line"/>
      <point x="540" y="1168" type="line"/>
      <point x="319" y="1483" type="line"/>
      <point x="16" y="1483" type="line"/>
    </contour>
    <contour>
      <point x="413" y="1026" type="move" name="_top"/>
    </contour>
  </outline>
</glyph>
<glyph name="a" format="1">
  <advance width="1287"/>
  <unicode hex="0061"/>
  <outline>
    <contour>
      <point x="541" y="-23" type="curve" smooth="yes"/>
      <point x="683" y="-23"/>
      <point x="794" y="55"/>
      <point x="863" y="147" type="curve"/>
      <point x="845" y="0" type="line"/>
      <point x="1081" y="0" type="line"/>
      <point x="1207" y="1026" type="line"/>
      <point x="976" y="1026" type="line"/>
      <point x="961" y="904" type="line"/>
      <point x="911" y="992"/>
      <point x="821" y="1052"/>
      <point x="681" y="1052" type="curve" smooth="yes"/>
      <point x="343" y="1052"/>
      <point x="139" y="786"/>
      <point x="105" y="504" type="curve" smooth="yes"/>
      <point x="72" y="239"/>
      <point x="202" y="-23"/>
    </contour>
    <contour>
      <point x="595" y="168" type="curve" smooth="yes"/>
      <point x="391" y="168"/>
      <point x="317" y="317"/>
      <point x="341" y="515" type="curve" smooth="yes"/>
      <point x="366" y="717"/>
      <point x="479" y="861"/>
      <point x="677" y="861" type="curve" smooth="yes"/>
      <point x="875" y="861"/>
      <point x="946" y="717"/>
      <point x="921" y="515" type="curve" smooth="yes"/>
      <point x="897" y="318"/>
      <point x="799" y="168"/>
    </contour>
    <contour>
      <point x="731" y="1026" type="move" name="top"/>
    </contour>
    <contour>
      <point x="960" y="0" type="move" name="ogonek"/>
    </contour>
  </outline>
</glyph>
<glyph name="b" format="1">
  <advance width="1287"/>
  <unicode hex="0062"/>
  <outline>
    <contour>
      <point x="613" y="-23" type="curve" smooth="yes"/>
      <point x="875" y="-23"/>
      <point x="1117" y="195"/>
      <point x="1157" y="521" type="curve" smooth="yes"/>
      <point x="1195" y="831"/>
      <point x="1047" y="1052"/>
      <point x="756" y="1052" type="curve" smooth="yes"/>
      <point x="547" y="1052"/>
      <point x="433" y="929"/>
      <point x="408" y="877" type="curve"/>
      <point x="480" y="1463" type="line"/>
      <point x="245" y="1463" type="line"/>
      <point x="99" y="272" type="line" smooth="yes"/>
      <point x="95" y="243"/>
      <point x="91" y="215"/>
      <point x="58" y="0" type="curve"/>
      <point x="299" y="0" type="line"/>
      <point x="315" y="136" type="line"/>
      <point x="352" y="55"/>
      <point x="462" y="-23"/>
    </contour>
    <contour>
      <point x="595" y="168" type="curve" smooth="yes"/>
      <point x="405" y="168"/>
      <point x="328" y="328"/>
      <point x="351" y="515" type="curve" smooth="yes"/>
      <point x="374" y="707"/>
      <point x="501" y="861"/>
      <point x="685" y="861" type="curve" smooth="yes"/>
      <point x="863" y="861"/>
      <point x="932" y="707"/>
      <point x="909" y="515" type="curve" smooth="yes"/>
      <point x="886" y="328"/>
      <point x="785" y="168"/>
    </contour>
    <contour>
      <point x="786" y="1026" type="move" name="top"/>
    </contour>
  </outline>
</glyph>
<glyph name="c" format="1">
  <advance width="1072"/>
  <unicode hex="0063"/>
  <outline>
    <contour>
      <point x="573" y="-23" type="curve" smooth="yes"/>
      <point x="715" y="-23"/>
      <point x="829" y="14"/>
      <point x="947" y="91" type="curve"/>
      <point x="896" y="264" type="line"/>
      <point x="849" y="232"/>
      <point x="756" y="168"/>
      <point x="623" y="168" type="curve" smooth="yes"/>
      <point x="426" y="168"/>
      <point x="326" y="307"/>
      <point x="351" y="512" type="curve" smooth="yes"/>
      <point x="377" y="726"/>
      <point x="507" y="861"/>
      <point x="704" y="861" type="curve" smooth="yes"/>
      <point x="817" y="861"/>
      <point x="896" y="816"/>
      <point x="949" y="764" type="curve"/>
      <point x="1051" y="917" type="line"/>
      <point x="977" y="1006"/>
      <point x="860" y="1052"/>
      <point x="704" y="1052" type="curve" smooth="yes"/>
      <point x="374" y="1052"/>
      <point x="144" y="820"/>
      <point x="106" y="512" type="curve" smooth="yes"/>
      <point x="70" y="225"/>
      <point x="234" y="-23"/>
    </contour>
    <contour>
      <point x="702" y="1026" type="move" name="top"/>
    </contour>
    <contour>
      <point x="565" y="0" type="move" name="bot"/>
    </contour>
  </outline>
</glyph>
<glyph name="d" format="1">
  <advance width="1267"/>
  <unicode hex="0064"/>
  <outline>
    <contour>
      <point x="484" y="-23" type="curve" smooth="yes"/>
      <point x="672" y="-23"/>
      <point x="778" y="78"/>
      <point x="811" y="139" type="curve"/>
      <point x="796" y="0" type="line"/>
      <point x="1037" y="0" type="line"/>
      <point x="1056" y="215"/>
      <point x="1058" y="243"/>
      <point x="1062" y="272" type="curve" smooth="yes"/>
      <point x="1208" y="1463" type="line"/>
      <point x="973" y="1463" type="line"/>
      <point x="905" y="910" type="line"/>
      <point x="882" y="964"/>
      <point x="794" y="1052"/>
      <point x="633" y="1052" type="curve" smooth="yes"/>
      <point x="312" y="1052"/>
      <point x="116" y="802"/>
      <point x="80" y="508" type="curve" smooth="yes"/>
      <point x="40" y="182"/>
      <point x="222" y="-23"/>
    </contour>
    <contour>
      <point x="553" y="168" type="curve" smooth="yes"/>
      <point x="363" y="168"/>
      <point x="305" y="328"/>
      <point x="328" y="515" type="curve" smooth="yes"/>
      <point x="351" y="707"/>
      <point x="454" y="861"/>
      <point x="638" y="861" type="curve" smooth="yes"/>
      <point x="822" y="861"/>
      <point x="887" y="707"/>
      <point x="864" y="515" type="curve" smooth="yes"/>
      <point x="841" y="328"/>
      <point x="743" y="168"/>
    </contour>
    <contour>
      <point x="1042" y="1236" type="move" name="mid"/>
    </contour>
    <contour>
      <point x="606" y="1026" type="move" name="top"/>
    </contour>
    <contour>
      <point x="981" y="1026" type="move" name="caron.alt"/>
    </contour>
  </outline>
</glyph>
<glyph name="e" format="1">
  <advance width="1189.003"/>
  <unicode hex="0065"/>
  <outline>
    <contour>
      <point x="592" y="-23" type="curve" smooth="yes"/>
      <point x="751" y="-23"/>
      <point x="883" y="19"/>
      <point x="1016" y="107" type="curve"/>
      <point x="972" y="279" type="line"/>
      <point x="860" y="204"/>
      <point x="748" y="168"/>
      <point x="635" y="168" type="curve" smooth="yes"/>
      <point x="452" y="168"/>
      <point x="331" y="261"/>
      <point x="349" y="474" type="curve"/>
      <point x="1074" y="474" type="line"/>
      <point x="1080" y="490"/>
      <point x="1083" y="508"/>
      <point x="1085" y="519" type="curve" smooth="yes"/>
      <point x="1121" y="814"/>
      <point x="1019" y="1052"/>
      <point x="693" y="1052" type="curve" smooth="yes"/>
      <point x="366" y="1052"/>
      <point x="141" y="803"/>
      <point x="106" y="512" type="curve" smooth="yes"/>
      <point x="67" y="197"/>
      <point x="246" y="-23"/>
    </contour>
    <contour>
      <point x="372" y="632" type="line"/>
      <point x="421" y="778"/>
      <point x="535" y="869"/>
      <point x="683" y="869" type="curve" smooth="yes"/>
      <point x="809" y="869"/>
      <point x="891" y="788"/>
      <point x="892" y="632" type="curve"/>
    </contour>
    <contour>
      <point x="721" y="1026" type="move" name="top"/>
    </contour>
    <contour>
      <point x="751" y="0" type="move" name="ogonek"/>
    </contour>
    <contour>
      <point x="595" y="0" type="move" name="bot"/>
    </contour>
  </outline>
</glyph>
<glyph name="f" format="1">
  <advance width="802"/>
  <unicode hex="0066"/>
  <outline>
    <contour>
      <point x="168" y="0" type="line"/>
      <point x="403" y="0" type="line"/>
      <point x="509" y="868" type="line"/>
      <point x="743" y="868" type="line"/>
      <point x="763" y="1026" type="line"/>
      <point x="529" y="1026" type="line"/>
      <point x="535" y="1079" type="line" smooth="yes"/>
      <point x="559" y="1274"/>
      <point x="582" y="1301"/>
      <point x="797" y="1301" type="curve"/>
      <point x="827" y="1484" type="line"/>
      <point x="775" y="1484" type="line" smooth="yes"/>
      <point x="385" y="1484"/>
      <point x="335" y="1359"/>
      <point x="300" y="1073" type="curve" smooth="yes"/>
      <point x="294" y="1026" type="line"/>
      <point x="105" y="1026" type="line"/>
      <point x="85" y="868" type="line"/>
      <point x="274" y="868" type="line"/>
    </contour>
    <contour>
      <point x="466" y="1456" type="move" name="top"/>
    </contour>
  </outline>
</glyph>
<glyph name="g" format="1">
  <advance width="1244"/>
  <unicode hex="0067"/>
  <outline>
    <contour>
      <point x="487" y="-416" type="curve" smooth="yes"/>
      <point x="929" y="-416"/>
      <point x="1053" y="-112"/>
      <point x="1085" y="147" type="curve" smooth="yes"/>
      <point x="1152" y="695" type="line" smooth="yes"/>
      <point x="1174" y="872"/>
      <point x="1211" y="1026"/>
      <point x="1211" y="1026" type="curve" smooth="yes"/>
      <point x="962" y="1026" type="line"/>
      <point x="947" y="908" type="line"/>
      <point x="907" y="985"/>
      <point x="820" y="1052"/>
      <point x="678" y="1052" type="curve" smooth="yes"/>
      <point x="349" y="1052"/>
      <point x="166" y="803"/>
      <point x="130" y="515" type="curve" smooth="yes"/>
      <point x="92" y="201"/>
      <point x="270" y="6"/>
      <point x="565" y="6" type="curve" smooth="yes"/>
      <point x="714" y="6"/>
      <point x="802" y="79"/>
      <point x="852" y="139" type="curve"/>
      <point x="841" y="47" type="line" smooth="yes"/>
      <point x="818" y="-137"/>
      <point x="687" y="-222"/>
      <point x="496" y="-222" type="curve" smooth="yes"/>
      <point x="398" y="-222"/>
      <point x="288" y="-204"/>
      <point x="172" y="-136" type="curve"/>
      <point x="107" y="-340" type="line"/>
      <point x="226" y="-391"/>
      <point x="351" y="-416"/>
    </contour>
    <contour>
      <point x="603" y="185" type="curve" smooth="yes"/>
      <point x="420" y="185"/>
      <point x="353" y="314"/>
      <point x="377" y="516" type="curve" smooth="yes"/>
      <point x="400" y="702"/>
      <point x="509" y="861"/>
      <point x="692" y="861" type="curve" smooth="yes"/>
      <point x="869" y="861"/>
      <point x="934" y="716"/>
      <point x="910" y="522" type="curve" smooth="yes"/>
      <point x="889" y="352"/>
      <point x="807" y="185"/>
    </contour>
    <contour>
      <point x="689" y="1026" type="move" name="top"/>
    </contour>
  </outline>
</glyph>
<glyph name="h" format="1">
  <advance width="1223"/>
  <unicode hex="0068"/>
  <outline>
    <contour>
      <point x="58" y="0" type="line"/>
      <point x="294" y="0" type="line"/>
      <point x="370" y="619" type="line" smooth="yes"/>
      <point x="386" y="748"/>
      <point x="539" y="861"/>
      <point x="679" y="861" type="curve" smooth="yes"/>
      <point x="803" y="861"/>
      <point x="858" y="785"/>
      <point x="833" y="586" type="curve" smooth="yes"/>
      <point x="761" y="0" type="line"/>
      <point x="997" y="0" type="line"/>
      <point x="1068" y="580" type="line" smooth="yes"/>
      <point x="1093" y="777"/>
      <point x="1066" y="1052"/>
      <point x="738" y="1052" type="curve" smooth="yes"/>
      <point x="627" y="1052"/>
      <point x="471" y="990"/>
      <point x="403" y="888" type="curve"/>
      <point x="474" y="1463" type="line"/>
      <point x="238" y="1463" type="line"/>
    </contour>
    <contour>
      <point x="358" y="1236" type="move" name="mid"/>
    </contour>
    <contour>
      <point x="804" y="1026" type="move" name="top"/>
    </contour>
  </outline>
</glyph>
<glyph name="i" format="1">
  <advance width="525"/>
  <unicode hex="0069"/>
  <outline>
    <contour>
      <point x="61" y="0" type="line"/>
      <point x="290" y="0" type="line"/>
      <point x="416" y="1026" type="line"/>
      <point x="187" y="1026" type="line"/>
    </contour>
    <contour>
      <point x="214" y="1247" type="line"/>
      <point x="443" y="1247" type="line"/>
      <point x="468" y="1456" type="line"/>
      <point x="239" y="1456" type="line"/>
    </contour>
    <contour>
      <point x="174" y="0" type="move" name="ogonek"/>
    </contour>
  </outline>
</glyph>
<glyph name="j" format="1">
  <advance width="572"/>
  <unicode hex="006A"/>
  <outline>
    <contour>
      <point x="289" y="1237" type="line"/>
      <point x="523" y="1237" type="line"/>
      <point x="550" y="1456" type="line"/>
      <point x="316" y="1456" type="line"/>
    </contour>
    <component base="dotlessj"/>
  </outline>
</glyph>
<glyph name="k" format="1">
  <advance width="1091"/>
  <unicode hex="006B"/>
  <outline>
    <contour>
      <point x="58" y="0" type="line"/>
      <point x="294" y="0" type="line"/>
      <point x="350" y="452" type="line"/>
      <point x="724" y="0" type="line"/>
      <point x="1037" y="0" type="line"/>
      <point x="575" y="532" type="line"/>
      <point x="1130" y="1026" type="line"/>
      <point x="805" y="1026" type="line"/>
      <point x="368" y="604" type="line"/>
      <point x="474" y="1463" type="line"/>
      <point x="238" y="1463" type="line"/>
    </contour>
    <contour>
      <point x="704" y="1026" type="move" name="top"/>
    </contour>
    <contour>
      <point x="498" y="0" type="move" name="bot"/>
    </contour>
  </outline>
</glyph>
<glyph name="l" format="1">
  <advance width="560"/>
  <unicode hex="006C"/>
  <outline>
    <contour>
      <point x="102" y="0" type="line"/>
      <point x="336" y="0" type="line"/>
      <point x="516" y="1463" type="line"/>
      <point x="282" y="1463" type="line"/>
    </contour>
    <contour>
      <point x="289" y="1026" type="move" name="caron.alt"/>
    </contour>
    <contour>
      <point x="409" y="1456" type="move" name="top"/>
    </contour>
    <contour>
      <point x="309" y="780" type="move" name="mid"/>
    </contour>
    <contour>
      <point x="221" y="0" type="move" name="bot"/>
    </contour>
  </outline>
</glyph>
<glyph name="m" format="1">
  <advance width="1846"/>
  <unicode hex="006D"/>
  <outline>
    <contour>
      <point x="98" y="0" type="line"/>
      <point x="334" y="0" type="line"/>
      <point x="411" y="620" type="line" smooth="yes"/>
      <point x="426" y="744"/>
      <point x="547" y="861"/>
      <point x="694" y="861" type="curve" smooth="yes"/>
      <point x="831" y="861"/>
      <point x="844" y="729"/>
      <point x="832" y="628" type="curve" smooth="yes"/>
      <point x="754" y="0" type="line"/>
      <point x="990" y="0" type="line"/>
      <point x="1062" y="582" type="line" smooth="yes"/>
      <point x="1079" y="719"/>
      <point x="1205" y="861"/>
      <point x="1358" y="861" type="curve" smooth="yes"/>
      <point x="1478" y="861"/>
      <point x="1497" y="729"/>
      <point x="1483" y="613" type="curve" smooth="yes"/>
      <point x="1407" y="0" type="line"/>
      <point x="1643" y="0" type="line"/>
      <point x="1721" y="629" type="line" smooth="yes"/>
      <point x="1752" y="885"/>
      <point x="1654" y="1052"/>
      <point x="1402" y="1052" type="curve" smooth="yes"/>
      <point x="1246" y="1052"/>
      <point x="1125" y="969"/>
      <point x="1037" y="856" type="curve"/>
      <point x="994" y="988"/>
      <point x="883" y="1052"/>
      <point x="754" y="1052" type="curve" smooth="yes"/>
      <point x="627" y="1052"/>
      <point x="500" y="983"/>
      <point x="438" y="886" type="curve"/>
      <point x="455" y="1026" type="line"/>
      <point x="207" y="1026" type="line"/>
      <point x="202" y="954"/>
      <point x="205" y="868"/>
      <point x="185" y="705" type="curve" smooth="yes"/>
    </contour>
    <contour>
      <point x="1039" y="1026" type="move" name="top"/>
    </contour>
    <contour>
      <point x="883" y="0" type="move" name="bot"/>
    </contour>
  </outline>
</glyph>
<glyph name="n" format="1">
  <advance width="1229"/>
  <unicode hex="006E"/>
  <outline>
    <contour>
      <point x="97" y="0" type="line"/>
      <point x="333" y="0" type="line"/>
      <point x="410" y="620" type="line" smooth="yes"/>
      <point x="427" y="764"/>
      <point x="599" y="861"/>
      <point x="706" y="861" type="curve" smooth="yes"/>
      <point x="848" y="861"/>
      <point x="888" y="781"/>
      <point x="865" y="592" type="curve" smooth="yes"/>
      <point x="792" y="0" type="line"/>
      <point x="1028" y="0" type="line"/>
      <point x="1100" y="580" type="line" smooth="yes"/>
      <point x="1142" y="928"/>
      <point x="1015" y="1052"/>
      <point x="778" y="1052" type="curve" smooth="yes"/>
      <point x="671" y="1052"/>
      <point x="526" y="999"/>
      <point x="437" y="885" type="curve"/>
      <point x="454" y="1026" type="line"/>
      <point x="205" y="1026" type="line"/>
      <point x="205" y="1026"/>
      <point x="206" y="883"/>
      <point x="178" y="656" type="curve" smooth="yes"/>
    </contour>
    <contour>
      <point x="739" y="1026" type="move" name="top"/>
    </contour>
    <contour>
      <point x="573" y="0" type="move" name="bot"/>
    </contour>
  </outline>
</glyph>
<glyph name="o" format="1">
  <advance width="1280"/>
  <unicode hex="006F"/>
  <outline>
    <contour>
      <point x="598" y="168" type="curve" smooth="yes"/>
      <point x="394" y="168"/>
      <point x="329" y="328"/>
      <point x="352" y="515" type="curve" smooth="yes"/>
      <point x="376" y="707"/>
      <point x="486" y="861"/>
      <point x="684" y="861" type="curve" smooth="yes"/>
      <point x="882" y="861"/>
      <point x="952" y="707"/>
      <point x="928" y="515" type="curve" smooth="yes"/>
      <point x="905" y="328"/>
      <point x="802" y="168"/>
    </contour>
    <contour>
      <point x="578" y="-23" type="curve" smooth="yes"/>
      <point x="932" y="-23"/>
      <point x="1138" y="225"/>
      <point x="1174" y="511" type="curve" smooth="yes"/>
      <point x="1211" y="813"/>
      <point x="1072" y="1052"/>
      <point x="710" y="1052" type="curve" smooth="yes"/>
      <point x="355" y="1052"/>
      <point x="142" y="811"/>
      <point x="106" y="513" type="curve" smooth="yes"/>
      <point x="70" y="222"/>
      <point x="217" y="-23"/>
    </contour>
    <contour>
      <point x="710" y="1026" type="move" name="top"/>
    </contour>
    <contour>
      <point x="595" y="0" type="move" name="ogonek"/>
    </contour>
  </outline>
</glyph>
<glyph name="p" format="1">
  <advance width="1270"/>
  <unicode hex="0070"/>
  <outline>
    <contour>
      <point x="74" y="-400" type="line"/>
      <point x="307" y="-400" type="line"/>
      <point x="374" y="145" type="line"/>
      <point x="382" y="85"/>
      <point x="485" y="-23"/>
      <point x="662" y="-23" type="curve" smooth="yes"/>
      <point x="954" y="-23"/>
      <point x="1155" y="240"/>
      <point x="1190" y="525" type="curve" smooth="yes"/>
      <point x="1225" y="809"/>
      <point x="1085" y="1052"/>
      <point x="805" y="1052" type="curve" smooth="yes"/>
      <point x="624" y="1052"/>
      <point x="490" y="944"/>
      <point x="463" y="873" type="curve"/>
      <point x="482" y="1026" type="line"/>
      <point x="232" y="1026" type="line"/>
      <point x="226" y="919"/>
      <point x="220" y="793"/>
      <point x="208" y="692" type="curve" smooth="yes"/>
    </contour>
    <contour>
      <point x="634" y="168" type="curve" smooth="yes"/>
      <point x="444" y="168"/>
      <point x="384" y="328"/>
      <point x="407" y="515" type="curve" smooth="yes"/>
      <point x="431" y="707"/>
      <point x="535" y="861"/>
      <point x="719" y="861" type="curve" smooth="yes"/>
      <point x="903" y="861"/>
      <point x="967" y="707"/>
      <point x="943" y="515" type="curve" smooth="yes"/>
      <point x="920" y="328"/>
      <point x="824" y="168"/>
    </contour>
    <contour>
      <point x="774" y="1026" type="move" name="top"/>
    </contour>
  </outline>
</glyph>
<glyph name="q" format="1">
  <advance width="1253"/>
  <unicode hex="0071"/>
  <outline>
    <contour>
      <point x="785" y="-400" type="line"/>
      <point x="1018" y="-400" type="line"/>
      <point x="1158" y="742" type="line" smooth="yes"/>
      <point x="1169" y="828"/>
      <point x="1185" y="934"/>
      <point x="1203" y="1026" type="curve"/>
      <point x="962" y="1026" type="line"/>
      <point x="948" y="910" type="line"/>
      <point x="879" y="1006"/>
      <point x="776" y="1052"/>
      <point x="677" y="1052" type="curve" smooth="yes"/>
      <point x="365" y="1052"/>
      <point x="163" y="809"/>
      <point x="128" y="525" type="curve" smooth="yes"/>
      <point x="93" y="240"/>
      <point x="220" y="-23"/>
      <point x="542" y="-23" type="curve" smooth="yes"/>
      <point x="649" y="-23"/>
      <point x="759" y="25"/>
      <point x="846" y="95" type="curve"/>
    </contour>
    <contour>
      <point x="598" y="168" type="curve" smooth="yes"/>
      <point x="408" y="168"/>
      <point x="350" y="328"/>
      <point x="373" y="515" type="curve" smooth="yes"/>
      <point x="397" y="707"/>
      <point x="499" y="861"/>
      <point x="683" y="861" type="curve" smooth="yes"/>
      <point x="867" y="861"/>
      <point x="933" y="707"/>
      <point x="909" y="515" type="curve" smooth="yes"/>
      <point x="886" y="328"/>
      <point x="788" y="168"/>
    </contour>
  </outline>
</glyph>
<glyph name="r" format="1">
  <advance width="789"/>
  <unicode hex="0072"/>
  <outline>
    <contour>
      <point x="100" y="0" type="line"/>
      <point x="336" y="0" type="line"/>
      <point x="408" y="579" type="line" smooth="yes"/>
      <point x="430" y="761"/>
      <point x="544" y="851"/>
      <point x="679" y="851" type="curve" smooth="yes"/>
      <point x="717" y="851"/>
      <point x="758" y="844"/>
      <point x="798" y="830" type="curve"/>
      <point x="824" y="1037" type="line"/>
      <point x="788" y="1047"/>
      <point x="754" y="1052"/>
      <point x="723" y="1052" type="curve" smooth="yes"/>
      <point x="614" y="1052"/>
      <point x="527" y="988"/>
      <point x="442" y="886" type="curve"/>
      <point x="459" y="1026" type="line"/>
      <point x="208" y="1026" type="line"/>
      <point x="208" y="1026"/>
      <point x="209" y="882"/>
      <point x="195" y="768" type="curve" smooth="yes"/>
    </contour>
    <contour>
      <point x="529" y="1026" type="move" name="top"/>
    </contour>
    <contour>
      <point x="263" y="0" type="move" name="bot"/>
    </contour>
  </outline>
</glyph>
<glyph name="s" format="1">
  <advance width="988"/>
  <unicode hex="0073"/>
  <outline>
    <contour>
      <point x="466" y="-23" type="curve" smooth="yes"/>
      <point x="639" y="-23"/>
      <point x="847" y="54"/>
      <point x="875" y="289" type="curve" smooth="yes"/>
      <point x="899" y="477"/>
      <point x="804" y="539"/>
      <point x="653" y="593" type="curve" smooth="yes"/>
      <point x="541" y="633" type="line" smooth="yes"/>
      <point x="395" y="685"/>
      <point x="372" y="704"/>
      <point x="380" y="767" type="curve" smooth="yes"/>
      <point x="388" y="835"/>
      <point x="448" y="865"/>
      <point x="561" y="865" type="curve" smooth="yes"/>
      <point x="656" y="865"/>
      <point x="769" y="826"/>
      <point x="833" y="790" type="curve"/>
      <point x="915" y="953" type="line"/>
      <point x="829" y="1014"/>
      <point x="699" y="1050"/>
      <point x="564" y="1050" type="curve" smooth="yes"/>
      <point x="368" y="1050"/>
      <point x="177" y="969"/>
      <point x="151" y="756" type="curve" smooth="yes"/>
      <point x="128" y="574"/>
      <point x="236" y="518"/>
      <point x="391" y="464" type="curve" smooth="yes"/>
      <point x="507" y="424" type="line" smooth="yes"/>
      <point x="657" y="372"/>
      <point x="664" y="345"/>
      <point x="657" y="289" type="curve" smooth="yes"/>
      <point x="646" y="196"/>
      <point x="573" y="164"/>
      <point x="469" y="164" type="curve" smooth="yes"/>
      <point x="346" y="164"/>
      <point x="214" y="215"/>
      <point x="143" y="276" type="curve"/>
      <point x="62" y="105" type="line"/>
      <point x="127" y="48"/>
      <point x="269" y="-23"/>
    </contour>
    <contour>
      <point x="565" y="1026" type="move" name="top"/>
    </contour>
    <contour>
      <point x="465" y="0" type="move" name="bot"/>
    </contour>
  </outline>
</glyph>
<glyph name="t" format="1">
  <advance width="812"/>
  <unicode hex="0074"/>
  <outline>
    <contour>
      <point x="654" y="1" type="line"/>
      <point x="676" y="182" type="line"/>
      <point x="446" y="182"/>
      <point x="398" y="199"/>
      <point x="418" y="358" type="curve" smooth="yes"/>
      <point x="480" y="868" type="line"/>
      <point x="754" y="868" type="line"/>
      <point x="774" y="1026" type="line"/>
      <point x="500" y="1026" type="line"/>
      <point x="538" y="1340" type="line"/>
      <point x="303" y="1271" type="line"/>
      <point x="273" y="1026" type="line"/>
      <point x="56" y="1026" type="line"/>
      <point x="36" y="868" type="line"/>
      <point x="245" y="868" type="line"/>
      <point x="184" y="372" type="line" smooth="yes"/>
      <point x="145" y="50"/>
      <point x="292" y="1"/>
      <point x="556" y="1" type="curve" smooth="yes"/>
    </contour>
    <contour>
      <point x="344" y="1338" type="move" name="caron.alt"/>
    </contour>
    <contour>
      <point x="347" y="603" type="move" name="mid"/>
    </contour>
    <contour>
      <point x="435" y="1296" type="move" name="top"/>
    </contour>
    <contour>
      <point x="396" y="0" type="move" name="bot"/>
    </contour>
  </outline>
</glyph>
<glyph name="u" format="1">
  <advance width="1196"/>
  <unicode hex="0075"/>
  <outline>
    <contour>
      <point x="467" y="-23" type="curve" smooth="yes"/>
      <point x="644" y="-23"/>
      <point x="739" y="97"/>
      <point x="766" y="154" type="curve"/>
      <point x="751" y="0" type="line"/>
      <point x="994" y="0" type="line" smooth="yes"/>
      <point x="994" y="0"/>
      <point x="1010" y="213"/>
      <point x="1017" y="272" type="curve" smooth="yes"/>
      <point x="1109" y="1026" type="line"/>
      <point x="873" y="1026" type="line"/>
      <point x="798" y="412" type="line" smooth="yes"/>
      <point x="777" y="244"/>
      <point x="689" y="168"/>
      <point x="537" y="168" type="curve" smooth="yes"/>
      <point x="410" y="168"/>
      <point x="337" y="235"/>
      <point x="355" y="382" type="curve" smooth="yes"/>
      <point x="434" y="1026" type="line"/>
      <point x="200" y="1026" type="line"/>
      <point x="121" y="379" type="line" smooth="yes"/>
      <point x="91" y="138"/>
      <point x="209" y="-23"/>
    </contour>
    <contour>
      <point x="668" y="1026" type="move" name="top"/>
    </contour>
    <contour>
      <point x="886" y="0" type="move" name="ogonek"/>
    </contour>
  </outline>
</glyph>
<glyph name="v" format="1">
  <advance width="1114"/>
  <unicode hex="0076"/>
  <outline>
    <contour>
      <point x="385" y="0" type="line"/>
      <point x="601" y="0" type="line"/>
      <point x="1161" y="1026" type="line"/>
      <point x="906" y="1026" type="line"/>
      <point x="642" y="482" type="line"/>
      <point x="535" y="260" type="line"/>
      <point x="478" y="482" type="line"/>
      <point x="341" y="1026" type="line"/>
      <point x="79" y="1026" type="line"/>
    </contour>
  </outline>
</glyph>
<glyph name="w" format="1">
  <advance width="1677"/>
  <unicode hex="0077"/>
  <outline>
    <contour>
      <point x="321" y="0" type="line"/>
      <point x="522" y="0" type="line"/>
      <point x="799" y="579" type="line"/>
      <point x="865" y="718" type="line"/>
      <point x="893" y="580" type="line"/>
      <point x="1016" y="0" type="line"/>
      <point x="1216" y="0" type="line"/>
      <point x="1722" y="1026" type="line"/>
      <point x="1501" y="1026" type="line"/>
      <point x="1228" y="415" type="line"/>
      <point x="1171" y="286" type="line"/>
      <point x="1144" y="419" type="line"/>
      <point x="1025" y="1026" type="line"/>
      <point x="816" y="1026" type="line"/>
      <point x="547" y="441" type="line"/>
      <point x="477" y="288" type="line"/>
      <point x="446" y="447" type="line"/>
      <point x="332" y="1026" type="line"/>
      <point x="81" y="1026" type="line"/>
    </contour>
    <contour>
      <point x="925" y="1026" type="move" name="top"/>
    </contour>
  </outline>
</glyph>
<glyph name="x" format="1">
  <advance width="1044"/>
  <unicode hex="0078"/>
  <outline>
    <contour>
      <point x="-43" y="0" type="line"/>
      <point x="205" y="0" type="line"/>
      <point x="504" y="349" type="line"/>
      <point x="701" y="0" type="line"/>
      <point x="961" y="0" type="line"/>
      <point x="660" y="532" type="line"/>
      <point x="1084" y="1026" type="line"/>
      <point x="840" y="1026" type="line"/>
      <point x="547" y="685" type="line"/>
      <point x="362" y="1026" type="line"/>
      <point x="101" y="1026" type="line"/>
      <point x="390" y="502" type="line"/>
    </contour>
  </outline>
</glyph>
<glyph name="y" format="1">
  <advance width="1106"/>
  <unicode hex="0079"/>
  <outline>
    <contour>
      <point x="155" y="-443" type="line"/>
      <point x="333" y="-391"/>
      <point x="512" y="-272"/>
      <point x="623" y="-56" type="curve" smooth="yes"/>
      <point x="1172" y="1026" type="line"/>
      <point x="932" y="1026" type="line"/>
      <point x="576" y="274" type="line"/>
      <point x="367" y="1026" type="line"/>
      <point x="122" y="1026" type="line"/>
      <point x="431" y="21" type="line"/>
      <point x="411" y="-29" type="line" smooth="yes"/>
      <point x="366" y="-136"/>
      <point x="270" y="-212"/>
      <point x="75" y="-283" type="curve"/>
    </contour>
    <contour>
      <point x="677" y="1026" type="move" name="top"/>
    </contour>
  </outline>
</glyph>
<glyph name="z" format="1">
  <advance width="992"/>
  <unicode hex="007A"/>
  <outline>
    <contour>
      <point x="37" y="0" type="line"/>
      <point x="859" y="0" type="line"/>
      <point x="882" y="188" type="line"/>
      <point x="363" y="188" type="line"/>
      <point x="945" y="903" type="line"/>
      <point x="960" y="1026" type="line"/>
      <point x="185" y="1026" type="line"/>
      <point x="162" y="837" type="line"/>
      <point x="631" y="837" type="line"/>
      <point x="52" y="125" type="line"/>
    </contour>
    <contour>
      <point x="609" y="1026" type="move" name="top"/>
    </contour>
  </outline>
</glyph>
<glyph name="braceleft" format="1">
  <advance width="922"/>
  <unicode hex="007B"/>
  <outline>
    <contour>
      <point x="634" y="1161" type="line" smooth="yes"/>
      <point x="655" y="1334"/>
      <point x="700" y="1342"/>
      <point x="897" y="1343" type="curve"/>
      <point x="919" y="1528" type="line"/>
      <point x="516" y="1528"/>
      <point x="427" y="1441"/>
      <point x="392" y="1161" type="curve" smooth="yes"/>
      <point x="364" y="929" type="line" smooth="yes"/>
      <point x="347" y="789"/>
      <point x="296" y="745"/>
      <point x="153" y="745" type="curve"/>
      <point x="135" y="596" type="line"/>
      <point x="278" y="596"/>
      <point x="317" y="552"/>
      <point x="300" y="412" type="curve" smooth="yes"/>
      <point x="272" y="180" type="line" smooth="yes"/>
      <point x="237" y="-100"/>
      <point x="306" y="-187"/>
      <point x="709" y="-187" type="curve"/>
      <point x="731" y="-2" type="line"/>
      <point x="536" y="-1"/>
      <point x="493" y="7"/>
      <point x="514" y="180" type="curve" smooth="yes"/>
      <point x="542" y="412" type="line" smooth="yes"/>
      <point x="560" y="559"/>
      <point x="504" y="657"/>
      <point x="350" y="671" type="curve"/>
      <point x="508" y="684"/>
      <point x="588" y="782"/>
      <point x="606" y="929" type="curve" smooth="yes"/>
    </contour>
  </outline>
</glyph>
<glyph name="bar" format="1">
  <advance width="501"/>
  <unicode hex="007C"/>
  <outline>
    <contour>
      <point x="17" y="-460" type="line"/>
      <point x="242" y="-460" type="line"/>
      <point x="484" y="1512" type="line"/>
      <point x="259" y="1512" type="line"/>
    </contour>
  </outline>
</glyph>
<glyph name="braceright" format="1">
  <advance width="922"/>
  <unicode hex="007D"/>
  <outline>
    <contour>
      <point x="3" y="-187" type="line"/>
      <point x="406" y="-187"/>
      <point x="495" y="-100"/>
      <point x="530" y="180" type="curve" smooth="yes"/>
      <point x="558" y="412" type="line" smooth="yes"/>
      <point x="575" y="552"/>
      <point x="626" y="596"/>
      <point x="769" y="596" type="curve"/>
      <point x="787" y="745" type="line"/>
      <point x="644" y="745"/>
      <point x="605" y="789"/>
      <point x="622" y="929" type="curve" smooth="yes"/>
      <point x="650" y="1161" type="line" smooth="yes"/>
      <point x="685" y="1441"/>
      <point x="616" y="1528"/>
      <point x="213" y="1528" type="curve"/>
      <point x="191" y="1343" type="line"/>
      <point x="386" y="1342"/>
      <point x="429" y="1334"/>
      <point x="408" y="1161" type="curve" smooth="yes"/>
      <point x="380" y="929" type="line" smooth="yes"/>
      <point x="362" y="782"/>
      <point x="418" y="684"/>
      <point x="572" y="671" type="curve"/>
      <point x="414" y="657"/>
      <point x="334" y="559"/>
      <point x="316" y="412" type="curve" smooth="yes"/>
      <point x="288" y="180" type="line" smooth="yes"/>
      <point x="267" y="7"/>
      <point x="222" y="-1"/>
      <point x="25" y="-2" type="curve"/>
    </contour>
  </outline>
</glyph>
<glyph name="asciitilde" format="1">
  <advance width="1459"/>
  <unicode hex="007E"/>
  <outline>
    <contour>
      <point x="307" y="365" type="line"/>
      <point x="362" y="487"/>
      <point x="401" y="521"/>
      <point x="482" y="521" type="curve" smooth="yes"/>
      <point x="534" y="521"/>
      <point x="609" y="495"/>
      <point x="691" y="465" type="curve" smooth="yes"/>
      <point x="812" y="421"/>
      <point x="908" y="394"/>
      <point x="988" y="394" type="curve" smooth="yes"/>
      <point x="1128" y="394"/>
      <point x="1214" y="459"/>
      <point x="1298" y="686" type="curve"/>
      <point x="1145" y="752" type="line"/>
      <point x="1101" y="625"/>
      <point x="1068" y="594"/>
      <point x="997" y="594" type="curve" smooth="yes"/>
      <point x="943" y="594"/>
      <point x="864" y="616"/>
      <point x="771" y="653" type="curve" smooth="yes"/>
      <point x="666" y="694"/>
      <point x="573" y="722"/>
      <point x="492" y="722" type="curve" smooth="yes"/>
      <point x="356" y="722"/>
      <point x="252" y="664"/>
      <point x="162" y="439" type="curve"/>
    </contour>
  </outline>
</glyph>
<glyph name="sterling" format="1">
  <advance width="1245"/>
  <unicode hex="00A3"/>
  <outline>
    <contour>
      <point x="58" y="0" type="line"/>
      <point x="1052" y="0" type="line"/>
      <point x="1076" y="195" type="line"/>
      <point x="410" y="195" type="line"/>
      <point x="482" y="277"/>
      <point x="531" y="422"/>
      <point x="554" y="612" type="curve" smooth="yes"/>
      <point x="560" y="661" type="line"/>
      <point x="903" y="661" type="line"/>
      <point x="925" y="838" type="line"/>
      <point x="582" y="838" type="line"/>
      <point x="596" y="955" type="line" smooth="yes"/>
      <point x="626" y="1195"/>
      <point x="716" y="1290"/>
      <point x="893" y="1290" type="curve" smooth="yes"/>
      <point x="987" y="1290"/>
      <point x="1060" y="1264"/>
      <point x="1133" y="1228" type="curve"/>
      <point x="1214" y="1410" type="line"/>
      <point x="1132" y="1460"/>
      <point x="1031" y="1483"/>
      <point x="900" y="1483" type="curve" smooth="yes"/>
      <point x="505" y="1483"/>
      <point x="390" y="1220"/>
      <point x="351" y="901" type="curve" smooth="yes"/>
      <point x="343" y="838" type="line"/>
      <point x="160" y="838" type="line"/>
      <point x="138" y="661" type="line"/>
      <point x="324" y="661" type="line"/>
      <point x="319" y="616" type="line" smooth="yes"/>
      <point x="284" y="335"/>
      <point x="170" y="252"/>
      <point x="80" y="179" type="curve"/>
    </contour>
  </outline>
</glyph>
<glyph name="yen" format="1">
  <advance width="1269"/>
  <unicode hex="00A5"/>
  <outline>
    <contour>
      <point x="101" y="272" type="line"/>
      <point x="1071" y="272" type="line"/>
      <point x="1091" y="433" type="line"/>
      <point x="670" y="433" type="line"/>
      <point x="683" y="539" type="line"/>
      <point x="1102" y="539" type="line"/>
      <point x="1122" y="706" type="line"/>
      <point x="154" y="706" type="line"/>
      <point x="134" y="539" type="line"/>
      <point x="540" y="539" type="line"/>
      <point x="527" y="433" type="line"/>
      <point x="121" y="433" type="line"/>
    </contour>
    <component base="Y"/>
  </outline>
</glyph>
<glyph name="brokenbar" format="1">
  <advance width="500"/>
  <unicode hex="00A6"/>
  <outline>
    <contour>
      <point x="2" y="-460" type="line"/>
      <point x="229" y="-460" type="line"/>
      <point x="336" y="412" type="line"/>
      <point x="109" y="412" type="line"/>
    </contour>
    <contour>
      <point x="128" y="581" type="line"/>
      <point x="355" y="581" type="line"/>
      <point x="469" y="1512" type="line"/>
      <point x="242" y="1512" type="line"/>
    </contour>
  </outline>
</glyph>
<glyph name="section" format="1">
  <advance width="1097"/>
  <unicode hex="00A7"/>
  <outline>
    <contour>
      <point x="423" y="-64" type="curve" smooth="yes"/>
      <point x="648" y="-64"/>
      <point x="851" y="38"/>
      <point x="877" y="256" type="curve" smooth="yes"/>
      <point x="890" y="362"/>
      <point x="849" y="440"/>
      <point x="775" y="486" type="curve"/>
      <point x="865" y="550"/>
      <point x="931" y="627"/>
      <point x="943" y="722" type="curve" smooth="yes"/>
      <point x="960" y="867"/>
      <point x="843" y="939"/>
      <point x="710" y="1011" type="curve"/>
      <point x="574" y="1077"/>
      <point x="504" y="1133"/>
      <point x="512" y="1196" type="curve" smooth="yes"/>
      <point x="521" y="1269"/>
      <point x="606" y="1301"/>
      <point x="692" y="1301" type="curve" smooth="yes"/>
      <point x="786" y="1301"/>
      <point x="883" y="1262"/>
      <point x="941" y="1247" type="curve"/>
      <point x="964" y="1434" type="line"/>
      <point x="873" y="1466"/>
      <point x="775" y="1481"/>
      <point x="681" y="1481" type="curve" smooth="yes"/>
      <point x="470" y="1481"/>
      <point x="281" y="1387"/>
      <point x="256" y="1183" type="curve" smooth="yes"/>
      <point x="243" y="1076"/>
      <point x="278" y="1006"/>
      <point x="348" y="947" type="curve"/>
      <point x="257" y="892"/>
      <point x="187" y="807"/>
      <point x="175" y="712" type="curve" smooth="yes"/>
      <point x="161" y="594"/>
      <point x="232" y="502"/>
      <point x="353" y="442" type="curve" smooth="yes"/>
      <point x="566" y="334"/>
      <point x="629" y="304"/>
      <point x="623" y="250" type="curve" smooth="yes"/>
      <point x="613" y="167"/>
      <point x="534" y="128"/>
      <point x="436" y="128" type="curve" smooth="yes"/>
      <point x="337" y="128"/>
      <point x="216" y="156"/>
      <point x="128" y="194" type="curve"/>
      <point x="104" y="-4" type="line"/>
      <point x="206" y="-44"/>
      <point x="316" y="-64"/>
    </contour>
    <contour>
      <point x="621" y="578" type="curve"/>
      <point x="484" y="642"/>
      <point x="407" y="660"/>
      <point x="416" y="732" type="curve" smooth="yes"/>
      <point x="423" y="790"/>
      <point x="484" y="836"/>
      <point x="507" y="850" type="curve"/>
      <point x="619" y="795"/>
      <point x="692" y="774"/>
      <point x="681" y="688" type="curve" smooth="yes"/>
      <point x="675" y="638"/>
      <point x="648" y="604"/>
    </contour>
  </outline>
</glyph>
<glyph name="dieresis" format="1">
  <advance width="743"/>
  <unicode hex="00A8"/>
  <outline>
    <contour>
      <point x="15" y="1158" type="line"/>
      <point x="251" y="1158" type="line"/>
      <point x="279" y="1378" type="line"/>
      <point x="43" y="1378" type="line"/>
    </contour>
    <contour>
      <point x="462" y="1158" type="line"/>
      <point x="697" y="1158" type="line"/>
      <point x="725" y="1378" type="line"/>
      <point x="490" y="1378" type="line"/>
    </contour>
    <contour>
      <point x="349" y="1026" type="move" name="_top"/>
    </contour>
  </outline>
</glyph>
<glyph name="copyright" format="1">
  <advance width="1716"/>
  <unicode hex="00A9"/>
  <outline>
    <contour>
      <point x="823" y="285" type="curve" smooth="yes"/>
      <point x="940" y="285"/>
      <point x="1034" y="315"/>
      <point x="1132" y="379" type="curve"/>
      <point x="1089" y="521" type="line"/>
      <point x="1051" y="494"/>
      <point x="975" y="442"/>
      <point x="866" y="442" type="curve" smooth="yes"/>
      <point x="703" y="442"/>
      <point x="621" y="556"/>
      <point x="641" y="725" type="curve" smooth="yes"/>
      <point x="663" y="900"/>
      <point x="770" y="1012"/>
      <point x="931" y="1012" type="curve" smooth="yes"/>
      <point x="1024" y="1012"/>
      <point x="1089" y="975"/>
      <point x="1133" y="932" type="curve"/>
      <point x="1217" y="1058" type="line"/>
      <point x="1156" y="1131"/>
      <point x="1060" y="1169"/>
      <point x="931" y="1169" type="curve" smooth="yes"/>
      <point x="660" y="1169"/>
      <point x="470" y="978"/>
      <point x="439" y="725" type="curve" smooth="yes"/>
      <point x="410" y="489"/>
      <point x="544" y="285"/>
    </contour>
    <contour>
      <point x="778" y="90" type="curve" smooth="yes"/>
      <point x="431" y="90"/>
      <point x="192" y="381"/>
      <point x="235" y="728" type="curve" smooth="yes"/>
      <point x="277" y="1075"/>
      <point x="588" y="1366"/>
      <point x="935" y="1366" type="curve" smooth="yes"/>
      <point x="1281" y="1366"/>
      <point x="1521" y="1075"/>
      <point x="1479" y="728" type="curve" smooth="yes"/>
      <point x="1436" y="381"/>
      <point x="1124" y="90"/>
    </contour>
    <contour>
      <point x="766" y="-22" type="curve" smooth="yes"/>
      <point x="1180" y="-22"/>
      <point x="1559" y="317"/>
      <point x="1610" y="731" type="curve" smooth="yes"/>
      <point x="1661" y="1145"/>
      <point x="1364" y="1483"/>
      <point x="950" y="1483" type="curve" smooth="yes"/>
      <point x="536" y="1483"/>
      <point x="157" y="1145"/>
      <point x="106" y="731" type="curve" smooth="yes"/>
      <point x="55" y="317"/>
      <point x="352" y="-22"/>
    </contour>
  </outline>
</glyph>
<glyph name="ordfeminine" format="1">
  <advance width="853"/>
  <unicode hex="00AA"/>
  <outline>
    <contour>
      <point x="299" y="729" type="curve" smooth="yes"/>
      <point x="424" y="729"/>
      <point x="504" y="802"/>
      <point x="531" y="858" type="curve"/>
      <point x="534" y="760" type="line"/>
      <point x="707" y="760" type="line"/>
      <point x="707" y="789"/>
      <point x="706" y="811"/>
      <point x="716" y="910" type="curve" smooth="yes"/>
      <point x="723" y="971"/>
      <point x="732" y="1053"/>
      <point x="749" y="1193" type="curve" smooth="yes"/>
      <point x="775" y="1408"/>
      <point x="644" y="1478"/>
      <point x="484" y="1478" type="curve" smooth="yes"/>
      <point x="303" y="1478"/>
      <point x="174" y="1409"/>
      <point x="174" y="1409" type="curve"/>
      <point x="212" y="1274" type="line"/>
      <point x="212" y="1274"/>
      <point x="339" y="1327"/>
      <point x="445" y="1327" type="curve" smooth="yes"/>
      <point x="522" y="1327"/>
      <point x="573" y="1294"/>
      <point x="562" y="1198" type="curve" smooth="yes"/>
      <point x="557" y="1158" type="line"/>
      <point x="380" y="1158" type="line" smooth="yes"/>
      <point x="199" y="1158"/>
      <point x="101" y="1079"/>
      <point x="84" y="943" type="curve" smooth="yes"/>
      <point x="67" y="802"/>
      <point x="173" y="729"/>
    </contour>
    <contour>
      <point x="328" y="854" type="curve" smooth="yes"/>
      <point x="281" y="854"/>
      <point x="239" y="887"/>
      <point x="246" y="944" type="curve" smooth="yes"/>
      <point x="259" y="1048"/>
      <point x="328" y="1053"/>
      <point x="542" y="1053" type="curve"/>
      <point x="540" y="1037" type="line" smooth="yes"/>
      <point x="524" y="908"/>
      <point x="409" y="854"/>
    </contour>
  </outline>
</glyph>
<glyph name="guillemotleft" format="1">
  <advance width="1166"/>
  <unicode hex="00AB"/>
  <outline>
    <contour>
      <point x="365" y="160" type="line"/>
      <point x="556" y="160" type="line"/>
      <point x="371" y="540" type="line"/>
      <point x="658" y="921" type="line"/>
      <point x="465" y="921" type="line"/>
      <point x="136" y="541" type="line"/>
    </contour>
    <contour>
      <point x="804" y="160" type="line"/>
      <point x="995" y="160" type="line"/>
      <point x="810" y="540" type="line"/>
      <point x="1097" y="921" type="line"/>
      <point x="904" y="921" type="line"/>
      <point x="575" y="541" type="line"/>
    </contour>
  </outline>
</glyph>
<glyph name="logicalnot" format="1">
  <advance width="1458"/>
  <unicode hex="00AC"/>
  <outline>
    <contour>
      <point x="975" y="223" type="line"/>
      <point x="1196" y="223" type="line"/>
      <point x="1268" y="812" type="line"/>
      <point x="205" y="812" type="line"/>
      <point x="181" y="616" type="line"/>
      <point x="1023" y="616" type="line"/>
    </contour>
  </outline>
</glyph>
<glyph name="softhyphen" format="1">
  <advance width="728"/>
  <unicode hex="00AD"/>
  <outline>
    <contour>
      <point x="45" y="463" type="line"/>
      <point x="662" y="463" type="line"/>
      <point x="684" y="644" type="line"/>
      <point x="67" y="644" type="line"/>
    </contour>
    <contour>
      <point x="357" y="551" type="move" name="_mid"/>
    </contour>
  </outline>
</glyph>
<glyph name="registered" format="1">
  <advance width="1716"/>
  <unicode hex="00AE"/>
  <outline>
    <contour>
      <point x="470" y="288" type="line"/>
      <point x="675" y="288" type="line"/>
      <point x="717" y="636" type="line"/>
      <point x="847" y="636" type="line"/>
      <point x="963" y="288" type="line"/>
      <point x="1188" y="288" type="line"/>
      <point x="1042" y="668" type="line"/>
      <point x="1192" y="705"/>
      <point x="1243" y="810"/>
      <point x="1255" y="911" type="curve" smooth="yes"/>
      <point x="1276" y="1081"/>
      <point x="1169" y="1174"/>
      <point x="889" y="1174" type="curve" smooth="yes"/>
      <point x="578" y="1174" type="line"/>
    </contour>
    <contour>
      <point x="736" y="786" type="line"/>
      <point x="764" y="1013" type="line"/>
      <point x="874" y="1013" type="line" smooth="yes"/>
      <point x="1028" y="1013"/>
      <point x="1060" y="1002"/>
      <point x="1048" y="899" type="curve" smooth="yes"/>
      <point x="1036" y="806"/>
      <point x="959" y="786"/>
      <point x="832" y="786" type="curve" smooth="yes"/>
    </contour>
    <contour>
      <point x="778" y="90" type="curve" smooth="yes"/>
      <point x="431" y="90"/>
      <point x="192" y="381"/>
      <point x="235" y="728" type="curve" smooth="yes"/>
      <point x="277" y="1075"/>
      <point x="588" y="1366"/>
      <point x="935" y="1366" type="curve" smooth="yes"/>
      <point x="1281" y="1366"/>
      <point x="1521" y="1075"/>
      <point x="1479" y="728" type="curve" smooth="yes"/>
      <point x="1436" y="381"/>
      <point x="1124" y="90"/>
    </contour>
    <contour>
      <point x="766" y="-22" type="curve" smooth="yes"/>
      <point x="1180" y="-22"/>
      <point x="1559" y="317"/>
      <point x="1610" y="731" type="curve" smooth="yes"/>
      <point x="1661" y="1145"/>
      <point x="1364" y="1483"/>
      <point x="950" y="1483" type="curve" smooth="yes"/>
      <point x="536" y="1483"/>
      <point x="157" y="1145"/>
      <point x="106" y="731" type="curve" smooth="yes"/>
      <point x="55" y="317"/>
      <point x="352" y="-22"/>
    </contour>
  </outline>
</glyph>
<glyph name="degree" format="1">
  <advance width="880"/>
  <unicode hex="00B0"/>
  <outline>
    <contour>
      <point x="418" y="981" type="curve" smooth="yes"/>
      <point x="321" y="981"/>
      <point x="259" y="1057"/>
      <point x="271" y="1156" type="curve" smooth="yes"/>
      <point x="283" y="1254"/>
      <point x="364" y="1330"/>
      <point x="461" y="1330" type="curve" smooth="yes"/>
      <point x="560" y="1330"/>
      <point x="623" y="1254"/>
      <point x="611" y="1156" type="curve" smooth="yes"/>
      <point x="599" y="1057"/>
      <point x="517" y="981"/>
    </contour>
    <contour>
      <point x="402" y="850" type="curve" smooth="yes"/>
      <point x="574" y="850"/>
      <point x="731" y="984"/>
      <point x="752" y="1156" type="curve" smooth="yes"/>
      <point x="773" y="1327"/>
      <point x="650" y="1463"/>
      <point x="478" y="1463" type="curve" smooth="yes"/>
      <point x="307" y="1463"/>
      <point x="149" y="1327"/>
      <point x="128" y="1156" type="curve" smooth="yes"/>
      <point x="107" y="984"/>
      <point x="231" y="850"/>
    </contour>
  </outline>
</glyph>
<glyph name="plusminus" format="1">
  <advance width="1264"/>
  <unicode hex="00B1"/>
  <outline>
    <contour>
      <point x="486" y="284" type="line"/>
      <point x="714" y="284" type="line"/>
      <point x="751" y="592" type="line"/>
      <point x="1075" y="592" type="line"/>
      <point x="1099" y="784" type="line"/>
      <point x="766" y="784" type="line"/>
      <point x="804" y="1097" type="line"/>
      <point x="580" y="1097" type="line"/>
      <point x="542" y="784" type="line"/>
      <point x="220" y="784" type="line"/>
      <point x="196" y="592" type="line"/>
      <point x="523" y="592" type="line"/>
    </contour>
    <contour>
      <point x="122" y="0" type="line"/>
      <point x="1009" y="0" type="line"/>
      <point x="1030" y="172" type="line"/>
      <point x="143" y="172" type="line"/>
    </contour>
  </outline>
</glyph>
<glyph name="twosuperior" format="1">
  <advance width="1096"/>
  <unicode hex="00B2"/>
  <outline>
    <contour>
      <point x="205" y="614" type="line"/>
      <point x="789" y="614" type="line"/>
      <point x="811" y="791" type="line"/>
      <point x="500" y="791" type="line"/>
      <point x="621" y="884" type="line" smooth="yes"/>
      <point x="748" y="982"/>
      <point x="858" y="1085"/>
      <point x="873" y="1208" type="curve" smooth="yes"/>
      <point x="895" y="1385"/>
      <point x="771" y="1463"/>
      <point x="613" y="1463" type="curve" smooth="yes"/>
      <point x="509" y="1463"/>
      <point x="389" y="1429"/>
      <point x="286" y="1367" type="curve"/>
      <point x="333" y="1219" type="line"/>
      <point x="414" y="1265"/>
      <point x="510" y="1297"/>
      <point x="580" y="1297" type="curve" smooth="yes"/>
      <point x="644" y="1297"/>
      <point x="687" y="1271"/>
      <point x="679" y="1206" type="curve" smooth="yes"/>
      <point x="674" y="1166"/>
      <point x="641" y="1108"/>
      <point x="518" y="1010" type="curve" smooth="yes"/>
      <point x="225" y="775" type="line"/>
    </contour>
  </outline>
</glyph>
<glyph name="threesuperior" format="1">
  <advance width="967"/>
  <unicode hex="00B3"/>
  <outline>
    <contour>
      <point x="470" y="603" type="curve" smooth="yes"/>
      <point x="631" y="603"/>
      <point x="787" y="686"/>
      <point x="809" y="869" type="curve" smooth="yes"/>
      <point x="819" y="949"/>
      <point x="786" y="1034"/>
      <point x="663" y="1067" type="curve"/>
      <point x="783" y="1104"/>
      <point x="818" y="1181"/>
      <point x="826" y="1244" type="curve" smooth="yes"/>
      <point x="844" y="1393"/>
      <point x="731" y="1461"/>
      <point x="583" y="1461" type="curve" smooth="yes"/>
      <point x="483" y="1461"/>
      <point x="367" y="1430"/>
      <point x="266" y="1373" type="curve"/>
      <point x="311" y="1255" type="line"/>
      <point x="394" y="1300"/>
      <point x="475" y="1323"/>
      <point x="537" y="1323" type="curve" smooth="yes"/>
      <point x="611" y="1323"/>
      <point x="658" y="1290"/>
      <point x="649" y="1221" type="curve" smooth="yes"/>
      <point x="642" y="1161"/>
      <point x="574" y="1121"/>
      <point x="490" y="1121" type="curve" smooth="yes"/>
      <point x="406" y="1121" type="line"/>
      <point x="389" y="984" type="line"/>
      <point x="476" y="984" type="line" smooth="yes"/>
      <point x="580" y="984"/>
      <point x="637" y="939"/>
      <point x="628" y="872" type="curve" smooth="yes"/>
      <point x="619" y="798"/>
      <point x="561" y="747"/>
      <point x="474" y="747" type="curve" smooth="yes"/>
      <point x="416" y="747"/>
      <point x="346" y="770"/>
      <point x="268" y="823" type="curve"/>
      <point x="192" y="697" type="line"/>
      <point x="266" y="636"/>
      <point x="369" y="603"/>
    </contour>
  </outline>
</glyph>
<glyph name="acute" format="1">
  <advance width="607"/>
  <unicode hex="00B4"/>
  <outline>
    <contour>
      <point x="26" y="1168" type="line"/>
      <point x="240" y="1168" type="line"/>
      <point x="626" y="1483" type="line"/>
      <point x="323" y="1483" type="line"/>
    </contour>
    <contour>
      <point x="114" y="1026" type="move" name="_top"/>
    </contour>
  </outline>
</glyph>
<glyph name="paragraph" format="1">
  <advance width="1223"/>
  <unicode hex="00B6"/>
  <outline>
    <contour>
      <point x="329" y="-178" type="line"/>
      <point x="519" y="-178" type="line"/>
      <point x="697" y="1273" type="line"/>
      <point x="868" y="1273" type="line"/>
      <point x="690" y="-178" type="line"/>
      <point x="880" y="-178" type="line"/>
      <point x="1058" y="1273" type="line"/>
      <point x="1141" y="1273" type="line"/>
      <point x="1163" y="1455" type="line"/>
      <point x="677" y="1455" type="line" smooth="yes"/>
      <point x="399" y="1455"/>
      <point x="192" y="1390"/>
      <point x="160" y="1130" type="curve" smooth="yes"/>
      <point x="136" y="929"/>
      <point x="239" y="810"/>
      <point x="448" y="794" type="curve"/>
    </contour>
  </outline>
</glyph>
<glyph name="cedilla" format="1">
  <advance width="529"/>
  <unicode hex="00B8"/>
  <outline>
    <contour>
      <point x="211" y="-485" type="curve" smooth="yes"/>
      <point x="352" y="-485"/>
      <point x="480" y="-414"/>
      <point x="498" y="-268" type="curve" smooth="yes"/>
      <point x="510" y="-172"/>
      <point x="449" y="-100"/>
      <point x="274" y="-86" type="curve"/>
      <point x="307" y="31" type="line"/>
      <point x="188" y="31" type="line"/>
      <point x="134" y="-150" type="line"/>
      <point x="162" y="-153" type="line" smooth="yes"/>
      <point x="282" y="-166"/>
      <point x="311" y="-196"/>
      <point x="305" y="-243" type="curve" smooth="yes"/>
      <point x="298" y="-301"/>
      <point x="245" y="-317"/>
      <point x="181" y="-317" type="curve" smooth="yes"/>
      <point x="128" y="-317"/>
      <point x="69" y="-302"/>
      <point x="27" y="-283" type="curve"/>
      <point x="-3" y="-429" type="line"/>
      <point x="63" y="-466"/>
      <point x="138" y="-485"/>
    </contour>
    <contour>
      <point x="246" y="0" type="move" name="_bot"/>
    </contour>
  </outline>
</glyph>
<glyph name="onesuperior" format="1">
  <advance width="921"/>
  <unicode hex="00B9"/>
  <outline>
    <contour>
      <point x="154" y="621" type="line"/>
      <point x="715" y="621" type="line"/>
      <point x="734" y="774" type="line"/>
      <point x="559" y="774" type="line"/>
      <point x="642" y="1456" type="line"/>
      <point x="493" y="1456" type="line"/>
      <point x="232" y="1377" type="line"/>
      <point x="212" y="1215" type="line"/>
      <point x="432" y="1270" type="line"/>
      <point x="372" y="776" type="line"/>
      <point x="173" y="776" type="line"/>
    </contour>
  </outline>
</glyph>
<glyph name="ordmasculine" format="1">
  <advance width="908"/>
  <unicode hex="00BA"/>
  <outline>
    <contour>
      <point x="429" y="874" type="curve" smooth="yes"/>
      <point x="307" y="874"/>
      <point x="244" y="953"/>
      <point x="260" y="1084" type="curve" smooth="yes"/>
      <point x="276" y="1211"/>
      <point x="367" y="1293"/>
      <point x="482" y="1293" type="curve" smooth="yes"/>
      <point x="598" y="1293"/>
      <point x="665" y="1214"/>
      <point x="649" y="1081" type="curve" smooth="yes"/>
      <point x="633" y="956"/>
      <point x="546" y="874"/>
    </contour>
    <contour>
      <point x="413" y="720" type="curve" smooth="yes"/>
      <point x="655" y="720"/>
      <point x="810" y="884"/>
      <point x="834" y="1082" type="curve" smooth="yes"/>
      <point x="859" y="1284"/>
      <point x="743" y="1447"/>
      <point x="500" y="1447" type="curve" smooth="yes"/>
      <point x="259" y="1447"/>
      <point x="99" y="1288"/>
      <point x="74" y="1086" type="curve" smooth="yes"/>
      <point x="49" y="878"/>
      <point x="160" y="720"/>
    </contour>
  </outline>
</glyph>
<glyph name="guillemotright" format="1">
  <advance width="1166"/>
  <unicode hex="00BB"/>
  <outline>
    <contour>
      <point x="89" y="160" type="line"/>
      <point x="282" y="160" type="line"/>
      <point x="611" y="540" type="line"/>
      <point x="382" y="921" type="line"/>
      <point x="191" y="921" type="line"/>
      <point x="376" y="541" type="line"/>
    </contour>
    <contour>
      <point x="528" y="160" type="line"/>
      <point x="721" y="160" type="line"/>
      <point x="1050" y="540" type="line"/>
      <point x="821" y="921" type="line"/>
      <point x="630" y="921" type="line"/>
      <point x="815" y="541" type="line"/>
    </contour>
  </outline>
</glyph>
<glyph name="onequarter" format="1">
  <advance width="2095"/>
  <unicode hex="00BC"/>
  <outline>
    <contour>
      <point x="214" y="621" type="line"/>
      <point x="775" y="621" type="line"/>
      <point x="794" y="774" type="line"/>
      <point x="619" y="774" type="line"/>
      <point x="702" y="1456" type="line"/>
      <point x="553" y="1456" type="line"/>
      <point x="292" y="1377" type="line"/>
      <point x="272" y="1215" type="line"/>
      <point x="493" y="1270" type="line"/>
      <point x="432" y="776" type="line"/>
      <point x="233" y="776" type="line"/>
    </contour>
    <contour>
      <point x="1600" y="1" type="line"/>
      <point x="1772" y="1" type="line"/>
      <point x="1795" y="194" type="line"/>
      <point x="1911" y="194" type="line"/>
      <point x="1927" y="324" type="line"/>
      <point x="1811" y="324" type="line"/>
      <point x="1871" y="811" type="line"/>
      <point x="1697" y="811" type="line"/>
      <point x="1267" y="304" type="line"/>
      <point x="1253" y="194" type="line"/>
      <point x="1623" y="194" type="line"/>
    </contour>
    <contour>
      <point x="513" y="0" type="line"/>
      <point x="718" y="0" type="line"/>
      <point x="1783" y="1456" type="line"/>
      <point x="1579" y="1456" type="line"/>
    </contour>
    <contour>
      <point x="1445" y="324" type="line"/>
      <point x="1671" y="596" type="line"/>
      <point x="1637" y="324" type="line"/>
    </contour>
  </outline>
</glyph>
<glyph name="onehalf" format="1">
  <advance width="2472"/>
  <unicode hex="00BD"/>
  <outline>
    <contour>
      <point x="1450" y="0" type="line"/>
      <point x="2034" y="0" type="line"/>
      <point x="2055" y="177" type="line"/>
      <point x="1744" y="177" type="line"/>
      <point x="1863" y="264" type="line" smooth="yes"/>
      <point x="1998" y="363"/>
      <point x="2107" y="460"/>
      <point x="2118" y="594" type="curve" smooth="yes"/>
      <point x="2131" y="771"/>
      <point x="2016" y="849"/>
      <point x="1858" y="849" type="curve" smooth="yes"/>
      <point x="1754" y="849"/>
      <point x="1634" y="815"/>
      <point x="1531" y="753" type="curve"/>
      <point x="1578" y="605" type="line"/>
      <point x="1659" y="651"/>
      <point x="1754" y="683"/>
      <point x="1824" y="683" type="curve" smooth="yes"/>
      <point x="1888" y="683"/>
      <point x="1923" y="657"/>
      <point x="1923" y="592" type="curve" smooth="yes"/>
      <point x="1923" y="526"/>
      <point x="1898" y="483"/>
      <point x="1769" y="386" type="curve" smooth="yes"/>
      <point x="1469" y="161" type="line"/>
    </contour>
    <contour>
      <point x="512" y="0" type="line"/>
      <point x="717" y="0" type="line"/>
      <point x="1782" y="1456" type="line"/>
      <point x="1578" y="1456" type="line"/>
    </contour>
    <contour>
      <point x="192" y="621" type="line"/>
      <point x="753" y="621" type="line"/>
      <point x="772" y="774" type="line"/>
      <point x="597" y="774" type="line"/>
      <point x="680" y="1456" type="line"/>
      <point x="531" y="1456" type="line"/>
      <point x="270" y="1377" type="line"/>
      <point x="250" y="1215" type="line"/>
      <point x="471" y="1270" type="line"/>
      <point x="410" y="776" type="line"/>
      <point x="211" y="776" type="line"/>
    </contour>
  </outline>
</glyph>
<glyph name="threequarters" format="1">
  <advance width="2455"/>
  <unicode hex="00BE"/>
  <outline>
    <contour>
      <point x="508" y="603" type="curve" smooth="yes"/>
      <point x="669" y="603"/>
      <point x="825" y="686"/>
      <point x="847" y="869" type="curve" smooth="yes"/>
      <point x="857" y="949"/>
      <point x="824" y="1034"/>
      <point x="701" y="1067" type="curve"/>
      <point x="821" y="1104"/>
      <point x="856" y="1181"/>
      <point x="864" y="1244" type="curve" smooth="yes"/>
      <point x="882" y="1393"/>
      <point x="769" y="1461"/>
      <point x="621" y="1461" type="curve" smooth="yes"/>
      <point x="521" y="1461"/>
      <point x="405" y="1430"/>
      <point x="304" y="1373" type="curve"/>
      <point x="349" y="1255" type="line"/>
      <point x="432" y="1300"/>
      <point x="513" y="1323"/>
      <point x="575" y="1323" type="curve" smooth="yes"/>
      <point x="649" y="1323"/>
      <point x="696" y="1290"/>
      <point x="687" y="1221" type="curve" smooth="yes"/>
      <point x="680" y="1161"/>
      <point x="612" y="1121"/>
      <point x="528" y="1121" type="curve" smooth="yes"/>
      <point x="444" y="1121" type="line"/>
      <point x="427" y="984" type="line"/>
      <point x="514" y="984" type="line" smooth="yes"/>
      <point x="618" y="984"/>
      <point x="675" y="939"/>
      <point x="666" y="872" type="curve" smooth="yes"/>
      <point x="657" y="798"/>
      <point x="599" y="747"/>
      <point x="512" y="747" type="curve" smooth="yes"/>
      <point x="454" y="747"/>
      <point x="384" y="770"/>
      <point x="306" y="823" type="curve"/>
      <point x="230" y="697" type="line"/>
      <point x="304" y="636"/>
      <point x="407" y="603"/>
    </contour>
    <contour>
      <point x="1621" y="1" type="line"/>
      <point x="1793" y="1" type="line"/>
      <point x="1817" y="194" type="line"/>
      <point x="1933" y="194" type="line"/>
      <point x="1949" y="324" type="line"/>
      <point x="1833" y="324" type="line"/>
      <point x="1893" y="811" type="line"/>
      <point x="1719" y="811" type="line"/>
      <point x="1289" y="304" type="line"/>
      <point x="1275" y="194" type="line"/>
      <point x="1645" y="194" type="line"/>
    </contour>
    <contour>
      <point x="534" y="0" type="line"/>
      <point x="739" y="0" type="line"/>
      <point x="1805" y="1456" type="line"/>
      <point x="1601" y="1456" type="line"/>
    </contour>
    <contour>
      <point x="1467" y="324" type="line"/>
      <point x="1692" y="596" type="line"/>
      <point x="1659" y="324" type="line"/>
    </contour>
  </outline>
</glyph>
<glyph name="AE" format="1">
  <advance width="2186"/>
  <unicode hex="00C6"/>
  <outline>
    <contour>
      <point x="-69" y="0" type="line"/>
      <point x="227" y="0" type="line"/>
      <point x="478" y="364" type="line"/>
      <point x="1067" y="364" type="line"/>
      <point x="1053" y="0" type="line"/>
      <point x="1891" y="0" type="line"/>
      <point x="1917" y="214" type="line"/>
      <point x="1329" y="214" type="line"/>
      <point x="1341" y="641" type="line"/>
      <point x="1935" y="641" type="line"/>
      <point x="1961" y="849" type="line"/>
      <point x="1341" y="849" type="line"/>
      <point x="1354" y="1242" type="line"/>
      <point x="2017" y="1242" type="line"/>
      <point x="2043" y="1456" type="line"/>
      <point x="970" y="1456" type="line"/>
    </contour>
    <contour>
      <point x="597" y="556" type="line"/>
      <point x="1073" y="1242" type="line"/>
      <point x="1109" y="1242" type="line"/>
      <point x="1074" y="556" type="line"/>
    </contour>
    <contour>
      <point x="1415" y="1456" type="move" name="top"/>
    </contour>
  </outline>
</glyph>
<glyph name="multiply" format="1">
  <advance width="1264"/>
  <unicode hex="00D7"/>
  <outline>
    <contour>
      <point x="307" y="122" type="line"/>
      <point x="613" y="395" type="line"/>
      <point x="854" y="122" type="line"/>
      <point x="1024" y="274" type="line"/>
      <point x="784" y="548" type="line"/>
      <point x="1092" y="822" type="line"/>
      <point x="958" y="974" type="line"/>
      <point x="651" y="701" type="line"/>
      <point x="411" y="974" type="line"/>
      <point x="240" y="821" type="line"/>
      <point x="479" y="548" type="line"/>
      <point x="172" y="275" type="line"/>
    </contour>
  </outline>
</glyph>
<glyph name="Oslash" format="1">
  <advance width="1662"/>
  <unicode hex="00D8"/>
  <outline>
    <contour>
      <point x="344" y="-127" type="line"/>
      <point x="1426" y="1520" type="line"/>
      <point x="1321" y="1572" type="line"/>
      <point x="239" y="-75" type="line"/>
    </contour>
    <component base="O"/>
  </outline>
</glyph>
<glyph name="Thorn" format="1">
  <advance width="1296"/>
  <unicode hex="00DE"/>
  <outline>
    <contour>
      <point x="103" y="0" type="line"/>
      <point x="342" y="0" type="line"/>
      <point x="382" y="331" type="line"/>
      <point x="577" y="331" type="line" smooth="yes"/>
      <point x="895" y="331"/>
      <point x="1185" y="462"/>
      <point x="1224" y="774" type="curve" smooth="yes"/>
      <point x="1269" y="1145"/>
      <point x="1005" y="1220"/>
      <point x="662" y="1220" type="curve" smooth="yes"/>
      <point x="493" y="1220" type="line"/>
      <point x="522" y="1456" type="line"/>
      <point x="281" y="1456" type="line"/>
    </contour>
    <contour>
      <point x="408" y="538" type="line"/>
      <point x="466" y="1015" type="line"/>
      <point x="649" y="1015" type="line" smooth="yes"/>
      <point x="863" y="1015"/>
      <point x="988" y="970"/>
      <point x="964" y="774" type="curve" smooth="yes"/>
      <point x="943" y="609"/>
      <point x="820" y="538"/>
      <point x="636" y="538" type="curve" smooth="yes"/>
    </contour>
  </outline>
</glyph>
<glyph name="germandbls" format="1">
  <advance width="1262.004"/>
  <unicode hex="00DF"/>
  <outline>
    <contour>
      <point x="732" y="-22" type="curve" smooth="yes"/>
      <point x="935" y="-22"/>
      <point x="1119" y="121"/>
      <point x="1148" y="352" type="curve" smooth="yes"/>
      <point x="1175" y="574"/>
      <point x="1035" y="712"/>
      <point x="850" y="783" type="curve" smooth="yes"/>
      <point x="817" y="795"/>
      <point x="782" y="806"/>
      <point x="748" y="814" type="curve"/>
      <point x="783" y="824"/>
      <point x="817" y="836"/>
      <point x="850" y="852" type="curve" smooth="yes"/>
      <point x="991" y="918"/>
      <point x="1075" y="1040"/>
      <point x="1090" y="1165" type="curve" smooth="yes"/>
      <point x="1113" y="1352"/>
      <point x="954" y="1483"/>
      <point x="698" y="1483" type="curve" smooth="yes"/>
      <point x="419" y="1483"/>
      <point x="220" y="1327"/>
      <point x="182" y="1005" type="curve" smooth="yes"/>
      <point x="61" y="0" type="line"/>
      <point x="290" y="0" type="line"/>
      <point x="414" y="1005" type="line" smooth="yes"/>
      <point x="437" y="1191"/>
      <point x="538" y="1295"/>
      <point x="676" y="1295" type="curve" smooth="yes"/>
      <point x="770" y="1295"/>
      <point x="845" y="1243"/>
      <point x="834" y="1152" type="curve" smooth="yes"/>
      <point x="820" y="1039"/>
      <point x="711" y="945"/>
      <point x="588" y="895" type="curve"/>
      <point x="566" y="717" type="line"/>
      <point x="807" y="592"/>
      <point x="905" y="494"/>
      <point x="885" y="334" type="curve" smooth="yes"/>
      <point x="872" y="228"/>
      <point x="811" y="180"/>
      <point x="732" y="168" type="curve" smooth="yes"/>
      <point x="615" y="151"/>
      <point x="477" y="221"/>
      <point x="477" y="221" type="curve"/>
      <point x="414" y="37" type="line"/>
      <point x="414" y="37"/>
      <point x="554" y="-22"/>
    </contour>
  </outline>
</glyph>
<glyph name="ae" format="1">
  <advance width="1779"/>
  <unicode hex="00E6"/>
  <outline>
    <contour>
      <point x="406" y="-23" type="curve" smooth="yes"/>
      <point x="560" y="-23"/>
      <point x="730" y="38"/>
      <point x="821" y="184" type="curve"/>
      <point x="878" y="34"/>
      <point x="1010" y="-23"/>
      <point x="1191" y="-23" type="curve" smooth="yes"/>
      <point x="1421" y="-23"/>
      <point x="1598" y="107"/>
      <point x="1598" y="107" type="curve"/>
      <point x="1554" y="279" type="line"/>
      <point x="1554" y="279"/>
      <point x="1393" y="168"/>
      <point x="1221" y="168" type="curve" smooth="yes"/>
      <point x="1051" y="168"/>
      <point x="961" y="254"/>
      <point x="969" y="450" type="curve"/>
      <point x="972" y="471" type="line"/>
      <point x="1656" y="471" type="line"/>
      <point x="1656" y="471"/>
      <point x="1664" y="498"/>
      <point x="1667" y="520" type="curve" smooth="yes"/>
      <point x="1703" y="815"/>
      <point x="1604" y="1052"/>
      <point x="1299" y="1052" type="curve" smooth="yes"/>
      <point x="1171" y="1052"/>
      <point x="1012" y="986"/>
      <point x="928" y="862" type="curve"/>
      <point x="881" y="991"/>
      <point x="736" y="1052"/>
      <point x="630" y="1052" type="curve" smooth="yes"/>
      <point x="400" y="1052"/>
      <point x="250" y="969"/>
      <point x="206" y="944" type="curve"/>
      <point x="254" y="786" type="line"/>
      <point x="381" y="843"/>
      <point x="481" y="867"/>
      <point x="558" y="867" type="curve" smooth="yes"/>
      <point x="709" y="867"/>
      <point x="777" y="769"/>
      <point x="762" y="634" type="curve"/>
      <point x="723" y="634" type="line" smooth="yes"/>
      <point x="306" y="634"/>
      <point x="80" y="567"/>
      <point x="47" y="292" type="curve" smooth="yes"/>
      <point x="22" y="89"/>
      <point x="168" y="-23"/>
    </contour>
    <contour>
      <point x="439" y="167" type="curve" smooth="yes"/>
      <point x="344" y="167"/>
      <point x="266" y="204"/>
      <point x="278" y="302" type="curve" smooth="yes"/>
      <point x="294" y="431"/>
      <point x="463" y="471"/>
      <point x="632" y="471" type="curve" smooth="yes"/>
      <point x="742" y="471" type="line"/>
      <point x="721" y="327"/>
      <point x="634" y="167"/>
    </contour>
    <contour>
      <point x="994" y="629" type="line"/>
      <point x="1041" y="764"/>
      <point x="1136" y="877"/>
      <point x="1279" y="877" type="curve" smooth="yes"/>
      <point x="1388" y="877"/>
      <point x="1485" y="799"/>
      <point x="1475" y="649" type="curve" smooth="yes"/>
      <point x="1473" y="629" type="line"/>
    </contour>
    <contour>
      <point x="956" y="1026" type="move" name="top"/>
    </contour>
  </outline>
</glyph>
<glyph name="eth" format="1">
  <advance width="1218"/>
  <unicode hex="00F0"/>
  <outline>
    <contour>
      <point x="494" y="-24" type="curve" smooth="yes"/>
      <point x="818" y="-24"/>
      <point x="1035" y="170"/>
      <point x="1091" y="623" type="curve" smooth="yes"/>
      <point x="1126" y="911"/>
      <point x="1035" y="1103"/>
      <point x="910" y="1230" type="curve"/>
      <point x="1110" y="1330" type="line"/>
      <point x="1059" y="1457" type="line"/>
      <point x="794" y="1325" type="line"/>
      <point x="660" y="1414"/>
      <point x="519" y="1448"/>
      <point x="456" y="1456" type="curve"/>
      <point x="359" y="1303" type="line"/>
      <point x="452" y="1281"/>
      <point x="528" y="1254"/>
      <point x="590" y="1223" type="curve"/>
      <point x="408" y="1132" type="line"/>
      <point x="459" y="1005" type="line"/>
      <point x="724" y="1137" type="line"/>
      <point x="927" y="964"/>
      <point x="894" y="802"/>
      <point x="887" y="749" type="curve"/>
      <point x="806" y="859"/>
      <point x="693" y="904"/>
      <point x="570" y="904" type="curve" smooth="yes"/>
      <point x="292" y="904"/>
      <point x="102" y="731"/>
      <point x="69" y="468" type="curve" smooth="yes"/>
      <point x="37" y="204"/>
      <point x="195" y="-24"/>
    </contour>
    <contour>
      <point x="534" y="168" type="curve" smooth="yes"/>
      <point x="404" y="168"/>
      <point x="287" y="260"/>
      <point x="310" y="451" type="curve" smooth="yes"/>
      <point x="332" y="628"/>
      <point x="461" y="706"/>
      <point x="587" y="706" type="curve" smooth="yes"/>
      <point x="715" y="706"/>
      <point x="838" y="611"/>
      <point x="818" y="450" type="curve" smooth="yes"/>
      <point x="796" y="265"/>
      <point x="658" y="168"/>
    </contour>
  </outline>
</glyph>
<glyph name="divide" format="1">
  <advance width="1458"/>
  <unicode hex="00F7"/>
  <outline>
    <contour>
      <point x="529" y="-13" type="line"/>
      <point x="747" y="-13" type="line"/>
      <point x="779" y="250" type="line"/>
      <point x="562" y="250" type="line"/>
    </contour>
    <contour>
      <point x="155" y="454" type="line"/>
      <point x="1218" y="454" type="line"/>
      <point x="1242" y="651" type="line"/>
      <point x="179" y="651" type="line"/>
    </contour>
    <contour>
      <point x="632" y="845" type="line"/>
      <point x="849" y="845" type="line"/>
      <point x="881" y="1107" type="line"/>
      <point x="664" y="1107" type="line"/>
    </contour>
  </outline>
</glyph>
<glyph name="oslash" format="1">
  <advance width="1280"/>
  <unicode hex="00F8"/>
  <outline>
    <contour>
      <point x="293" y="-209" type="line"/>
      <point x="1096" y="1159" type="line"/>
      <point x="1003" y="1204" type="line"/>
      <point x="200" y="-164" type="line"/>
    </contour>
    <component base="o"/>
  </outline>
</glyph>
<glyph name="thorn" format="1">
  <advance width="1230"/>
  <unicode hex="00FE"/>
  <outline>
    <contour>
      <point x="29" y="-400" type="line"/>
      <point x="251" y="-400" type="line"/>
      <point x="310" y="79" type="line"/>
      <point x="371" y="18"/>
      <point x="475" y="-23"/>
      <point x="582" y="-23" type="curve" smooth="yes"/>
      <point x="904" y="-23"/>
      <point x="1094" y="240"/>
      <point x="1129" y="525" type="curve" smooth="yes"/>
      <point x="1164" y="808"/>
      <point x="1033" y="1051"/>
      <point x="715" y="1051" type="curve" smooth="yes"/>
      <point x="623" y="1051"/>
      <point x="485" y="1006"/>
      <point x="417" y="932" type="curve"/>
      <point x="484" y="1463" type="line"/>
      <point x="257" y="1463" type="line"/>
    </contour>
    <contour>
      <point x="577" y="167" type="curve" smooth="yes"/>
      <point x="408" y="167"/>
      <point x="338" y="306"/>
      <point x="361" y="494" type="curve" smooth="yes"/>
      <point x="385" y="685"/>
      <point x="473" y="859"/>
      <point x="670" y="859" type="curve" smooth="yes"/>
      <point x="860" y="859"/>
      <point x="902" y="696"/>
      <point x="881" y="521" type="curve" smooth="yes"/>
      <point x="858" y="335"/>
      <point x="760" y="167"/>
    </contour>
  </outline>
</glyph>
<glyph name="Hbar" format="1">
  <advance width="1568"/>
  <unicode hex="0126"/>
  <outline>
    <contour>
      <point x="137" y="1086" type="line"/>
      <point x="1505" y="1086" type="line"/>
      <point x="1522" y="1228" type="line"/>
      <point x="154" y="1228" type="line"/>
    </contour>
    <component base="H"/>
  </outline>
</glyph>
<glyph name="dotlessi" format="1">
  <advance width="503"/>
  <unicode hex="0131"/>
  <outline>
    <contour>
      <point x="60" y="0" type="line"/>
      <point x="297" y="0" type="line"/>
      <point x="423" y="1026" type="line"/>
      <point x="186" y="1026" type="line"/>
    </contour>
    <contour>
      <point x="308" y="1026" type="move" name="top"/>
    </contour>
    <contour>
      <point x="221" y="0" type="move" name="ogonek"/>
    </contour>
  </outline>
</glyph>
<glyph name="kgreenlandic" format="1">
  <advance width="1082"/>
  <unicode hex="0138"/>
  <outline>
    <contour>
      <point x="87" y="0" type="line"/>
      <point x="322" y="0" type="line"/>
      <point x="371" y="399" type="line"/>
      <point x="736" y="0" type="line"/>
      <point x="1049" y="0" type="line"/>
      <point x="735" y="321"/>
      <point x="850" y="211"/>
      <point x="563" y="509" type="curve"/>
      <point x="1140" y="1026" type="line"/>
      <point x="819" y="1026" type="line"/>
      <point x="398" y="618" type="line"/>
      <point x="448" y="1026" type="line"/>
      <point x="213" y="1026" type="line"/>
    </contour>
  </outline>
</glyph>
<glyph name="Lslash" format="1">
  <advance width="1159"/>
  <unicode hex="0141"/>
  <outline>
    <contour>
      <point x="3" y="431" type="line"/>
      <point x="657" y="874" type="line"/>
      <point x="683" y="1086" type="line"/>
      <point x="29" y="643" type="line"/>
    </contour>
    <component base="L"/>
  </outline>
</glyph>
<glyph name="lslash" format="1">
  <advance width="503"/>
  <unicode hex="0142"/>
  <outline>
    <contour>
      <point x="35" y="0" type="line"/>
      <point x="272" y="0" type="line"/>
      <point x="381" y="887" type="line"/>
      <point x="504" y="987" type="line"/>
      <point x="530" y="1197" type="line"/>
      <point x="406" y="1100" type="line"/>
      <point x="451" y="1463" type="line"/>
      <point x="214" y="1463" type="line"/>
      <point x="148" y="928" type="line"/>
      <point x="18" y="828" type="line"/>
      <point x="-8" y="621" type="line"/>
      <point x="124" y="721" type="line"/>
    </contour>
  </outline>
</glyph>
<glyph name="Eng" format="1">
  <advance width="1612"/>
  <unicode hex="014A"/>
  <outline>
    <contour>
      <point x="1537" y="1456" type="line"/>
      <point x="1307" y="1456" type="line"/>
      <point x="1181" y="428" type="line"/>
      <point x="1082" y="605" type="line"/>
      <point x="567" y="1456" type="line"/>
      <point x="310" y="1456" type="line"/>
      <point x="131" y="0" type="line"/>
      <point x="355" y="0" type="line"/>
      <point x="496" y="1148" type="line"/>
      <point x="596" y="968" type="line"/>
      <point x="1139" y="90" type="line"/>
      <point x="1124" y="-33" type="line" smooth="yes"/>
      <point x="1099" y="-241"/>
      <point x="957" y="-278"/>
      <point x="792" y="-278" type="curve" smooth="yes"/>
      <point x="706" y="-278"/>
      <point x="612" y="-260"/>
      <point x="523" y="-234" type="curve"/>
      <point x="468" y="-421" type="line"/>
      <point x="579" y="-449"/>
      <point x="682" y="-464"/>
      <point x="777" y="-464" type="curve" smooth="yes"/>
      <point x="1102" y="-464"/>
      <point x="1318" y="-324"/>
      <point x="1361" y="21" type="curve" smooth="yes"/>
    </contour>
  </outline>
</glyph>
<glyph name="eng" format="1">
  <advance width="1199"/>
  <unicode hex="014B"/>
  <outline>
    <contour>
      <point x="454" y="-401" type="curve" smooth="yes"/>
      <point x="779" y="-401"/>
      <point x="999" y="-231"/>
      <point x="1041" y="114" type="curve" smooth="yes"/>
      <point x="1098" y="580" type="line" smooth="yes"/>
      <point x="1141" y="928"/>
      <point x="1024" y="1052"/>
      <point x="787" y="1052" type="curve" smooth="yes"/>
      <point x="680" y="1052"/>
      <point x="534" y="995"/>
      <point x="459" y="879" type="curve"/>
      <point x="477" y="1026" type="line"/>
      <point x="228" y="1026" type="line"/>
      <point x="228" y="1026"/>
      <point x="228" y="883"/>
      <point x="201" y="656" type="curve" smooth="yes"/>
      <point x="120" y="0" type="line"/>
      <point x="356" y="0" type="line"/>
      <point x="432" y="620" type="line" smooth="yes"/>
      <point x="450" y="764"/>
      <point x="609" y="861"/>
      <point x="716" y="861" type="curve" smooth="yes"/>
      <point x="858" y="861"/>
      <point x="887" y="781"/>
      <point x="864" y="592" type="curve" smooth="yes"/>
      <point x="798" y="60" type="line" smooth="yes"/>
      <point x="773" y="-148"/>
      <point x="634" y="-215"/>
      <point x="469" y="-215" type="curve" smooth="yes"/>
      <point x="383" y="-215"/>
      <point x="289" y="-197"/>
      <point x="200" y="-171" type="curve"/>
      <point x="145" y="-358" type="line"/>
      <point x="256" y="-386"/>
      <point x="359" y="-401"/>
    </contour>
  </outline>
</glyph>
<glyph name="OE" format="1">
  <advance width="2055"/>
  <unicode hex="0152"/>
  <outline>
    <contour>
      <point x="724" y="-24" type="curve" smooth="yes"/>
      <point x="894" y="-19"/>
      <point x="1005" y="62"/>
      <point x="1010" y="69" type="curve"/>
      <point x="1001" y="0" type="line"/>
      <point x="1861" y="0" type="line"/>
      <point x="1887" y="207" type="line"/>
      <point x="1271" y="207" type="line"/>
      <point x="1324" y="641" type="line"/>
      <point x="1874" y="641" type="line"/>
      <point x="1900" y="849" type="line"/>
      <point x="1348" y="849" type="line"/>
      <point x="1397" y="1249" type="line"/>
      <point x="1986" y="1249" type="line"/>
      <point x="2011" y="1456" type="line"/>
      <point x="1180" y="1456" type="line"/>
      <point x="1173" y="1396" type="line" smooth="yes"/>
      <point x="1173" y="1395"/>
      <point x="1100" y="1490"/>
      <point x="860" y="1482" type="curve" smooth="yes"/>
      <point x="494" y="1470"/>
      <point x="163" y="1194"/>
      <point x="106" y="731" type="curve" smooth="yes"/>
      <point x="42" y="210"/>
      <point x="330" y="-36"/>
    </contour>
    <contour>
      <point x="751" y="167" type="curve" smooth="yes"/>
      <point x="476" y="167"/>
      <point x="322" y="366"/>
      <point x="367" y="725" type="curve" smooth="yes"/>
      <point x="412" y="1099"/>
      <point x="631" y="1257"/>
      <point x="852" y="1275" type="curve" smooth="yes"/>
      <point x="1022" y="1289"/>
      <point x="1105" y="1236"/>
      <point x="1148" y="1195" type="curve"/>
      <point x="1033" y="253" type="line"/>
      <point x="1032" y="253"/>
      <point x="952" y="167"/>
    </contour>
  </outline>
</glyph>
<glyph name="oe" format="1">
  <advance width="1998"/>
  <unicode hex="0153"/>
  <outline>
    <contour>
      <point x="570" y="-22" type="curve" smooth="yes"/>
      <point x="729" y="-22"/>
      <point x="899" y="56"/>
      <point x="979" y="170" type="curve"/>
      <point x="1039" y="54"/>
      <point x="1202" y="-22"/>
      <point x="1364" y="-22" type="curve" smooth="yes"/>
      <point x="1623" y="-22"/>
      <point x="1790" y="105"/>
      <point x="1790" y="105" type="curve"/>
      <point x="1746" y="277" type="line"/>
      <point x="1746" y="277"/>
      <point x="1594" y="168"/>
      <point x="1414" y="168" type="curve" smooth="yes"/>
      <point x="1227" y="168"/>
      <point x="1123" y="252"/>
      <point x="1130" y="416" type="curve" smooth="yes"/>
      <point x="1131" y="441" type="line"/>
      <point x="1850" y="441" type="line"/>
      <point x="1857" y="504" type="line" smooth="yes"/>
      <point x="1898" y="834"/>
      <point x="1757" y="1055"/>
      <point x="1463" y="1055" type="curve" smooth="yes"/>
      <point x="1274" y="1055"/>
      <point x="1157" y="984"/>
      <point x="1064" y="863" type="curve"/>
      <point x="1004" y="971"/>
      <point x="886" y="1052"/>
      <point x="696" y="1052" type="curve" smooth="yes"/>
      <point x="354" y="1052"/>
      <point x="137" y="815"/>
      <point x="99" y="511" type="curve" smooth="yes"/>
      <point x="62" y="203"/>
      <point x="234" y="-22"/>
    </contour>
    <contour>
      <point x="596" y="168" type="curve" smooth="yes"/>
      <point x="394" y="168"/>
      <point x="322" y="322"/>
      <point x="345" y="508" type="curve" smooth="yes"/>
      <point x="369" y="706"/>
      <point x="488" y="861"/>
      <point x="674" y="861" type="curve" smooth="yes"/>
      <point x="865" y="861"/>
      <point x="924" y="709"/>
      <point x="899" y="511" type="curve" smooth="yes"/>
      <point x="877" y="328"/>
      <point x="777" y="168"/>
    </contour>
    <contour>
      <point x="1157" y="636" type="line"/>
      <point x="1192" y="782"/>
      <point x="1304" y="865"/>
      <point x="1437" y="865" type="curve" smooth="yes"/>
      <point x="1563" y="865"/>
      <point x="1665" y="785"/>
      <point x="1648" y="648" type="curve" smooth="yes"/>
      <point x="1647" y="636" type="line"/>
    </contour>
  </outline>
</glyph>
<glyph name="florin" format="1">
  <advance width="1103"/>
  <unicode hex="0192"/>
  <outline>
    <contour>
      <point x="95" y="-312" type="curve" smooth="yes"/>
      <point x="312" y="-312"/>
      <point x="455" y="-219"/>
      <point x="537" y="53" type="curve" smooth="yes"/>
      <point x="724" y="669" type="line"/>
      <point x="893" y="669" type="line"/>
      <point x="943" y="823" type="line"/>
      <point x="777" y="823" type="line"/>
      <point x="867" y="1107" type="line" smooth="yes"/>
      <point x="906" y="1230"/>
      <point x="973" y="1251"/>
      <point x="1033" y="1251" type="curve" smooth="yes"/>
      <point x="1084" y="1251"/>
      <point x="1147" y="1231"/>
      <point x="1147" y="1231" type="curve"/>
      <point x="1186" y="1411" type="line"/>
      <point x="1186" y="1411"/>
      <point x="1130" y="1454"/>
      <point x="1007" y="1454" type="curve" smooth="yes"/>
      <point x="741" y="1454"/>
      <point x="657" y="1254"/>
      <point x="612" y="1111" type="curve" smooth="yes"/>
      <point x="524" y="823" type="line"/>
      <point x="390" y="823" type="line"/>
      <point x="334" y="669" type="line"/>
      <point x="476" y="669" type="line"/>
      <point x="296" y="77" type="line" smooth="yes"/>
      <point x="243" y="-97"/>
      <point x="175" y="-118"/>
      <point x="118" y="-118" type="curve" smooth="yes"/>
      <point x="74" y="-118"/>
      <point x="29" y="-108"/>
      <point x="29" y="-108" type="curve"/>
      <point x="-11" y="-294" type="line"/>
      <point x="36" y="-309"/>
      <point x="89" y="-312"/>
    </contour>
  </outline>
</glyph>
<glyph name="dotlessj" format="1">
  <advance width="572"/>
  <unicode hex="0237"/>
  <outline>
    <contour>
      <point x="-8" y="-378" type="curve" smooth="yes"/>
      <point x="288" y="-378"/>
      <point x="371" y="-206"/>
      <point x="399" y="23" type="curve" smooth="yes"/>
      <point x="522" y="1026" type="line"/>
      <point x="287" y="1026" type="line"/>
      <point x="164" y="26" type="line" smooth="yes"/>
      <point x="141" y="-161"/>
      <point x="86" y="-204"/>
      <point x="-9" y="-204" type="curve" smooth="yes"/>
      <point x="-75" y="-204"/>
      <point x="-136" y="-186"/>
      <point x="-136" y="-186" type="curve"/>
      <point x="-176" y="-355" type="line"/>
      <point x="-176" y="-355"/>
      <point x="-108" y="-378"/>
    </contour>
    <contour>
      <point x="405" y="1026" type="move" name="top"/>
    </contour>
  </outline>
</glyph>
<glyph name="circumflex" format="1">
  <advance width="699"/>
  <unicode hex="02C6"/>
  <outline>
    <contour>
      <point x="-46" y="1172" type="line"/>
      <point x="164" y="1172" type="line"/>
      <point x="345" y="1348" type="line"/>
      <point x="480" y="1172" type="line"/>
      <point x="700" y="1172" type="line"/>
      <point x="487" y="1541" type="line"/>
      <point x="253" y="1541" type="line"/>
    </contour>
    <contour>
      <point x="314" y="1026" type="move" name="_top"/>
    </contour>
  </outline>
</glyph>
<glyph name="caron" format="1">
  <advance width="699"/>
  <unicode hex="02C7"/>
  <outline>
    <contour>
      <point x="231" y="1172" type="line"/>
      <point x="425" y="1172" type="line"/>
      <point x="743" y="1540" type="line"/>
      <point x="499" y="1540" type="line"/>
      <point x="346" y="1370" type="line"/>
      <point x="237" y="1540" type="line"/>
      <point x="3" y="1540" type="line"/>
    </contour>
    <contour>
      <point x="326" y="1026" type="move" name="_top"/>
    </contour>
  </outline>
</glyph>
<glyph name="breve" format="1">
  <advance width="684"/>
  <unicode hex="02D8"/>
  <outline>
    <contour>
      <point x="326" y="1167" type="curve" smooth="yes"/>
      <point x="512" y="1167"/>
      <point x="633" y="1251"/>
      <point x="672" y="1456" type="curve"/>
      <point x="508" y="1456" type="line"/>
      <point x="485" y="1351"/>
      <point x="419" y="1333"/>
      <point x="347" y="1333" type="curve" smooth="yes"/>
      <point x="275" y="1333"/>
      <point x="209" y="1351"/>
      <point x="214" y="1456" type="curve"/>
      <point x="48" y="1456" type="line"/>
      <point x="37" y="1251"/>
      <point x="140" y="1167"/>
    </contour>
    <contour>
      <point x="311" y="1026" type="move" name="_top"/>
    </contour>
  </outline>
</glyph>
<glyph name="dotaccent" format="1">
  <advance width="524"/>
  <unicode hex="02D9"/>
  <outline>
    <contour>
      <point x="124" y="1193" type="line"/>
      <point x="358" y="1193" type="line"/>
      <point x="384" y="1412" type="line"/>
      <point x="150" y="1412" type="line"/>
    </contour>
    <contour>
      <point x="219" y="1026" type="move" name="_top"/>
    </contour>
  </outline>
</glyph>
<glyph name="ring" format="1">
  <advance width="686"/>
  <unicode hex="02DA"/>
  <outline>
    <contour>
      <point x="322" y="1245" type="curve" smooth="yes"/>
      <point x="264" y="1245"/>
      <point x="222" y="1294"/>
      <point x="229" y="1354" type="curve" smooth="yes"/>
      <point x="236" y="1414"/>
      <point x="290" y="1462"/>
      <point x="348" y="1462" type="curve" smooth="yes"/>
      <point x="407" y="1462"/>
      <point x="449" y="1414"/>
      <point x="442" y="1354" type="curve" smooth="yes"/>
      <point x="435" y="1294"/>
      <point x="381" y="1245"/>
    </contour>
    <contour>
      <point x="309" y="1144" type="curve" smooth="yes"/>
      <point x="428" y="1144"/>
      <point x="537" y="1233"/>
      <point x="552" y="1354" type="curve" smooth="yes"/>
      <point x="567" y="1476"/>
      <point x="480" y="1564"/>
      <point x="361" y="1564" type="curve" smooth="yes"/>
      <point x="241" y="1564"/>
      <point x="133" y="1476"/>
      <point x="118" y="1354" type="curve" smooth="yes"/>
      <point x="103" y="1233"/>
      <point x="189" y="1144"/>
    </contour>
    <contour>
      <point x="352" y="1512" type="move" name="top"/>
    </contour>
    <contour>
      <point x="303" y="1026" type="move" name="_top"/>
    </contour>
  </outline>
</glyph>
<glyph name="ogonek" format="1">
  <advance width="508"/>
  <unicode hex="02DB"/>
  <outline>
    <contour>
      <point x="220" y="-374" type="curve" smooth="yes"/>
      <point x="292" y="-374"/>
      <point x="378" y="-360"/>
      <point x="463" y="-335" type="curve"/>
      <point x="480" y="-196" type="line"/>
      <point x="451" y="-204"/>
      <point x="369" y="-230"/>
      <point x="309" y="-230" type="curve" smooth="yes"/>
      <point x="267" y="-230"/>
      <point x="235" y="-217"/>
      <point x="240" y="-175" type="curve" smooth="yes"/>
      <point x="247" y="-120"/>
      <point x="317" y="-35"/>
      <point x="418" y="20" type="curve"/>
      <point x="290" y="20" type="line"/>
      <point x="205" y="-20"/>
      <point x="36" y="-94"/>
      <point x="19" y="-235" type="curve" smooth="yes"/>
      <point x="7" y="-332"/>
      <point x="94" y="-374"/>
    </contour>
    <contour>
      <point x="332" y="0" type="move" name="_ogonek"/>
    </contour>
  </outline>
</glyph>
<glyph name="tilde" format="1">
  <advance width="725"/>
  <unicode hex="02DC"/>
  <outline>
    <contour>
      <point x="490" y="1170" type="curve" smooth="yes"/>
      <point x="622" y="1170"/>
      <point x="719" y="1263"/>
      <point x="743" y="1456" type="curve"/>
      <point x="588" y="1456" type="line"/>
      <point x="576" y="1359"/>
      <point x="541" y="1347"/>
      <point x="501" y="1351" type="curve" smooth="yes"/>
      <point x="442" y="1357"/>
      <point x="344" y="1456"/>
      <point x="229" y="1456" type="curve" smooth="yes"/>
      <point x="103" y="1456"/>
      <point x="3" y="1341"/>
      <point x="-17" y="1175" type="curve"/>
      <point x="135" y="1175" type="line"/>
      <point x="151" y="1249"/>
      <point x="187" y="1276"/>
      <point x="216" y="1276" type="curve" smooth="yes"/>
      <point x="279" y="1276"/>
      <point x="395" y="1170"/>
    </contour>
    <contour>
      <point x="391" y="1026" type="move" name="_top"/>
    </contour>
  </outline>
</glyph>
<glyph name="hungarumlaut" format="1">
  <advance width="969"/>
  <unicode hex="02DD"/>
  <outline>
    <contour>
      <point x="46" y="1125" type="line"/>
      <point x="216" y="1125" type="line"/>
      <point x="558" y="1483" type="line"/>
      <point x="290" y="1483" type="line"/>
    </contour>
    <contour>
      <point x="363" y="1125" type="line"/>
      <point x="540" y="1125" type="line"/>
      <point x="928" y="1483" type="line"/>
      <point x="644" y="1483" type="line"/>
    </contour>
    <contour>
      <point x="262" y="1026" type="move" name="_top"/>
    </contour>
  </outline>
</glyph>
<glyph name="uni0307" format="1">
  <advance width="524"/>
  <unicode hex="0307"/>
  <outline>
    <contour>
      <point x="132" y="1187" type="line"/>
      <point x="366" y="1187" type="line"/>
      <point x="392" y="1406" type="line"/>
      <point x="158" y="1406" type="line"/>
    </contour>
    <contour>
      <point x="233" y="1026" type="move" name="_top"/>
    </contour>
  </outline>
</glyph>
<glyph name="uni030F" format="1">
  <advance width="969"/>
  <unicode hex="030F"/>
  <outline>
    <contour>
      <point x="354" y="1167" type="line"/>
      <point x="531" y="1167" type="line"/>
      <point x="338" y="1525" type="line"/>
      <point x="54" y="1525" type="line"/>
    </contour>
    <contour>
      <point x="678" y="1167" type="line"/>
      <point x="848" y="1167" type="line"/>
      <point x="692" y="1525" type="line"/>
      <point x="424" y="1525" type="line"/>
    </contour>
    <contour>
      <point x="607" y="1026" type="move" name="_top"/>
    </contour>
  </outline>
</glyph>
<glyph name="uni0311" format="1">
  <advance width="629"/>
  <unicode hex="0311"/>
  <outline>
    <contour>
      <point x="-15" y="1162" type="curve"/>
      <point x="151" y="1162" type="line"/>
      <point x="170" y="1257"/>
      <point x="249" y="1281"/>
      <point x="311" y="1281" type="curve" smooth="yes"/>
      <point x="373" y="1281"/>
      <point x="446" y="1257"/>
      <point x="445" y="1162" type="curve"/>
      <point x="609" y="1162" type="line"/>
      <point x="618" y="1357"/>
      <point x="517" y="1447"/>
      <point x="331" y="1447" type="curve" smooth="yes"/>
      <point x="145" y="1447"/>
      <point x="22" y="1357"/>
    </contour>
    <contour>
      <point x="285" y="1026" type="move" name="_top"/>
    </contour>
  </outline>
</glyph>
<glyph name="uni0312" format="1">
  <advance width="600"/>
  <unicode hex="0312"/>
  <outline>
    <contour>
      <point x="594" y="1720" type="line"/>
      <point x="395" y="1720" type="line"/>
      <point x="156" y="1221" type="line"/>
      <point x="421" y="1221" type="line"/>
    </contour>
    <contour>
      <point x="234" y="1026" type="move" name="_top"/>
    </contour>
  </outline>
</glyph>
<glyph name="uni0326" format="1">
  <advance width="540"/>
  <unicode hex="0326"/>
  <outline>
    <contour>
      <point x="50" y="-639" type="line"/>
      <point x="250" y="-639" type="line"/>
      <point x="490" y="-140" type="line"/>
      <point x="224" y="-140" type="line"/>
    </contour>
    <contour>
      <point x="366" y="0" type="move" name="_bot"/>
    </contour>
  </outline>
</glyph>
<glyph name="Omega" format="1">
  <advance width="1603"/>
  <unicode hex="03A9"/>
  <outline>
    <contour>
      <point x="-15" y="0" type="line"/>
      <point x="588" y="0" type="line"/>
      <point x="608" y="163" type="line"/>
      <point x="434" y="285"/>
      <point x="318" y="507"/>
      <point x="351" y="775" type="curve" smooth="yes"/>
      <point x="375" y="968"/>
      <point x="500" y="1282"/>
      <point x="863" y="1282" type="curve" smooth="yes"/>
      <point x="1226" y="1282"/>
      <point x="1273" y="968"/>
      <point x="1249" y="775" type="curve" smooth="yes"/>
      <point x="1216" y="507"/>
      <point x="1046" y="285"/>
      <point x="842" y="163" type="curve"/>
      <point x="822" y="0" type="line"/>
      <point x="1425" y="0" type="line"/>
      <point x="1471" y="196" type="line"/>
      <point x="1154" y="194" type="line"/>
      <point x="1366" y="346"/>
      <point x="1475" y="550"/>
      <point x="1507" y="811" type="curve" smooth="yes"/>
      <point x="1557" y="1219"/>
      <point x="1291" y="1480"/>
      <point x="887" y="1480" type="curve" smooth="yes"/>
      <point x="483" y="1480"/>
      <point x="153" y="1219"/>
      <point x="103" y="811" type="curve" smooth="yes"/>
      <point x="71" y="550"/>
      <point x="130" y="346"/>
      <point x="304" y="194" type="curve"/>
      <point x="-13" y="196" type="line"/>
    </contour>
  </outline>
</glyph>
<glyph name="mu" format="1">
  <advance width="1191"/>
  <unicode hex="03BC"/>
  <outline>
    <contour>
      <point x="295" y="-227" type="line"/>
      <point x="326" y="24" type="line"/>
      <point x="356" y="-5"/>
      <point x="419" y="-23"/>
      <point x="479" y="-23" type="curve" smooth="yes"/>
      <point x="584" y="-23"/>
      <point x="711" y="28"/>
      <point x="776" y="152" type="curve"/>
      <point x="761" y="0" type="line"/>
      <point x="1006" y="0" type="line"/>
      <point x="1007" y="92"/>
      <point x="1012" y="166"/>
      <point x="1024" y="262" type="curve" smooth="yes"/>
      <point x="1118" y="1026" type="line"/>
      <point x="880" y="1026" type="line"/>
      <point x="806" y="422" type="line" smooth="yes"/>
      <point x="782" y="227"/>
      <point x="687" y="167"/>
      <point x="535" y="167" type="curve" smooth="yes"/>
      <point x="391" y="167"/>
      <point x="351" y="267"/>
      <point x="372" y="444" type="curve"/>
      <point x="440" y="1026" type="line"/>
      <point x="209" y="1026" type="line"/>
      <point x="55" y="-227" type="line"/>
    </contour>
  </outline>
</glyph>
<glyph name="pi" format="1">
  <advance width="1288"/>
  <unicode hex="03C0"/>
  <outline>
    <contour>
      <point x="295" y="562"/>
      <point x="226" y="177"/>
      <point x="104" y="0" type="curve"/>
      <point x="340" y="0" type="line"/>
      <point x="454" y="169"/>
      <point x="554" y="853"/>
      <point x="554" y="853" type="curve" smooth="yes"/>
      <point x="834" y="853" type="line"/>
      <point x="762" y="269" type="line" smooth="yes"/>
      <point x="737" y="63"/>
      <point x="831" y="-18"/>
      <point x="987" y="-18" type="curve" smooth="yes"/>
      <point x="1026" y="-18"/>
      <point x="1090" y="-13"/>
      <point x="1138" y="-4" type="curve"/>
      <point x="1161" y="183" type="line"/>
      <point x="1122" y="174"/>
      <point x="1088" y="170"/>
      <point x="1067" y="170" type="curve" smooth="yes"/>
      <point x="970" y="170"/>
      <point x="980" y="256"/>
      <point x="987" y="316" type="curve" smooth="yes"/>
      <point x="1053" y="853" type="line"/>
      <point x="1257" y="853" type="line"/>
      <point x="1278" y="1026" type="line"/>
      <point x="379" y="1026" type="line" smooth="yes"/>
      <point x="241" y="1026"/>
      <point x="141" y="995"/>
      <point x="100" y="963" type="curve"/>
      <point x="96" y="792" type="line"/>
      <point x="134" y="821"/>
      <point x="219" y="850"/>
      <point x="340" y="853" type="curve"/>
    </contour>
  </outline>
</glyph>
<glyph name="endash" format="1">
  <advance width="1085"/>
  <unicode hex="2013"/>
  <outline>
    <contour>
      <point x="-21" y="458" type="line"/>
      <point x="1082" y="458" type="line"/>
      <point x="1106" y="653" type="line"/>
      <point x="3" y="653" type="line"/>
    </contour>
  </outline>
</glyph>
<glyph name="emdash" format="1">
  <advance width="2171"/>
  <unicode hex="2014"/>
  <outline>
    <contour>
      <point x="18" y="458" type="line"/>
      <point x="2129" y="458" type="line"/>
      <point x="2153" y="653" type="line"/>
      <point x="42" y="653" type="line"/>
    </contour>
  </outline>
</glyph>
<glyph name="uni2015" format="1">
  <advance width="4096"/>
  <unicode hex="2015"/>
  <outline>
    <contour>
      <point x="45" y="458" type="line"/>
      <point x="4029" y="458" type="line"/>
      <point x="4051" y="639" type="line"/>
      <point x="67" y="639" type="line"/>
    </contour>
  </outline>
</glyph>
<glyph name="quoteleft" format="1">
  <advance width="564"/>
  <unicode hex="2018"/>
  <outline>
    <contour>
      <point x="264" y="868" type="line"/>
      <point x="414" y="868" type="line"/>
      <point x="446" y="1456" type="line"/>
      <point x="172" y="1456" type="line"/>
    </contour>
  </outline>
</glyph>
<glyph name="quotesinglbase" format="1">
  <advance width="675"/>
  <unicode hex="201A"/>
  <outline>
    <contour>
      <point x="119" y="-323" type="line"/>
      <point x="326" y="-323" type="line"/>
      <point x="562" y="253" type="line"/>
      <point x="303" y="253" type="line"/>
    </contour>
  </outline>
</glyph>
<glyph name="quotedblleft" format="1">
  <advance width="1024"/>
  <unicode hex="201C"/>
  <outline>
    <contour>
      <point x="101" y="868" type="line"/>
      <point x="372" y="868" type="line"/>
      <point x="557" y="1456" type="line"/>
      <point x="359" y="1456" type="line"/>
    </contour>
    <contour>
      <point x="547" y="868" type="line"/>
      <point x="809" y="868" type="line"/>
      <point x="993" y="1456" type="line"/>
      <point x="794" y="1456" type="line"/>
    </contour>
  </outline>
</glyph>
<glyph name="quotedblright" format="1">
  <advance width="1024"/>
  <unicode hex="201D"/>
  <outline>
    <contour>
      <point x="145" y="868" type="line"/>
      <point x="349" y="868" type="line"/>
      <point x="588" y="1456" type="line"/>
      <point x="326" y="1456" type="line"/>
    </contour>
    <contour>
      <point x="548" y="868" type="line"/>
      <point x="751" y="868" type="line"/>
      <point x="991" y="1456" type="line"/>
      <point x="732" y="1456" type="line"/>
    </contour>
  </outline>
</glyph>
<glyph name="quotedblbase" format="1">
  <advance width="1024"/>
  <unicode hex="201E"/>
  <outline>
    <contour>
      <point x="71" y="-223" type="line"/>
      <point x="280" y="-223" type="line"/>
      <point x="499" y="253" type="line"/>
      <point x="239" y="253" type="line"/>
    </contour>
    <contour>
      <point x="465" y="-223" type="line"/>
      <point x="669" y="-223" type="line"/>
      <point x="894" y="253" type="line"/>
      <point x="634" y="253" type="line"/>
    </contour>
  </outline>
</glyph>
<glyph name="dagger" format="1">
  <advance width="1022"/>
  <unicode hex="2020"/>
  <outline>
    <contour>
      <point x="317" y="106" type="line"/>
      <point x="507" y="106" type="line"/>
      <point x="602" y="875" type="line"/>
      <point x="933" y="875" type="line"/>
      <point x="956" y="1064" type="line"/>
      <point x="625" y="1064" type="line"/>
      <point x="669" y="1424" type="line"/>
      <point x="479" y="1424" type="line"/>
      <point x="435" y="1064" type="line"/>
      <point x="109" y="1064" type="line"/>
      <point x="86" y="875" type="line"/>
      <point x="412" y="875" type="line"/>
    </contour>
  </outline>
</glyph>
<glyph name="daggerdbl" format="1">
  <advance width="1157"/>
  <unicode hex="2021"/>
  <outline>
    <contour>
      <point x="191" y="1067" type="line"/>
      <point x="170" y="897" type="line"/>
      <point x="507" y="897" type="line"/>
      <point x="461" y="528" type="line"/>
      <point x="120" y="528" type="line"/>
      <point x="100" y="365" type="line"/>
      <point x="441" y="365" type="line"/>
      <point x="387" y="-80" type="line"/>
      <point x="595" y="-80" type="line"/>
      <point x="649" y="365" type="line"/>
      <point x="968" y="365" type="line"/>
      <point x="988" y="528" type="line"/>
      <point x="669" y="528" type="line"/>
      <point x="715" y="897" type="line"/>
      <point x="1043" y="897" type="line"/>
      <point x="1064" y="1067" type="line"/>
      <point x="736" y="1067" type="line"/>
      <point x="783" y="1456" type="line"/>
      <point x="575" y="1456" type="line"/>
      <point x="528" y="1067" type="line"/>
    </contour>
  </outline>
</glyph>
<glyph name="bullet" format="1">
  <advance width="989"/>
  <unicode hex="2022"/>
  <outline>
    <contour>
      <point x="453" y="362" type="curve" smooth="yes"/>
      <point x="644" y="362"/>
      <point x="811" y="509"/>
      <point x="833" y="684" type="curve" smooth="yes"/>
      <point x="854" y="859"/>
      <point x="731" y="1010"/>
      <point x="533" y="1010" type="curve" smooth="yes"/>
      <point x="344" y="1010"/>
      <point x="177" y="860"/>
      <point x="156" y="684" type="curve" smooth="yes"/>
      <point x="135" y="512"/>
      <point x="250" y="362"/>
    </contour>
  </outline>
</glyph>
<glyph name="ellipsis" format="1">
  <advance width="1620"/>
  <unicode hex="2026"/>
  <outline>
    <contour>
      <point x="105" y="-11" type="line"/>
      <point x="395" y="-11" type="line"/>
      <point x="426" y="251" type="line"/>
      <point x="137" y="251" type="line"/>
    </contour>
    <contour>
      <point x="629" y="-11" type="line"/>
      <point x="919" y="-11" type="line"/>
      <point x="950" y="251" type="line"/>
      <point x="661" y="251" type="line"/>
    </contour>
    <contour>
      <point x="1153" y="-11" type="line"/>
      <point x="1440" y="-11" type="line"/>
      <point x="1472" y="251" type="line"/>
      <point x="1185" y="251" type="line"/>
    </contour>
  </outline>
</glyph>
<glyph name="perthousand" format="1">
  <advance width="2719"/>
  <unicode hex="2030"/>
  <outline>
    <contour>
      <point x="2187" y="129" type="curve" smooth="yes"/>
      <point x="2078" y="129"/>
      <point x="2033" y="200"/>
      <point x="2053" y="357" type="curve" smooth="yes"/>
      <point x="2071" y="504"/>
      <point x="2127" y="586"/>
      <point x="2243" y="586" type="curve" smooth="yes"/>
      <point x="2359" y="586"/>
      <point x="2395" y="504"/>
      <point x="2377" y="357" type="curve" smooth="yes"/>
      <point x="2357" y="200"/>
      <point x="2296" y="129"/>
    </contour>
    <contour>
      <point x="2168" y="-21" type="curve" smooth="yes"/>
      <point x="2392" y="-21"/>
      <point x="2551" y="141"/>
      <point x="2578" y="357" type="curve" smooth="yes"/>
      <point x="2603" y="566"/>
      <point x="2486" y="736"/>
      <point x="2261" y="736" type="curve" smooth="yes"/>
      <point x="2036" y="736"/>
      <point x="1877" y="566"/>
      <point x="1852" y="357" type="curve" smooth="yes"/>
      <point x="1825" y="141"/>
      <point x="1944" y="-21"/>
    </contour>
    <component base="percent"/>
  </outline>
</glyph>
<glyph name="guilsinglleft" format="1">
  <advance width="717"/>
  <unicode hex="2039"/>
  <outline>
    <contour>
      <point x="367" y="160" type="line"/>
      <point x="558" y="160" type="line"/>
      <point x="373" y="540" type="line"/>
      <point x="660" y="921" type="line"/>
      <point x="467" y="921" type="line"/>
      <point x="138" y="541" type="line"/>
    </contour>
  </outline>
</glyph>
<glyph name="guilsinglright" format="1">
  <advance width="717"/>
  <unicode hex="203A"/>
  <outline>
    <contour>
      <point x="57" y="159" type="line"/>
      <point x="250" y="159" type="line"/>
      <point x="579" y="539" type="line"/>
      <point x="350" y="920" type="line"/>
      <point x="159" y="920" type="line"/>
      <point x="344" y="540" type="line"/>
    </contour>
  </outline>
</glyph>
<glyph name="foursuperior" format="1">
  <advance width="897"/>
  <unicode hex="2074"/>
  <outline>
    <contour>
      <point x="450" y="646" type="line"/>
      <point x="622" y="646" type="line"/>
      <point x="646" y="839" type="line"/>
      <point x="762" y="839" type="line"/>
      <point x="778" y="969" type="line"/>
      <point x="662" y="969" type="line"/>
      <point x="722" y="1456" type="line"/>
      <point x="548" y="1456" type="line"/>
      <point x="117" y="949" type="line"/>
      <point x="104" y="839" type="line"/>
      <point x="474" y="839" type="line"/>
    </contour>
    <contour>
      <point x="296" y="969" type="line"/>
      <point x="521" y="1241" type="line"/>
      <point x="488" y="969" type="line"/>
    </contour>
  </outline>
</glyph>
<glyph name="Euro" format="1">
  <advance width="1476"/>
  <unicode hex="20AC"/>
  <outline>
    <contour>
      <point x="87" y="508" type="line"/>
      <point x="962" y="508" type="line"/>
      <point x="982" y="620" type="line"/>
      <point x="391" y="620" type="line"/>
      <point x="415" y="828" type="line"/>
      <point x="1037" y="828" type="line"/>
      <point x="1058" y="946" type="line"/>
      <point x="144" y="946" type="line"/>
      <point x="125" y="828" type="line"/>
      <point x="380" y="828" type="line"/>
      <point x="357" y="620" type="line"/>
      <point x="105" y="620" type="line"/>
    </contour>
    <component base="C" xOffset="165"/>
  </outline>
</glyph>
<glyph name="trademark" format="1">
  <advance width="1869"/>
  <unicode hex="2122"/>
  <outline>
    <contour>
      <point x="764" y="643" type="line"/>
      <point x="941" y="643" type="line"/>
      <point x="998" y="1108" type="line"/>
      <point x="1151" y="643" type="line"/>
      <point x="1266" y="643" type="line"/>
      <point x="1530" y="1118" type="line"/>
      <point x="1472" y="643" type="line"/>
      <point x="1654" y="643" type="line"/>
      <point x="1750" y="1424" type="line"/>
      <point x="1537" y="1424" type="line"/>
      <point x="1243" y="913" type="line"/>
      <point x="1073" y="1424" type="line"/>
      <point x="860" y="1424" type="line"/>
    </contour>
    <contour>
      <point x="248" y="643" type="line"/>
      <point x="432" y="643" type="line"/>
      <point x="508" y="1264" type="line"/>
      <point x="735" y="1264" type="line"/>
      <point x="755" y="1424" type="line"/>
      <point x="121" y="1424" type="line"/>
      <point x="101" y="1264" type="line"/>
      <point x="324" y="1264" type="line"/>
    </contour>
  </outline>
</glyph>
<glyph name="estimated" format="1">
  <advance width="1197"/>
  <unicode hex="212E"/>
  <outline>
    <contour>
      <point x="275" y="114"/>
      <point x="560" y="114" type="curve" smooth="yes"/>
      <point x="702" y="114"/>
      <point x="859" y="158"/>
      <point x="1006" y="247" type="curve"/>
      <point x="985" y="299" type="line"/>
      <point x="850" y="218"/>
      <point x="725" y="176"/>
      <point x="623" y="176" type="curve" smooth="yes"/>
      <point x="423" y="176"/>
      <point x="304" y="333"/>
      <point x="344" y="655" type="curve"/>
      <point x="1069" y="655" type="line"/>
      <point x="1075" y="671"/>
      <point x="1078" y="689"/>
      <point x="1079" y="700" type="curve" smooth="yes"/>
      <point x="1125" y="1075"/>
      <point x="913" y="1199"/>
      <point x="678" y="1199" type="curve" smooth="yes"/>
      <point x="425" y="1199"/>
      <point x="144" y="1050"/>
      <point x="95" y="652" type="curve" smooth="yes"/>
      <point x="51" y="294"/>
    </contour>
    <contour>
      <point x="355" y="713" type="line"/>
      <point x="395" y="1036"/>
      <point x="538" y="1141"/>
      <point x="668" y="1141" type="curve" smooth="yes"/>
      <point x="798" y="1141"/>
      <point x="915" y="1037"/>
      <point x="875" y="713" type="curve"/>
    </contour>
  </outline>
</glyph>
<glyph name="partialdiff" format="1">
  <advance width="1162"/>
  <unicode hex="2202"/>
  <outline>
    <contour>
      <point x="386" y="-24" type="curve" smooth="yes"/>
      <point x="782" y="-24"/>
      <point x="1023" y="407"/>
      <point x="1075" y="828" type="curve" smooth="yes"/>
      <point x="1132" y="1294"/>
      <point x="968" y="1501"/>
      <point x="658" y="1501" type="curve" smooth="yes"/>
      <point x="540" y="1501"/>
      <point x="412" y="1461"/>
      <point x="317" y="1398" type="curve"/>
      <point x="310" y="1226" type="line"/>
      <point x="365" y="1254"/>
      <point x="481" y="1312"/>
      <point x="618" y="1312" type="curve" smooth="yes"/>
      <point x="774" y="1312"/>
      <point x="864" y="1177"/>
      <point x="848" y="963" type="curve"/>
      <point x="847" y="952"/>
      <point x="839" y="887"/>
      <point x="838" y="876" type="curve"/>
      <point x="821" y="939"/>
      <point x="733" y="1002"/>
      <point x="606" y="1002" type="curve" smooth="yes"/>
      <point x="320" y="1002"/>
      <point x="53" y="749"/>
      <point x="14" y="427" type="curve" smooth="yes"/>
      <point x="-18" y="172"/>
      <point x="104" y="-24"/>
    </contour>
    <contour>
      <point x="410" y="169" type="curve" smooth="yes"/>
      <point x="294" y="169"/>
      <point x="235" y="270"/>
      <point x="254" y="423" type="curve" smooth="yes"/>
      <point x="280" y="633"/>
      <point x="430" y="815"/>
      <point x="597" y="815" type="curve" smooth="yes"/>
      <point x="694" y="815"/>
      <point x="767" y="731"/>
      <point x="794" y="646" type="curve"/>
      <point x="700" y="290"/>
      <point x="568" y="169"/>
    </contour>
  </outline>
</glyph>
<glyph name="increment" format="1">
  <advance width="1446"/>
  <unicode hex="2206"/>
  <outline>
    <contour>
      <point x="-28" y="0" type="line"/>
      <point x="1293" y="0" type="line"/>
      <point x="1316" y="194" type="line"/>
      <point x="935" y="1456" type="line"/>
      <point x="689" y="1456" type="line"/>
      <point x="-6" y="183" type="line"/>
    </contour>
    <contour>
      <point x="246" y="200" type="line"/>
      <point x="751" y="1177" type="line"/>
      <point x="1028" y="200" type="line"/>
    </contour>
  </outline>
</glyph>
<glyph name="product" format="1">
  <advance width="1568"/>
  <unicode hex="220F"/>
  <outline>
    <contour>
      <point x="121" y="-100" type="line"/>
      <point x="380" y="-100" type="line"/>
      <point x="548" y="1263" type="line"/>
      <point x="1125" y="1263" type="line"/>
      <point x="957" y="-100" type="line"/>
      <point x="1223" y="-100" type="line"/>
      <point x="1391" y="1263" type="line"/>
      <point x="1520" y="1263" type="line"/>
      <point x="1542" y="1456" type="line"/>
      <point x="155" y="1456" type="line"/>
      <point x="131" y="1263" type="line"/>
      <point x="289" y="1263" type="line"/>
    </contour>
  </outline>
</glyph>
<glyph name="summation" format="1">
  <advance width="1249"/>
  <unicode hex="2211"/>
  <outline>
    <contour>
      <point x="-5" y="-223" type="line"/>
      <point x="1078" y="-223" type="line"/>
      <point x="1102" y="-23" type="line"/>
      <point x="364" y="-23" type="line"/>
      <point x="892" y="628" type="line"/>
      <point x="538" y="1263" type="line"/>
      <point x="1218" y="1263" type="line"/>
      <point x="1242" y="1456" type="line"/>
      <point x="223" y="1456" type="line"/>
      <point x="208" y="1334" type="line"/>
      <point x="611" y="625" type="line"/>
      <point x="10" y="-97" type="line"/>
    </contour>
  </outline>
</glyph>
<glyph name="minus" format="1">
  <advance width="1458"/>
  <unicode hex="2212"/>
  <outline>
    <contour>
      <point x="184" y="315" type="line"/>
      <point x="1250" y="315" type="line"/>
      <point x="1274" y="507" type="line"/>
      <point x="208" y="507" type="line"/>
    </contour>
  </outline>
</glyph>
<glyph name="radical" format="1">
  <advance width="1314"/>
  <unicode hex="221A"/>
  <outline>
    <contour>
      <point x="456" y="-144" type="line"/>
      <point x="651" y="-144" type="line"/>
      <point x="1315" y="1560" type="line"/>
      <point x="1101" y="1560" type="line"/>
      <point x="578" y="231" type="line"/>
      <point x="424" y="841" type="line"/>
      <point x="58" y="783" type="line"/>
      <point x="78" y="613" type="line"/>
      <point x="78" y="613"/>
      <point x="241" y="642"/>
      <point x="244" y="643" type="curve"/>
    </contour>
  </outline>
</glyph>
<glyph name="infinity" format="1">
  <advance width="1739"/>
  <unicode hex="221E"/>
  <outline>
    <contour>
      <point x="421" y="232" type="curve" smooth="yes"/>
      <point x="583" y="232"/>
      <point x="723" y="333"/>
      <point x="858" y="486" type="curve"/>
      <point x="970" y="311"/>
      <point x="1082" y="232"/>
      <point x="1232" y="232" type="curve" smooth="yes"/>
      <point x="1428" y="232"/>
      <point x="1616" y="384"/>
      <point x="1643" y="605" type="curve" smooth="yes"/>
      <point x="1670" y="817"/>
      <point x="1546" y="970"/>
      <point x="1324" y="970" type="curve" smooth="yes"/>
      <point x="1153" y="970"/>
      <point x="1019" y="870"/>
      <point x="888" y="715" type="curve"/>
      <point x="790" y="874"/>
      <point x="671" y="970"/>
      <point x="506" y="970" type="curve" smooth="yes"/>
      <point x="313" y="970"/>
      <point x="122" y="816"/>
      <point x="99" y="624" type="curve" smooth="yes"/>
      <point x="73" y="412"/>
      <point x="201" y="232"/>
    </contour>
    <contour>
      <point x="454" y="381" type="curve" smooth="yes"/>
      <point x="315" y="381"/>
      <point x="246" y="490"/>
      <point x="260" y="601" type="curve" smooth="yes"/>
      <point x="275" y="721"/>
      <point x="359" y="821"/>
      <point x="498" y="821" type="curve" smooth="yes"/>
      <point x="633" y="821"/>
      <point x="726" y="724"/>
      <point x="799" y="599" type="curve"/>
      <point x="696" y="480"/>
      <point x="579" y="381"/>
    </contour>
    <contour>
      <point x="1251" y="381" type="curve" smooth="yes"/>
      <point x="1132" y="381"/>
      <point x="1051" y="458"/>
      <point x="953" y="601" type="curve"/>
      <point x="1048" y="715"/>
      <point x="1173" y="821"/>
      <point x="1300" y="821" type="curve" smooth="yes"/>
      <point x="1428" y="821"/>
      <point x="1496" y="731"/>
      <point x="1483" y="626" type="curve" smooth="yes"/>
      <point x="1466" y="489"/>
      <point x="1397" y="381"/>
    </contour>
  </outline>
</glyph>
<glyph name="integral" format="1">
  <advance width="806"/>
  <unicode hex="222B"/>
  <outline>
    <contour>
      <point x="84" y="-320" type="curve" smooth="yes"/>
      <point x="315" y="-320"/>
      <point x="422" y="-158"/>
      <point x="449" y="62" type="curve" smooth="yes"/>
      <point x="587" y="1185" type="line" smooth="yes"/>
      <point x="601" y="1297"/>
      <point x="631" y="1357"/>
      <point x="727" y="1357" type="curve" smooth="yes"/>
      <point x="784" y="1357"/>
      <point x="857" y="1336"/>
      <point x="857" y="1336" type="curve"/>
      <point x="880" y="1522" type="line"/>
      <point x="880" y="1522"/>
      <point x="806" y="1547"/>
      <point x="714" y="1547" type="curve" smooth="yes"/>
      <point x="485" y="1547"/>
      <point x="374" y="1384"/>
      <point x="347" y="1164" type="curve" smooth="yes"/>
      <point x="209" y="42" type="line" smooth="yes"/>
      <point x="195" y="-70"/>
      <point x="172" y="-131"/>
      <point x="80" y="-131" type="curve" smooth="yes"/>
      <point x="20" y="-131"/>
      <point x="-57" y="-115"/>
      <point x="-57" y="-115" type="curve"/>
      <point x="-79" y="-294" type="line"/>
      <point x="-79" y="-294"/>
      <point x="-20" y="-320"/>
    </contour>
  </outline>
</glyph>
<glyph name="approxequal" format="1">
  <advance width="1351"/>
  <unicode hex="2248"/>
  <outline>
    <contour>
      <point x="260" y="685" type="line"/>
      <point x="315" y="807"/>
      <point x="355" y="841"/>
      <point x="436" y="841" type="curve" smooth="yes"/>
      <point x="488" y="841"/>
      <point x="562" y="815"/>
      <point x="644" y="785" type="curve" smooth="yes"/>
      <point x="765" y="741"/>
      <point x="861" y="714"/>
      <point x="941" y="714" type="curve" smooth="yes"/>
      <point x="1081" y="714"/>
      <point x="1167" y="779"/>
      <point x="1251" y="1006" type="curve"/>
      <point x="1098" y="1072" type="line"/>
      <point x="1054" y="945"/>
      <point x="1022" y="914"/>
      <point x="951" y="914" type="curve" smooth="yes"/>
      <point x="897" y="914"/>
      <point x="817" y="936"/>
      <point x="724" y="973" type="curve" smooth="yes"/>
      <point x="619" y="1014"/>
      <point x="526" y="1042"/>
      <point x="445" y="1042" type="curve" smooth="yes"/>
      <point x="309" y="1042"/>
      <point x="205" y="984"/>
      <point x="115" y="759" type="curve"/>
    </contour>
    <contour>
      <point x="194" y="145" type="line"/>
      <point x="249" y="267"/>
      <point x="288" y="301"/>
      <point x="369" y="301" type="curve" smooth="yes"/>
      <point x="421" y="301"/>
      <point x="496" y="275"/>
      <point x="577" y="245" type="curve" smooth="yes"/>
      <point x="699" y="201"/>
      <point x="795" y="174"/>
      <point x="875" y="174" type="curve" smooth="yes"/>
      <point x="1015" y="174"/>
      <point x="1101" y="239"/>
      <point x="1185" y="466" type="curve"/>
      <point x="1032" y="532" type="line"/>
      <point x="988" y="405"/>
      <point x="955" y="374"/>
      <point x="884" y="374" type="curve" smooth="yes"/>
      <point x="830" y="374"/>
      <point x="751" y="396"/>
      <point x="657" y="433" type="curve" smooth="yes"/>
      <point x="552" y="474"/>
      <point x="460" y="502"/>
      <point x="379" y="502" type="curve" smooth="yes"/>
      <point x="243" y="502"/>
      <point x="139" y="444"/>
      <point x="49" y="219" type="curve"/>
    </contour>
  </outline>
</glyph>
<glyph name="notequal" format="1">
  <advance width="1382"/>
  <unicode hex="2260"/>
  <outline>
    <contour>
      <point x="435" y="37" type="line"/>
      <point x="600" y="304" type="line"/>
      <point x="1188" y="304" type="line"/>
      <point x="1210" y="482" type="line"/>
      <point x="710" y="482" type="line"/>
      <point x="841" y="681" type="line"/>
      <point x="1234" y="681" type="line"/>
      <point x="1256" y="860" type="line"/>
      <point x="948" y="860" type="line"/>
      <point x="1093" y="1094" type="line"/>
      <point x="907" y="1122" type="line"/>
      <point x="746" y="860" type="line"/>
      <point x="194" y="860" type="line"/>
      <point x="172" y="681" type="line"/>
      <point x="638" y="681" type="line"/>
      <point x="510" y="482" type="line"/>
      <point x="148" y="482" type="line"/>
      <point x="126" y="304" type="line"/>
      <point x="397" y="304" type="line"/>
      <point x="255" y="66" type="line"/>
    </contour>
  </outline>
</glyph>
<glyph name="lessequal" format="1">
  <advance width="1351"/>
  <unicode hex="2264"/>
  <outline>
    <contour>
      <point x="1097" y="253" type="line"/>
      <point x="1123" y="466" type="line"/>
      <point x="445" y="782" type="line"/>
      <point x="1205" y="1101" type="line"/>
      <point x="1232" y="1318" type="line"/>
      <point x="142" y="836" type="line"/>
      <point x="128" y="725" type="line"/>
    </contour>
    <contour>
      <point x="33" y="0" type="line"/>
      <point x="1085" y="0" type="line"/>
      <point x="1107" y="176" type="line"/>
      <point x="55" y="176" type="line"/>
    </contour>
  </outline>
</glyph>
<glyph name="greaterequal" format="1">
  <advance width="1351"/>
  <unicode hex="2265"/>
  <outline>
    <contour>
      <point x="71" y="252" type="line"/>
      <point x="1161" y="734" type="line"/>
      <point x="1175" y="845" type="line"/>
      <point x="206" y="1317" type="line"/>
      <point x="180" y="1104" type="line"/>
      <point x="858" y="788" type="line"/>
      <point x="98" y="469" type="line"/>
    </contour>
    <contour>
      <point x="33" y="0" type="line"/>
      <point x="1085" y="0" type="line"/>
      <point x="1107" y="176" type="line"/>
      <point x="55" y="176" type="line"/>
    </contour>
  </outline>
</glyph>
<glyph name="lozenge" format="1">
  <advance width="1248"/>
  <unicode hex="25CA"/>
  <outline>
    <contour>
      <point x="427" y="-40" type="line"/>
      <point x="581" y="-40" type="line"/>
      <point x="1123" y="701" type="line"/>
      <point x="770" y="1442" type="line"/>
      <point x="615" y="1442" type="line"/>
      <point x="77" y="700" type="line"/>
    </contour>
    <contour>
      <point x="535" y="208" type="line"/>
      <point x="308" y="700" type="line"/>
      <point x="662" y="1179" type="line"/>
      <point x="891" y="700" type="line"/>
    </contour>
  </outline>
</glyph>
<glyph name="fi" format="1">
  <advance width="1276"/>
  <unicode hex="FB01"/>
  <outline>
    <contour>
      <point x="168" y="0" type="line"/>
      <point x="403" y="0" type="line"/>
      <point x="509" y="868" type="line"/>
      <point x="937" y="868" type="line"/>
      <point x="957" y="1026" type="line"/>
      <point x="529" y="1026" type="line"/>
      <point x="535" y="1079" type="line" smooth="yes"/>
      <point x="559" y="1274"/>
      <point x="582" y="1301"/>
      <point x="797" y="1301" type="curve"/>
      <point x="827" y="1484" type="line"/>
      <point x="775" y="1484" type="line" smooth="yes"/>
      <point x="385" y="1484"/>
      <point x="335" y="1359"/>
      <point x="300" y="1073" type="curve" smooth="yes"/>
      <point x="294" y="1026" type="line"/>
      <point x="105" y="1026" type="line"/>
      <point x="85" y="868" type="line"/>
      <point x="274" y="868" type="line"/>
    </contour>
    <component base="i" xOffset="747"/>
  </outline>
</glyph>
<glyph name="fl" format="1">
  <advance width="1267"/>
  <unicode hex="FB02"/>
  <outline>
    <contour>
      <point x="169" y="0" type="line"/>
      <point x="404" y="0" type="line"/>
      <point x="511" y="868" type="line"/>
      <point x="745" y="868" type="line"/>
      <point x="764" y="1026" type="line"/>
      <point x="530" y="1026" type="line"/>
      <point x="539" y="1102" type="line" smooth="yes"/>
      <point x="556" y="1236"/>
      <point x="602" y="1281"/>
      <point x="797" y="1281" type="curve" smooth="yes"/>
      <point x="957" y="1281" type="line"/>
      <point x="800" y="0" type="line"/>
      <point x="1034" y="0" type="line"/>
      <point x="1214" y="1463" type="line"/>
      <point x="776" y="1463" type="line" smooth="yes"/>
      <point x="426" y="1463"/>
      <point x="333" y="1338"/>
      <point x="298" y="1053" type="curve" smooth="yes"/>
      <point x="295" y="1026" type="line"/>
      <point x="106" y="1026" type="line"/>
      <point x="87" y="868" type="line"/>
      <point x="276" y="868" type="line"/>
    </contour>
  </outline>
</glyph>
<glyph name="caron.alt" format="1">
  <advance width="600"/>
  <outline>
    <contour>
      <point x="255" y="957" type="line"/>
      <point x="455" y="957" type="line"/>
      <point x="695" y="1456" type="line"/>
      <point x="429" y="1456" type="line"/>
    </contour>
    <contour>
      <point x="-22" y="1026" type="move" name="_caron.alt"/>
    </contour>
  </outline>
</glyph>
<glyph name="f_f_i" format="1">
  <advance width="2129"/>
  <outline>
    <contour>
      <point x="1892" y="0" type="line"/>
      <point x="2018" y="1026" type="line"/>
      <point x="1331" y="1026" type="line"/>
      <point x="1337" y="1079" type="line" smooth="yes"/>
      <point x="1361" y="1274"/>
      <point x="1384" y="1301"/>
      <point x="1599" y="1301" type="curve"/>
      <point x="1629" y="1484" type="line"/>
      <point x="1577" y="1484" type="line" smooth="yes"/>
      <point x="1187" y="1484"/>
      <point x="1137" y="1359"/>
      <point x="1102" y="1073" type="curve" smooth="yes"/>
      <point x="1096" y="1026" type="line"/>
      <point x="529" y="1026" type="line"/>
      <point x="535" y="1079" type="line" smooth="yes"/>
      <point x="559" y="1274"/>
      <point x="582" y="1301"/>
      <point x="797" y="1301" type="curve"/>
      <point x="827" y="1484" type="line"/>
      <point x="775" y="1484" type="line" smooth="yes"/>
      <point x="385" y="1484"/>
      <point x="335" y="1359"/>
      <point x="300" y="1073" type="curve" smooth="yes"/>
      <point x="294" y="1026" type="line"/>
      <point x="105" y="1026" type="line"/>
      <point x="85" y="868" type="line"/>
      <point x="274" y="868" type="line"/>
      <point x="168" y="0" type="line"/>
      <point x="403" y="0" type="line"/>
      <point x="509" y="868" type="line"/>
      <point x="1076" y="868" type="line"/>
      <point x="970" y="0" type="line"/>
      <point x="1205" y="0" type="line"/>
      <point x="1311" y="868" type="line"/>
      <point x="1769" y="868" type="line"/>
      <point x="1663" y="0" type="line"/>
    </contour>
    <contour>
      <point x="2045" y="1247" type="line"/>
      <point x="2071" y="1456" type="line"/>
      <point x="1842" y="1456" type="line"/>
      <point x="1816" y="1247" type="line"/>
    </contour>
    <contour>
      <point x="1268" y="1456" type="move" name="top"/>
    </contour>
    <contour>
      <point x="1776" y="0" type="move" name="ogonek"/>
    </contour>
  </outline>
</glyph>
<glyph name="f_f_l" format="1">
  <advance width="2131"/>
  <outline>
    <contour>
      <point x="168" y="0" type="line"/>
      <point x="403" y="0" type="line"/>
      <point x="509" y="868" type="line"/>
      <point x="865" y="868" type="line"/>
      <point x="885" y="1026" type="line"/>
      <point x="529" y="1026" type="line"/>
      <point x="535" y="1079" type="line" smooth="yes"/>
      <point x="559" y="1274"/>
      <point x="582" y="1301"/>
      <point x="797" y="1301" type="curve"/>
      <point x="827" y="1484" type="line"/>
      <point x="775" y="1484" type="line" smooth="yes"/>
      <point x="385" y="1484"/>
      <point x="335" y="1359"/>
      <point x="300" y="1073" type="curve" smooth="yes"/>
      <point x="294" y="1026" type="line"/>
      <point x="105" y="1026" type="line"/>
      <point x="85" y="868" type="line"/>
      <point x="274" y="868" type="line"/>
    </contour>
    <component base="fl" xOffset="691"/>
    <contour>
      <point x="466" y="1456" type="move" name="top"/>
    </contour>
  </outline>
</glyph>
